G04 #@! TF.GenerationSoftware,KiCad,Pcbnew,9.0.7*
G04 #@! TF.CreationDate,2026-01-25T06:09:58+01:00*
G04 #@! TF.ProjectId,usb2lin,75736232-6c69-46e2-9e6b-696361645f70,rev?*
G04 #@! TF.SameCoordinates,Original*
G04 #@! TF.FileFunction,Copper,L2,Bot*
G04 #@! TF.FilePolarity,Positive*
%FSLAX46Y46*%
G04 Gerber Fmt 4.6, Leading zero omitted, Abs format (unit mm)*
G04 Created by KiCad (PCBNEW 9.0.7) date 2026-01-25 06:09:58*
%MOMM*%
%LPD*%
G01*
G04 APERTURE LIST*
G04 Aperture macros list*
%AMRoundRect*
0 Rectangle with rounded corners*
0 $1 Rounding radius*
0 $2 $3 $4 $5 $6 $7 $8 $9 X,Y pos of 4 corners*
0 Add a 4 corners polygon primitive as box body*
4,1,4,$2,$3,$4,$5,$6,$7,$8,$9,$2,$3,0*
0 Add four circle primitives for the rounded corners*
1,1,$1+$1,$2,$3*
1,1,$1+$1,$4,$5*
1,1,$1+$1,$6,$7*
1,1,$1+$1,$8,$9*
0 Add four rect primitives between the rounded corners*
20,1,$1+$1,$2,$3,$4,$5,0*
20,1,$1+$1,$4,$5,$6,$7,0*
20,1,$1+$1,$6,$7,$8,$9,0*
20,1,$1+$1,$8,$9,$2,$3,0*%
G04 Aperture macros list end*
G04 #@! TA.AperFunction,ComponentPad*
%ADD10R,1.700000X1.700000*%
G04 #@! TD*
G04 #@! TA.AperFunction,ComponentPad*
%ADD11C,1.700000*%
G04 #@! TD*
G04 #@! TA.AperFunction,ComponentPad*
%ADD12RoundRect,0.250001X0.799999X0.799999X-0.799999X0.799999X-0.799999X-0.799999X0.799999X-0.799999X0*%
G04 #@! TD*
G04 #@! TA.AperFunction,ComponentPad*
%ADD13C,2.100000*%
G04 #@! TD*
G04 #@! TA.AperFunction,ComponentPad*
%ADD14RoundRect,0.250001X0.799999X-0.799999X0.799999X0.799999X-0.799999X0.799999X-0.799999X-0.799999X0*%
G04 #@! TD*
G04 #@! TA.AperFunction,ComponentPad*
%ADD15R,1.400000X1.400000*%
G04 #@! TD*
G04 #@! TA.AperFunction,ComponentPad*
%ADD16C,1.400000*%
G04 #@! TD*
G04 #@! TA.AperFunction,ComponentPad*
%ADD17C,3.000000*%
G04 #@! TD*
G04 #@! TA.AperFunction,ViaPad*
%ADD18C,0.600000*%
G04 #@! TD*
G04 #@! TA.AperFunction,Conductor*
%ADD19C,0.250000*%
G04 #@! TD*
G04 APERTURE END LIST*
D10*
X203200000Y-66294000D03*
D11*
X203200000Y-68834000D03*
X203200000Y-71374000D03*
D10*
X195834000Y-47244000D03*
D11*
X195834000Y-44704000D03*
X195834000Y-42164000D03*
D10*
X202946000Y-47244000D03*
D11*
X202946000Y-44704000D03*
X202946000Y-42164000D03*
D12*
X195834000Y-28326500D03*
D13*
X193294000Y-28326500D03*
D10*
X210058000Y-47244000D03*
D11*
X210058000Y-44704000D03*
X210058000Y-42164000D03*
D10*
X196088000Y-66294000D03*
D11*
X196088000Y-68834000D03*
X196088000Y-71374000D03*
D12*
X210058000Y-28326500D03*
D13*
X207518000Y-28326500D03*
D10*
X210312000Y-66294000D03*
D11*
X210312000Y-68834000D03*
X210312000Y-71374000D03*
D14*
X225250000Y-65040000D03*
D13*
X225250000Y-62500000D03*
D12*
X188722000Y-28326500D03*
D13*
X186182000Y-28326500D03*
D15*
X205875001Y-82625001D03*
D16*
X203375001Y-82625001D03*
X203375001Y-85825001D03*
X205875001Y-85825001D03*
D17*
X198605001Y-85335001D03*
X210645001Y-85335001D03*
D10*
X188722000Y-47244000D03*
D11*
X188722000Y-44704000D03*
X188722000Y-42164000D03*
D12*
X202946000Y-28326500D03*
D13*
X200406000Y-28326500D03*
D12*
X218948000Y-28326500D03*
D13*
X216408000Y-28326500D03*
D10*
X188976000Y-66294000D03*
D11*
X188976000Y-68834000D03*
X188976000Y-71374000D03*
D18*
X223174516Y-80051191D03*
X187579000Y-55372000D03*
X221661415Y-80046426D03*
X220988001Y-78576000D03*
X194691000Y-55372000D03*
X201803621Y-55372000D03*
X220337682Y-75869190D03*
X225102250Y-76252501D03*
X208915000Y-55372000D03*
X220988001Y-77306000D03*
X198501000Y-55372000D03*
X221607682Y-75869190D03*
X205613000Y-55372000D03*
X212725000Y-55372000D03*
X225102250Y-77522501D03*
X220391415Y-80046426D03*
X191389000Y-55372000D03*
D19*
X213946000Y-78833810D02*
X213946000Y-72696000D01*
X188976000Y-71374000D02*
X196088000Y-71374000D01*
X203200000Y-71374000D02*
X210312000Y-71374000D01*
X216612190Y-81500000D02*
X213946000Y-78833810D01*
X223174516Y-80051191D02*
X221725707Y-81500000D01*
X213946000Y-72696000D02*
X212624000Y-71374000D01*
X212624000Y-71374000D02*
X210312000Y-71374000D01*
X221725707Y-81500000D02*
X216612190Y-81500000D01*
X196088000Y-71374000D02*
X203200000Y-71374000D01*
X214397000Y-78647000D02*
X214397000Y-63103000D01*
X214397000Y-63103000D02*
X211098000Y-59804000D01*
X221661415Y-80046426D02*
X221661415Y-80088585D01*
X221661415Y-80046426D02*
X221573129Y-80046426D01*
X216750000Y-81000000D02*
X214397000Y-78647000D01*
X211098000Y-59804000D02*
X201752760Y-59804000D01*
X200301760Y-58353000D02*
X188353000Y-58353000D01*
X201752760Y-59804000D02*
X200301760Y-58353000D01*
X188353000Y-58353000D02*
X187579000Y-57579000D01*
X221661415Y-80088585D02*
X220750000Y-81000000D01*
X220750000Y-81000000D02*
X216750000Y-81000000D01*
X187579000Y-57579000D02*
X187579000Y-55372000D01*
X217257000Y-77757000D02*
X215299000Y-75799000D01*
X220988001Y-78576000D02*
X220169001Y-77757000D01*
X211471620Y-58902000D02*
X202126380Y-58902000D01*
X202126380Y-58902000D02*
X200675380Y-57451000D01*
X195392000Y-57451000D02*
X194691000Y-56750000D01*
X194691000Y-56750000D02*
X194691000Y-55372000D01*
X215299000Y-75799000D02*
X215299000Y-62729380D01*
X215299000Y-62729380D02*
X211471620Y-58902000D01*
X220169001Y-77757000D02*
X217257000Y-77757000D01*
X200675380Y-57451000D02*
X195392000Y-57451000D01*
X201803621Y-55372000D02*
X201803621Y-57303621D01*
X211845240Y-58000000D02*
X216201000Y-62355760D01*
X216201000Y-62355760D02*
X216201000Y-73691810D01*
X202500000Y-58000000D02*
X211845240Y-58000000D01*
X219718492Y-75250000D02*
X220337682Y-75869190D01*
X216201000Y-73691810D02*
X217759190Y-75250000D01*
X217759190Y-75250000D02*
X219718492Y-75250000D01*
X201803621Y-57303621D02*
X202500000Y-58000000D01*
X225102250Y-75240060D02*
X223759190Y-73897000D01*
X225102250Y-76252501D02*
X225102250Y-75240060D01*
X223759190Y-73897000D02*
X218509190Y-73897000D01*
X217103000Y-61982140D02*
X212218860Y-57098000D01*
X209598000Y-57098000D02*
X208915000Y-56415000D01*
X217103000Y-72490810D02*
X217103000Y-61982140D01*
X208915000Y-56415000D02*
X208915000Y-55372000D01*
X225102250Y-76252501D02*
X225102250Y-76238190D01*
X218509190Y-73897000D02*
X217103000Y-72490810D01*
X212218860Y-57098000D02*
X209598000Y-57098000D01*
X211658430Y-58451000D02*
X215750000Y-62542570D01*
X217556000Y-77306000D02*
X220988001Y-77306000D01*
X215750000Y-75500000D02*
X217556000Y-77306000D01*
X199250000Y-57000000D02*
X200862190Y-57000000D01*
X215750000Y-62542570D02*
X215750000Y-75500000D01*
X200862190Y-57000000D02*
X202313190Y-58451000D01*
X198501000Y-55372000D02*
X198501000Y-56251000D01*
X198501000Y-56251000D02*
X199250000Y-57000000D01*
X202313190Y-58451000D02*
X211658430Y-58451000D01*
X220537492Y-74799000D02*
X221607682Y-75869190D01*
X216652000Y-62168950D02*
X216652000Y-73505000D01*
X217946000Y-74799000D02*
X220537492Y-74799000D01*
X212032050Y-57549000D02*
X216652000Y-62168950D01*
X205613000Y-56863000D02*
X206299000Y-57549000D01*
X205613000Y-55372000D02*
X205613000Y-56863000D01*
X206299000Y-57549000D02*
X212032050Y-57549000D01*
X216652000Y-73505000D02*
X217946000Y-74799000D01*
X218696000Y-73446000D02*
X217554000Y-72304000D01*
X217554000Y-72304000D02*
X217554000Y-61795330D01*
X225750000Y-75250000D02*
X223946000Y-73446000D01*
X225022501Y-77522501D02*
X225102250Y-77522501D01*
X225750000Y-76874751D02*
X225750000Y-75250000D01*
X223946000Y-73446000D02*
X218696000Y-73446000D01*
X225102250Y-77522501D02*
X225750000Y-76874751D01*
X217554000Y-61795330D02*
X212725000Y-56966330D01*
X212725000Y-56966330D02*
X212725000Y-55372000D01*
X219951000Y-80549000D02*
X216936810Y-80549000D01*
X220391415Y-80046426D02*
X220391415Y-80108585D01*
X214848000Y-78460190D02*
X214848000Y-62916190D01*
X216936810Y-80549000D02*
X214848000Y-78460190D01*
X220391415Y-80108585D02*
X219951000Y-80549000D01*
X211284810Y-59353000D02*
X201939570Y-59353000D01*
X201939570Y-59353000D02*
X200488570Y-57902000D01*
X191389000Y-57139000D02*
X191389000Y-55372000D01*
X200488570Y-57902000D02*
X192152000Y-57902000D01*
X192152000Y-57902000D02*
X191389000Y-57139000D01*
X214848000Y-62916190D02*
X211284810Y-59353000D01*
G04 #@! TA.AperFunction,Conductor*
G36*
X229692539Y-24020185D02*
G01*
X229738294Y-24072989D01*
X229749500Y-24124500D01*
X229749500Y-93375500D01*
X229729815Y-93442539D01*
X229677011Y-93488294D01*
X229625500Y-93499500D01*
X175624500Y-93499500D01*
X175557461Y-93479815D01*
X175511706Y-93427011D01*
X175500500Y-93375500D01*
X175500500Y-89878711D01*
X177149500Y-89878711D01*
X177149500Y-90121288D01*
X177181161Y-90361785D01*
X177243947Y-90596104D01*
X177336773Y-90820205D01*
X177336776Y-90820212D01*
X177458064Y-91030289D01*
X177458066Y-91030292D01*
X177458067Y-91030293D01*
X177605733Y-91222736D01*
X177605739Y-91222743D01*
X177777256Y-91394260D01*
X177777262Y-91394265D01*
X177969711Y-91541936D01*
X178179788Y-91663224D01*
X178403900Y-91756054D01*
X178638211Y-91818838D01*
X178818586Y-91842584D01*
X178878711Y-91850500D01*
X178878712Y-91850500D01*
X179121289Y-91850500D01*
X179169388Y-91844167D01*
X179361789Y-91818838D01*
X179596100Y-91756054D01*
X179820212Y-91663224D01*
X180030289Y-91541936D01*
X180222738Y-91394265D01*
X180394265Y-91222738D01*
X180541936Y-91030289D01*
X180663224Y-90820212D01*
X180756054Y-90596100D01*
X180818838Y-90361789D01*
X180850500Y-90121288D01*
X180850500Y-89878712D01*
X180850500Y-89878711D01*
X224399500Y-89878711D01*
X224399500Y-90121288D01*
X224431161Y-90361785D01*
X224493947Y-90596104D01*
X224586773Y-90820205D01*
X224586776Y-90820212D01*
X224708064Y-91030289D01*
X224708066Y-91030292D01*
X224708067Y-91030293D01*
X224855733Y-91222736D01*
X224855739Y-91222743D01*
X225027256Y-91394260D01*
X225027262Y-91394265D01*
X225219711Y-91541936D01*
X225429788Y-91663224D01*
X225653900Y-91756054D01*
X225888211Y-91818838D01*
X226068586Y-91842584D01*
X226128711Y-91850500D01*
X226128712Y-91850500D01*
X226371289Y-91850500D01*
X226419388Y-91844167D01*
X226611789Y-91818838D01*
X226846100Y-91756054D01*
X227070212Y-91663224D01*
X227280289Y-91541936D01*
X227472738Y-91394265D01*
X227644265Y-91222738D01*
X227791936Y-91030289D01*
X227913224Y-90820212D01*
X228006054Y-90596100D01*
X228068838Y-90361789D01*
X228100500Y-90121288D01*
X228100500Y-89878712D01*
X228068838Y-89638211D01*
X228006054Y-89403900D01*
X227913224Y-89179788D01*
X227791936Y-88969711D01*
X227644265Y-88777262D01*
X227644260Y-88777256D01*
X227472743Y-88605739D01*
X227472736Y-88605733D01*
X227280293Y-88458067D01*
X227280292Y-88458066D01*
X227280289Y-88458064D01*
X227070212Y-88336776D01*
X227070205Y-88336773D01*
X226846104Y-88243947D01*
X226611785Y-88181161D01*
X226371289Y-88149500D01*
X226371288Y-88149500D01*
X226128712Y-88149500D01*
X226128711Y-88149500D01*
X225888214Y-88181161D01*
X225653895Y-88243947D01*
X225429794Y-88336773D01*
X225429785Y-88336777D01*
X225219706Y-88458067D01*
X225027263Y-88605733D01*
X225027256Y-88605739D01*
X224855739Y-88777256D01*
X224855733Y-88777263D01*
X224708067Y-88969706D01*
X224586777Y-89179785D01*
X224586773Y-89179794D01*
X224493947Y-89403895D01*
X224431161Y-89638214D01*
X224399500Y-89878711D01*
X180850500Y-89878711D01*
X180818838Y-89638211D01*
X180756054Y-89403900D01*
X180663224Y-89179788D01*
X180541936Y-88969711D01*
X180394265Y-88777262D01*
X180394260Y-88777256D01*
X180222743Y-88605739D01*
X180222736Y-88605733D01*
X180030293Y-88458067D01*
X180030292Y-88458066D01*
X180030289Y-88458064D01*
X179820212Y-88336776D01*
X179820205Y-88336773D01*
X179596104Y-88243947D01*
X179361785Y-88181161D01*
X179121289Y-88149500D01*
X179121288Y-88149500D01*
X178878712Y-88149500D01*
X178878711Y-88149500D01*
X178638214Y-88181161D01*
X178403895Y-88243947D01*
X178179794Y-88336773D01*
X178179785Y-88336777D01*
X177969706Y-88458067D01*
X177777263Y-88605733D01*
X177777256Y-88605739D01*
X177605739Y-88777256D01*
X177605733Y-88777263D01*
X177458067Y-88969706D01*
X177336777Y-89179785D01*
X177336773Y-89179794D01*
X177243947Y-89403895D01*
X177181161Y-89638214D01*
X177149500Y-89878711D01*
X175500500Y-89878711D01*
X175500500Y-85736305D01*
X202474501Y-85736305D01*
X202474501Y-85913696D01*
X202509104Y-86087659D01*
X202509107Y-86087668D01*
X202576984Y-86251541D01*
X202576991Y-86251554D01*
X202675536Y-86399035D01*
X202675539Y-86399039D01*
X202800962Y-86524462D01*
X202800966Y-86524465D01*
X202948447Y-86623010D01*
X202948460Y-86623017D01*
X203071364Y-86673924D01*
X203112335Y-86690895D01*
X203112337Y-86690895D01*
X203112342Y-86690897D01*
X203286305Y-86725500D01*
X203286308Y-86725501D01*
X203286310Y-86725501D01*
X203463694Y-86725501D01*
X203463695Y-86725500D01*
X203521683Y-86713965D01*
X203637659Y-86690897D01*
X203637662Y-86690895D01*
X203637667Y-86690895D01*
X203801548Y-86623014D01*
X203949036Y-86524465D01*
X204074465Y-86399036D01*
X204173014Y-86251548D01*
X204240895Y-86087667D01*
X204275501Y-85913692D01*
X204275501Y-85736310D01*
X204275501Y-85736307D01*
X204275500Y-85736305D01*
X204240897Y-85562342D01*
X204240894Y-85562333D01*
X204173017Y-85398460D01*
X204173010Y-85398447D01*
X204074465Y-85250966D01*
X204074462Y-85250962D01*
X203949039Y-85125539D01*
X203949035Y-85125536D01*
X203801554Y-85026991D01*
X203801541Y-85026984D01*
X203637668Y-84959107D01*
X203637659Y-84959104D01*
X203463695Y-84924501D01*
X203463692Y-84924501D01*
X203286310Y-84924501D01*
X203286307Y-84924501D01*
X203112342Y-84959104D01*
X203112333Y-84959107D01*
X202948460Y-85026984D01*
X202948447Y-85026991D01*
X202800966Y-85125536D01*
X202800962Y-85125539D01*
X202675539Y-85250962D01*
X202675536Y-85250966D01*
X202576991Y-85398447D01*
X202576984Y-85398460D01*
X202509107Y-85562333D01*
X202509104Y-85562342D01*
X202474501Y-85736305D01*
X175500500Y-85736305D01*
X175500500Y-82536305D01*
X202474501Y-82536305D01*
X202474501Y-82713696D01*
X202509104Y-82887659D01*
X202509107Y-82887668D01*
X202576984Y-83051541D01*
X202576991Y-83051554D01*
X202675536Y-83199035D01*
X202675539Y-83199039D01*
X202800962Y-83324462D01*
X202800966Y-83324465D01*
X202948447Y-83423010D01*
X202948460Y-83423017D01*
X203060810Y-83469553D01*
X203112335Y-83490895D01*
X203112337Y-83490895D01*
X203112342Y-83490897D01*
X203286305Y-83525500D01*
X203286308Y-83525501D01*
X203286310Y-83525501D01*
X203463694Y-83525501D01*
X203463695Y-83525500D01*
X203522175Y-83513868D01*
X203637659Y-83490897D01*
X203637662Y-83490895D01*
X203637667Y-83490895D01*
X203801548Y-83423014D01*
X203949036Y-83324465D01*
X204074465Y-83199036D01*
X204173014Y-83051548D01*
X204240895Y-82887667D01*
X204275501Y-82713692D01*
X204275501Y-82536310D01*
X204275501Y-82536307D01*
X204275500Y-82536305D01*
X204240897Y-82362342D01*
X204240894Y-82362333D01*
X204173017Y-82198460D01*
X204173010Y-82198447D01*
X204074465Y-82050966D01*
X204074462Y-82050962D01*
X203949039Y-81925539D01*
X203949035Y-81925536D01*
X203918672Y-81905248D01*
X204974501Y-81905248D01*
X204974501Y-83344753D01*
X204986132Y-83403230D01*
X204986133Y-83403231D01*
X205030448Y-83469553D01*
X205096770Y-83513868D01*
X205096771Y-83513869D01*
X205155248Y-83525500D01*
X205155251Y-83525501D01*
X205155253Y-83525501D01*
X206594751Y-83525501D01*
X206594752Y-83525500D01*
X206609569Y-83522553D01*
X206653230Y-83513869D01*
X206653230Y-83513868D01*
X206653232Y-83513868D01*
X206719553Y-83469553D01*
X206763868Y-83403232D01*
X206763868Y-83403230D01*
X206763869Y-83403230D01*
X206775500Y-83344753D01*
X206775501Y-83344751D01*
X206775501Y-81905250D01*
X206775500Y-81905248D01*
X206763869Y-81846771D01*
X206763868Y-81846770D01*
X206719553Y-81780448D01*
X206653231Y-81736133D01*
X206653230Y-81736132D01*
X206594753Y-81724501D01*
X206594749Y-81724501D01*
X205155253Y-81724501D01*
X205155248Y-81724501D01*
X205096771Y-81736132D01*
X205096770Y-81736133D01*
X205030448Y-81780448D01*
X204986133Y-81846770D01*
X204986132Y-81846771D01*
X204974501Y-81905248D01*
X203918672Y-81905248D01*
X203801554Y-81826991D01*
X203801541Y-81826984D01*
X203637668Y-81759107D01*
X203637659Y-81759104D01*
X203463695Y-81724501D01*
X203463692Y-81724501D01*
X203286310Y-81724501D01*
X203286307Y-81724501D01*
X203112342Y-81759104D01*
X203112333Y-81759107D01*
X202948460Y-81826984D01*
X202948447Y-81826991D01*
X202800966Y-81925536D01*
X202800962Y-81925539D01*
X202675539Y-82050962D01*
X202675536Y-82050966D01*
X202576991Y-82198447D01*
X202576984Y-82198460D01*
X202509107Y-82362333D01*
X202509104Y-82362342D01*
X202474501Y-82536305D01*
X175500500Y-82536305D01*
X175500500Y-68730530D01*
X187925500Y-68730530D01*
X187925500Y-68937469D01*
X187965868Y-69140412D01*
X187965870Y-69140420D01*
X188045058Y-69331596D01*
X188160024Y-69503657D01*
X188306342Y-69649975D01*
X188306345Y-69649977D01*
X188478402Y-69764941D01*
X188669580Y-69844130D01*
X188872530Y-69884499D01*
X188872534Y-69884500D01*
X188872535Y-69884500D01*
X189079466Y-69884500D01*
X189079467Y-69884499D01*
X189282420Y-69844130D01*
X189473598Y-69764941D01*
X189645655Y-69649977D01*
X189791977Y-69503655D01*
X189906941Y-69331598D01*
X189986130Y-69140420D01*
X190026500Y-68937465D01*
X190026500Y-68730535D01*
X190026499Y-68730530D01*
X195037500Y-68730530D01*
X195037500Y-68937469D01*
X195077868Y-69140412D01*
X195077870Y-69140420D01*
X195157058Y-69331596D01*
X195272024Y-69503657D01*
X195418342Y-69649975D01*
X195418345Y-69649977D01*
X195590402Y-69764941D01*
X195781580Y-69844130D01*
X195984530Y-69884499D01*
X195984534Y-69884500D01*
X195984535Y-69884500D01*
X196191466Y-69884500D01*
X196191467Y-69884499D01*
X196394420Y-69844130D01*
X196585598Y-69764941D01*
X196757655Y-69649977D01*
X196903977Y-69503655D01*
X197018941Y-69331598D01*
X197098130Y-69140420D01*
X197138500Y-68937465D01*
X197138500Y-68730535D01*
X197138499Y-68730530D01*
X202149500Y-68730530D01*
X202149500Y-68937469D01*
X202189868Y-69140412D01*
X202189870Y-69140420D01*
X202269058Y-69331596D01*
X202384024Y-69503657D01*
X202530342Y-69649975D01*
X202530345Y-69649977D01*
X202702402Y-69764941D01*
X202893580Y-69844130D01*
X203096530Y-69884499D01*
X203096534Y-69884500D01*
X203096535Y-69884500D01*
X203303466Y-69884500D01*
X203303467Y-69884499D01*
X203506420Y-69844130D01*
X203697598Y-69764941D01*
X203869655Y-69649977D01*
X204015977Y-69503655D01*
X204130941Y-69331598D01*
X204210130Y-69140420D01*
X204250500Y-68937465D01*
X204250500Y-68730535D01*
X204250499Y-68730530D01*
X209261500Y-68730530D01*
X209261500Y-68937469D01*
X209301868Y-69140412D01*
X209301870Y-69140420D01*
X209381058Y-69331596D01*
X209496024Y-69503657D01*
X209642342Y-69649975D01*
X209642345Y-69649977D01*
X209814402Y-69764941D01*
X210005580Y-69844130D01*
X210208530Y-69884499D01*
X210208534Y-69884500D01*
X210208535Y-69884500D01*
X210415466Y-69884500D01*
X210415467Y-69884499D01*
X210618420Y-69844130D01*
X210809598Y-69764941D01*
X210981655Y-69649977D01*
X211127977Y-69503655D01*
X211242941Y-69331598D01*
X211322130Y-69140420D01*
X211362500Y-68937465D01*
X211362500Y-68730535D01*
X211322130Y-68527580D01*
X211242941Y-68336402D01*
X211127977Y-68164345D01*
X211127975Y-68164342D01*
X210981657Y-68018024D01*
X210895626Y-67960541D01*
X210809598Y-67903059D01*
X210618420Y-67823870D01*
X210618412Y-67823868D01*
X210415469Y-67783500D01*
X210415465Y-67783500D01*
X210208535Y-67783500D01*
X210208530Y-67783500D01*
X210005587Y-67823868D01*
X210005579Y-67823870D01*
X209814403Y-67903058D01*
X209642342Y-68018024D01*
X209496024Y-68164342D01*
X209381058Y-68336403D01*
X209301870Y-68527579D01*
X209301868Y-68527587D01*
X209261500Y-68730530D01*
X204250499Y-68730530D01*
X204210130Y-68527580D01*
X204130941Y-68336402D01*
X204015977Y-68164345D01*
X204015975Y-68164342D01*
X203869657Y-68018024D01*
X203783626Y-67960541D01*
X203697598Y-67903059D01*
X203506420Y-67823870D01*
X203506412Y-67823868D01*
X203303469Y-67783500D01*
X203303465Y-67783500D01*
X203096535Y-67783500D01*
X203096530Y-67783500D01*
X202893587Y-67823868D01*
X202893579Y-67823870D01*
X202702403Y-67903058D01*
X202530342Y-68018024D01*
X202384024Y-68164342D01*
X202269058Y-68336403D01*
X202189870Y-68527579D01*
X202189868Y-68527587D01*
X202149500Y-68730530D01*
X197138499Y-68730530D01*
X197098130Y-68527580D01*
X197018941Y-68336402D01*
X196903977Y-68164345D01*
X196903975Y-68164342D01*
X196757657Y-68018024D01*
X196671626Y-67960541D01*
X196585598Y-67903059D01*
X196394420Y-67823870D01*
X196394412Y-67823868D01*
X196191469Y-67783500D01*
X196191465Y-67783500D01*
X195984535Y-67783500D01*
X195984530Y-67783500D01*
X195781587Y-67823868D01*
X195781579Y-67823870D01*
X195590403Y-67903058D01*
X195418342Y-68018024D01*
X195272024Y-68164342D01*
X195157058Y-68336403D01*
X195077870Y-68527579D01*
X195077868Y-68527587D01*
X195037500Y-68730530D01*
X190026499Y-68730530D01*
X189986130Y-68527580D01*
X189906941Y-68336402D01*
X189791977Y-68164345D01*
X189791975Y-68164342D01*
X189645657Y-68018024D01*
X189559626Y-67960541D01*
X189473598Y-67903059D01*
X189282420Y-67823870D01*
X189282412Y-67823868D01*
X189079469Y-67783500D01*
X189079465Y-67783500D01*
X188872535Y-67783500D01*
X188872530Y-67783500D01*
X188669587Y-67823868D01*
X188669579Y-67823870D01*
X188478403Y-67903058D01*
X188306342Y-68018024D01*
X188160024Y-68164342D01*
X188045058Y-68336403D01*
X187965870Y-68527579D01*
X187965868Y-68527587D01*
X187925500Y-68730530D01*
X175500500Y-68730530D01*
X175500500Y-55306108D01*
X187078500Y-55306108D01*
X187078500Y-55437891D01*
X187112608Y-55565187D01*
X187145554Y-55622250D01*
X187178500Y-55679314D01*
X187178502Y-55679316D01*
X187217181Y-55717995D01*
X187250666Y-55779318D01*
X187253500Y-55805676D01*
X187253500Y-57621852D01*
X187275682Y-57704640D01*
X187297108Y-57741750D01*
X187318535Y-57778862D01*
X188092534Y-58552861D01*
X188092535Y-58552862D01*
X188153138Y-58613465D01*
X188153140Y-58613466D01*
X188153144Y-58613469D01*
X188227355Y-58656314D01*
X188227362Y-58656318D01*
X188310147Y-58678500D01*
X188395853Y-58678500D01*
X200115571Y-58678500D01*
X200182610Y-58698185D01*
X200203252Y-58714819D01*
X201552898Y-60064465D01*
X201627121Y-60107318D01*
X201709907Y-60129500D01*
X201795613Y-60129500D01*
X210911811Y-60129500D01*
X210978850Y-60149185D01*
X210999492Y-60165819D01*
X214035181Y-63201507D01*
X214068666Y-63262830D01*
X214071500Y-63289188D01*
X214071500Y-72061811D01*
X214051815Y-72128850D01*
X213999011Y-72174605D01*
X213929853Y-72184549D01*
X213866297Y-72155524D01*
X213859819Y-72149492D01*
X212823864Y-71113537D01*
X212823862Y-71113535D01*
X212786750Y-71092108D01*
X212749640Y-71070682D01*
X212708246Y-71059591D01*
X212666853Y-71048500D01*
X212666852Y-71048500D01*
X211397081Y-71048500D01*
X211330042Y-71028815D01*
X211284287Y-70976011D01*
X211282520Y-70971953D01*
X211242942Y-70876403D01*
X211127975Y-70704342D01*
X210981657Y-70558024D01*
X210895626Y-70500541D01*
X210809598Y-70443059D01*
X210618420Y-70363870D01*
X210618412Y-70363868D01*
X210415469Y-70323500D01*
X210415465Y-70323500D01*
X210208535Y-70323500D01*
X210208530Y-70323500D01*
X210005587Y-70363868D01*
X210005579Y-70363870D01*
X209814403Y-70443058D01*
X209642342Y-70558024D01*
X209496024Y-70704342D01*
X209381057Y-70876403D01*
X209341480Y-70971953D01*
X209297639Y-71026356D01*
X209231345Y-71048421D01*
X209226919Y-71048500D01*
X204285081Y-71048500D01*
X204218042Y-71028815D01*
X204172287Y-70976011D01*
X204170520Y-70971953D01*
X204130942Y-70876403D01*
X204015975Y-70704342D01*
X203869657Y-70558024D01*
X203783626Y-70500541D01*
X203697598Y-70443059D01*
X203506420Y-70363870D01*
X203506412Y-70363868D01*
X203303469Y-70323500D01*
X203303465Y-70323500D01*
X203096535Y-70323500D01*
X203096530Y-70323500D01*
X202893587Y-70363868D01*
X202893579Y-70363870D01*
X202702403Y-70443058D01*
X202530342Y-70558024D01*
X202384024Y-70704342D01*
X202269057Y-70876403D01*
X202229480Y-70971953D01*
X202185639Y-71026356D01*
X202119345Y-71048421D01*
X202114919Y-71048500D01*
X197173081Y-71048500D01*
X197106042Y-71028815D01*
X197060287Y-70976011D01*
X197058520Y-70971953D01*
X197018942Y-70876403D01*
X196903975Y-70704342D01*
X196757657Y-70558024D01*
X196671626Y-70500541D01*
X196585598Y-70443059D01*
X196394420Y-70363870D01*
X196394412Y-70363868D01*
X196191469Y-70323500D01*
X196191465Y-70323500D01*
X195984535Y-70323500D01*
X195984530Y-70323500D01*
X195781587Y-70363868D01*
X195781579Y-70363870D01*
X195590403Y-70443058D01*
X195418342Y-70558024D01*
X195272024Y-70704342D01*
X195157057Y-70876403D01*
X195117480Y-70971953D01*
X195073639Y-71026356D01*
X195007345Y-71048421D01*
X195002919Y-71048500D01*
X190061081Y-71048500D01*
X189994042Y-71028815D01*
X189948287Y-70976011D01*
X189946520Y-70971953D01*
X189906942Y-70876403D01*
X189791975Y-70704342D01*
X189645657Y-70558024D01*
X189559626Y-70500541D01*
X189473598Y-70443059D01*
X189282420Y-70363870D01*
X189282412Y-70363868D01*
X189079469Y-70323500D01*
X189079465Y-70323500D01*
X188872535Y-70323500D01*
X188872530Y-70323500D01*
X188669587Y-70363868D01*
X188669579Y-70363870D01*
X188478403Y-70443058D01*
X188306342Y-70558024D01*
X188160024Y-70704342D01*
X188045058Y-70876403D01*
X187965870Y-71067579D01*
X187965868Y-71067587D01*
X187925500Y-71270530D01*
X187925500Y-71477469D01*
X187965868Y-71680412D01*
X187965870Y-71680420D01*
X188045058Y-71871596D01*
X188160024Y-72043657D01*
X188306342Y-72189975D01*
X188306345Y-72189977D01*
X188478402Y-72304941D01*
X188669580Y-72384130D01*
X188872530Y-72424499D01*
X188872534Y-72424500D01*
X188872535Y-72424500D01*
X189079466Y-72424500D01*
X189079467Y-72424499D01*
X189282420Y-72384130D01*
X189473598Y-72304941D01*
X189645655Y-72189977D01*
X189791977Y-72043655D01*
X189906941Y-71871598D01*
X189946520Y-71776047D01*
X189990361Y-71721644D01*
X190056655Y-71699579D01*
X190061081Y-71699500D01*
X195002919Y-71699500D01*
X195069958Y-71719185D01*
X195115713Y-71771989D01*
X195117480Y-71776047D01*
X195157057Y-71871596D01*
X195272024Y-72043657D01*
X195418342Y-72189975D01*
X195418345Y-72189977D01*
X195590402Y-72304941D01*
X195781580Y-72384130D01*
X195984530Y-72424499D01*
X195984534Y-72424500D01*
X195984535Y-72424500D01*
X196191466Y-72424500D01*
X196191467Y-72424499D01*
X196394420Y-72384130D01*
X196585598Y-72304941D01*
X196757655Y-72189977D01*
X196903977Y-72043655D01*
X197018941Y-71871598D01*
X197058520Y-71776047D01*
X197102361Y-71721644D01*
X197168655Y-71699579D01*
X197173081Y-71699500D01*
X202114919Y-71699500D01*
X202181958Y-71719185D01*
X202227713Y-71771989D01*
X202229480Y-71776047D01*
X202269057Y-71871596D01*
X202384024Y-72043657D01*
X202530342Y-72189975D01*
X202530345Y-72189977D01*
X202702402Y-72304941D01*
X202893580Y-72384130D01*
X203096530Y-72424499D01*
X203096534Y-72424500D01*
X203096535Y-72424500D01*
X203303466Y-72424500D01*
X203303467Y-72424499D01*
X203506420Y-72384130D01*
X203697598Y-72304941D01*
X203869655Y-72189977D01*
X204015977Y-72043655D01*
X204130941Y-71871598D01*
X204170520Y-71776047D01*
X204214361Y-71721644D01*
X204280655Y-71699579D01*
X204285081Y-71699500D01*
X209226919Y-71699500D01*
X209293958Y-71719185D01*
X209339713Y-71771989D01*
X209341480Y-71776047D01*
X209381057Y-71871596D01*
X209496024Y-72043657D01*
X209642342Y-72189975D01*
X209642345Y-72189977D01*
X209814402Y-72304941D01*
X210005580Y-72384130D01*
X210208530Y-72424499D01*
X210208534Y-72424500D01*
X210208535Y-72424500D01*
X210415466Y-72424500D01*
X210415467Y-72424499D01*
X210618420Y-72384130D01*
X210809598Y-72304941D01*
X210981655Y-72189977D01*
X211127977Y-72043655D01*
X211242941Y-71871598D01*
X211282520Y-71776047D01*
X211326361Y-71721644D01*
X211392655Y-71699579D01*
X211397081Y-71699500D01*
X212437811Y-71699500D01*
X212504850Y-71719185D01*
X212525492Y-71735819D01*
X213584181Y-72794508D01*
X213617666Y-72855831D01*
X213620500Y-72882189D01*
X213620500Y-78876662D01*
X213642682Y-78959450D01*
X213652526Y-78976499D01*
X213685535Y-79033672D01*
X216412328Y-81760465D01*
X216486551Y-81803318D01*
X216569337Y-81825500D01*
X216569339Y-81825500D01*
X221768558Y-81825500D01*
X221768560Y-81825500D01*
X221851346Y-81803318D01*
X221925569Y-81760465D01*
X223098024Y-80588010D01*
X223159347Y-80554525D01*
X223185705Y-80551691D01*
X223240406Y-80551691D01*
X223240408Y-80551691D01*
X223367702Y-80517583D01*
X223481830Y-80451691D01*
X223575016Y-80358505D01*
X223640908Y-80244377D01*
X223675016Y-80117083D01*
X223675016Y-79985299D01*
X223640908Y-79858005D01*
X223575016Y-79743877D01*
X223481830Y-79650691D01*
X223424766Y-79617745D01*
X223367703Y-79584799D01*
X223304055Y-79567745D01*
X223240408Y-79550691D01*
X223108624Y-79550691D01*
X222981328Y-79584799D01*
X222867202Y-79650691D01*
X222867199Y-79650693D01*
X222774018Y-79743874D01*
X222774016Y-79743877D01*
X222708124Y-79858003D01*
X222674016Y-79985299D01*
X222674016Y-80040002D01*
X222654331Y-80107041D01*
X222637697Y-80127683D01*
X222246319Y-80519060D01*
X221627199Y-81138181D01*
X221565876Y-81171666D01*
X221539518Y-81174500D01*
X221335189Y-81174500D01*
X221268150Y-81154815D01*
X221222395Y-81102011D01*
X221212451Y-81032853D01*
X221241476Y-80969297D01*
X221247508Y-80962819D01*
X221627082Y-80583245D01*
X221688405Y-80549760D01*
X221714763Y-80546926D01*
X221727305Y-80546926D01*
X221727307Y-80546926D01*
X221854601Y-80512818D01*
X221968729Y-80446926D01*
X222061915Y-80353740D01*
X222127807Y-80239612D01*
X222161915Y-80112318D01*
X222161915Y-79980534D01*
X222127807Y-79853240D01*
X222061915Y-79739112D01*
X221968729Y-79645926D01*
X221911665Y-79612980D01*
X221854602Y-79580034D01*
X221745090Y-79550691D01*
X221727307Y-79545926D01*
X221595523Y-79545926D01*
X221468227Y-79580034D01*
X221354101Y-79645926D01*
X221354098Y-79645928D01*
X221260917Y-79739109D01*
X221260915Y-79739112D01*
X221195023Y-79853238D01*
X221160915Y-79980534D01*
X221160915Y-80077395D01*
X221152270Y-80106835D01*
X221145747Y-80136822D01*
X221141992Y-80141837D01*
X221141230Y-80144434D01*
X221124596Y-80165076D01*
X221103596Y-80186076D01*
X221042273Y-80219561D01*
X220972581Y-80214577D01*
X220916648Y-80172705D01*
X220892231Y-80107241D01*
X220891915Y-80098395D01*
X220891915Y-79980536D01*
X220891915Y-79980534D01*
X220857807Y-79853240D01*
X220791915Y-79739112D01*
X220698729Y-79645926D01*
X220641665Y-79612980D01*
X220584602Y-79580034D01*
X220475090Y-79550691D01*
X220457307Y-79545926D01*
X220325523Y-79545926D01*
X220198227Y-79580034D01*
X220084101Y-79645926D01*
X220084098Y-79645928D01*
X219990917Y-79739109D01*
X219990915Y-79739112D01*
X219925023Y-79853238D01*
X219890915Y-79980534D01*
X219890915Y-80097394D01*
X219882274Y-80126821D01*
X219875761Y-80156795D01*
X219871994Y-80161828D01*
X219871230Y-80164433D01*
X219854617Y-80185054D01*
X219852512Y-80187160D01*
X219791197Y-80220660D01*
X219764810Y-80223500D01*
X217122999Y-80223500D01*
X217055960Y-80203815D01*
X217035318Y-80187181D01*
X215209819Y-78361682D01*
X215176334Y-78300359D01*
X215173500Y-78274001D01*
X215173500Y-76433189D01*
X215193185Y-76366150D01*
X215245989Y-76320395D01*
X215315147Y-76310451D01*
X215378703Y-76339476D01*
X215385181Y-76345508D01*
X217057138Y-78017465D01*
X217131361Y-78060318D01*
X217214147Y-78082500D01*
X219982812Y-78082500D01*
X220049851Y-78102185D01*
X220070493Y-78118819D01*
X220451182Y-78499508D01*
X220484667Y-78560831D01*
X220487501Y-78587189D01*
X220487501Y-78641891D01*
X220521609Y-78769187D01*
X220554555Y-78826250D01*
X220587501Y-78883314D01*
X220680687Y-78976500D01*
X220794815Y-79042392D01*
X220922109Y-79076500D01*
X220922111Y-79076500D01*
X221053891Y-79076500D01*
X221053893Y-79076500D01*
X221181187Y-79042392D01*
X221295315Y-78976500D01*
X221388501Y-78883314D01*
X221454393Y-78769186D01*
X221488501Y-78641892D01*
X221488501Y-78510108D01*
X221454393Y-78382814D01*
X221388501Y-78268686D01*
X221295315Y-78175500D01*
X221238251Y-78142554D01*
X221181188Y-78109608D01*
X221117540Y-78092554D01*
X221053893Y-78075500D01*
X221053892Y-78075500D01*
X220999190Y-78075500D01*
X220969749Y-78066855D01*
X220939763Y-78060332D01*
X220934747Y-78056577D01*
X220932151Y-78055815D01*
X220911509Y-78039181D01*
X220890509Y-78018181D01*
X220857024Y-77956858D01*
X220862008Y-77887166D01*
X220903880Y-77831233D01*
X220969344Y-77806816D01*
X220978190Y-77806500D01*
X221053891Y-77806500D01*
X221053893Y-77806500D01*
X221181187Y-77772392D01*
X221295315Y-77706500D01*
X221388501Y-77613314D01*
X221454393Y-77499186D01*
X221488501Y-77371892D01*
X221488501Y-77240108D01*
X221454393Y-77112814D01*
X221388501Y-76998686D01*
X221295315Y-76905500D01*
X221230632Y-76868155D01*
X221181188Y-76839608D01*
X221090508Y-76815311D01*
X221053893Y-76805500D01*
X220922109Y-76805500D01*
X220794813Y-76839608D01*
X220680687Y-76905500D01*
X220680684Y-76905502D01*
X220642006Y-76944181D01*
X220580683Y-76977666D01*
X220554325Y-76980500D01*
X217742188Y-76980500D01*
X217675149Y-76960815D01*
X217654507Y-76944181D01*
X216111819Y-75401492D01*
X216078334Y-75340169D01*
X216075500Y-75313811D01*
X216075500Y-74325999D01*
X216095185Y-74258960D01*
X216147989Y-74213205D01*
X216217147Y-74203261D01*
X216280703Y-74232286D01*
X216287181Y-74238318D01*
X217498724Y-75449861D01*
X217498725Y-75449862D01*
X217559328Y-75510465D01*
X217559330Y-75510466D01*
X217559334Y-75510469D01*
X217633545Y-75553314D01*
X217633552Y-75553318D01*
X217716337Y-75575500D01*
X219532303Y-75575500D01*
X219599342Y-75595185D01*
X219619984Y-75611819D01*
X219800863Y-75792698D01*
X219834348Y-75854021D01*
X219837182Y-75880379D01*
X219837182Y-75935081D01*
X219871290Y-76062377D01*
X219904236Y-76119440D01*
X219937182Y-76176504D01*
X220030368Y-76269690D01*
X220144496Y-76335582D01*
X220271790Y-76369690D01*
X220271792Y-76369690D01*
X220403572Y-76369690D01*
X220403574Y-76369690D01*
X220530868Y-76335582D01*
X220644996Y-76269690D01*
X220738182Y-76176504D01*
X220804074Y-76062376D01*
X220838182Y-75935082D01*
X220838182Y-75859379D01*
X220844420Y-75838133D01*
X220846000Y-75816045D01*
X220854072Y-75805261D01*
X220857867Y-75792340D01*
X220874600Y-75777840D01*
X220887872Y-75760112D01*
X220900492Y-75755404D01*
X220910671Y-75746585D01*
X220932588Y-75743433D01*
X220953336Y-75735695D01*
X220966496Y-75738557D01*
X220979829Y-75736641D01*
X220999972Y-75745840D01*
X221021609Y-75750547D01*
X221039334Y-75763815D01*
X221043385Y-75765666D01*
X221049863Y-75771698D01*
X221070863Y-75792698D01*
X221104348Y-75854021D01*
X221107182Y-75880379D01*
X221107182Y-75935081D01*
X221141290Y-76062377D01*
X221174236Y-76119440D01*
X221207182Y-76176504D01*
X221300368Y-76269690D01*
X221414496Y-76335582D01*
X221541790Y-76369690D01*
X221541792Y-76369690D01*
X221673572Y-76369690D01*
X221673574Y-76369690D01*
X221800868Y-76335582D01*
X221914996Y-76269690D01*
X222008182Y-76176504D01*
X222074074Y-76062376D01*
X222108182Y-75935082D01*
X222108182Y-75803298D01*
X222074074Y-75676004D01*
X222008182Y-75561876D01*
X221914996Y-75468690D01*
X221857932Y-75435744D01*
X221800869Y-75402798D01*
X221737221Y-75385744D01*
X221673574Y-75368690D01*
X221673573Y-75368690D01*
X221618871Y-75368690D01*
X221551832Y-75349005D01*
X221531190Y-75332371D01*
X220737356Y-74538537D01*
X220737354Y-74538535D01*
X220700242Y-74517108D01*
X220663132Y-74495682D01*
X220621738Y-74484591D01*
X220580345Y-74473500D01*
X220580344Y-74473500D01*
X218132189Y-74473500D01*
X218065150Y-74453815D01*
X218044508Y-74437181D01*
X217013819Y-73406492D01*
X216999115Y-73379564D01*
X216982523Y-73353746D01*
X216981631Y-73347545D01*
X216980334Y-73345169D01*
X216977500Y-73318811D01*
X216977500Y-73124999D01*
X216997185Y-73057960D01*
X217049989Y-73012205D01*
X217119147Y-73002261D01*
X217182703Y-73031286D01*
X217189181Y-73037318D01*
X218309328Y-74157465D01*
X218383551Y-74200318D01*
X218466337Y-74222500D01*
X218552043Y-74222500D01*
X223573001Y-74222500D01*
X223640040Y-74242185D01*
X223660682Y-74258819D01*
X224740431Y-75338567D01*
X224773916Y-75399890D01*
X224776750Y-75426248D01*
X224776750Y-75818825D01*
X224757065Y-75885864D01*
X224740431Y-75906506D01*
X224701752Y-75945184D01*
X224701750Y-75945187D01*
X224635858Y-76059313D01*
X224615893Y-76133827D01*
X224601750Y-76186609D01*
X224601750Y-76318393D01*
X224614546Y-76366150D01*
X224635858Y-76445688D01*
X224668804Y-76502751D01*
X224701750Y-76559815D01*
X224794936Y-76653001D01*
X224909064Y-76718893D01*
X225036358Y-76753001D01*
X225036360Y-76753001D01*
X225112061Y-76753001D01*
X225133306Y-76759239D01*
X225155395Y-76760819D01*
X225166178Y-76768891D01*
X225179100Y-76772686D01*
X225193599Y-76789419D01*
X225211328Y-76802691D01*
X225216035Y-76815311D01*
X225224855Y-76825490D01*
X225228006Y-76847407D01*
X225235745Y-76868155D01*
X225232882Y-76881315D01*
X225234799Y-76894648D01*
X225225599Y-76914791D01*
X225220893Y-76936428D01*
X225207624Y-76954153D01*
X225205774Y-76958204D01*
X225199742Y-76964682D01*
X225178742Y-76985682D01*
X225117419Y-77019167D01*
X225091061Y-77022001D01*
X225036358Y-77022001D01*
X224909062Y-77056109D01*
X224794936Y-77122001D01*
X224794933Y-77122003D01*
X224701752Y-77215184D01*
X224701750Y-77215187D01*
X224635858Y-77329313D01*
X224604591Y-77446007D01*
X224601750Y-77456609D01*
X224601750Y-77588393D01*
X224608428Y-77613316D01*
X224635858Y-77715688D01*
X224668596Y-77772391D01*
X224701750Y-77829815D01*
X224794936Y-77923001D01*
X224909064Y-77988893D01*
X225036358Y-78023001D01*
X225036360Y-78023001D01*
X225168140Y-78023001D01*
X225168142Y-78023001D01*
X225295436Y-77988893D01*
X225409564Y-77923001D01*
X225502750Y-77829815D01*
X225568642Y-77715687D01*
X225602750Y-77588393D01*
X225602750Y-77533688D01*
X225622435Y-77466649D01*
X225639065Y-77446011D01*
X225949859Y-77135217D01*
X225949862Y-77135216D01*
X226010465Y-77074613D01*
X226031891Y-77037501D01*
X226053318Y-77000390D01*
X226075500Y-76917604D01*
X226075500Y-76831898D01*
X226075500Y-75207147D01*
X226053318Y-75124362D01*
X226053318Y-75124361D01*
X226010465Y-75050138D01*
X224145862Y-73185535D01*
X224108750Y-73164108D01*
X224071640Y-73142682D01*
X224030246Y-73131591D01*
X223988853Y-73120500D01*
X223988852Y-73120500D01*
X218882189Y-73120500D01*
X218815150Y-73100815D01*
X218794508Y-73084181D01*
X217915819Y-72205492D01*
X217882334Y-72144169D01*
X217879500Y-72117811D01*
X217879500Y-64185731D01*
X223999500Y-64185731D01*
X223999500Y-65894258D01*
X224002354Y-65924698D01*
X224002354Y-65924699D01*
X224047206Y-66052881D01*
X224047207Y-66052882D01*
X224127850Y-66162150D01*
X224237118Y-66242793D01*
X224365302Y-66287646D01*
X224365301Y-66287646D01*
X224369271Y-66288018D01*
X224395735Y-66290500D01*
X226104264Y-66290499D01*
X226134698Y-66287646D01*
X226262882Y-66242793D01*
X226372150Y-66162150D01*
X226452793Y-66052882D01*
X226497646Y-65924698D01*
X226500500Y-65894265D01*
X226500499Y-64185736D01*
X226497646Y-64155302D01*
X226452793Y-64027118D01*
X226372150Y-63917850D01*
X226262882Y-63837207D01*
X226262881Y-63837206D01*
X226134695Y-63792353D01*
X226134698Y-63792353D01*
X226104268Y-63789500D01*
X224395741Y-63789500D01*
X224365301Y-63792354D01*
X224365300Y-63792354D01*
X224237118Y-63837206D01*
X224127850Y-63917850D01*
X224047206Y-64027118D01*
X224002353Y-64155302D01*
X223999500Y-64185731D01*
X217879500Y-64185731D01*
X217879500Y-61752479D01*
X217879500Y-61752477D01*
X217857318Y-61669692D01*
X217857314Y-61669685D01*
X217814469Y-61595474D01*
X217814463Y-61595466D01*
X213086819Y-56867822D01*
X213053334Y-56806499D01*
X213050500Y-56780141D01*
X213050500Y-55805676D01*
X213070185Y-55738637D01*
X213086819Y-55717995D01*
X213125500Y-55679314D01*
X213191392Y-55565186D01*
X213225500Y-55437892D01*
X213225500Y-55306108D01*
X213191392Y-55178814D01*
X213125500Y-55064686D01*
X213032314Y-54971500D01*
X212975250Y-54938554D01*
X212918187Y-54905608D01*
X212854539Y-54888554D01*
X212790892Y-54871500D01*
X212659108Y-54871500D01*
X212531812Y-54905608D01*
X212417686Y-54971500D01*
X212417683Y-54971502D01*
X212324502Y-55064683D01*
X212324500Y-55064686D01*
X212258608Y-55178812D01*
X212224500Y-55306108D01*
X212224500Y-55437891D01*
X212258608Y-55565187D01*
X212291554Y-55622250D01*
X212324500Y-55679314D01*
X212324502Y-55679316D01*
X212363181Y-55717995D01*
X212396666Y-55779318D01*
X212399500Y-55805676D01*
X212399500Y-56649245D01*
X212379815Y-56716284D01*
X212327011Y-56762039D01*
X212269840Y-56770607D01*
X212269840Y-56772500D01*
X209784189Y-56772500D01*
X209717150Y-56752815D01*
X209696508Y-56736181D01*
X209276819Y-56316492D01*
X209243334Y-56255169D01*
X209240500Y-56228811D01*
X209240500Y-55805676D01*
X209260185Y-55738637D01*
X209276819Y-55717995D01*
X209315500Y-55679314D01*
X209381392Y-55565186D01*
X209415500Y-55437892D01*
X209415500Y-55306108D01*
X209381392Y-55178814D01*
X209315500Y-55064686D01*
X209222314Y-54971500D01*
X209165250Y-54938554D01*
X209108187Y-54905608D01*
X209044539Y-54888554D01*
X208980892Y-54871500D01*
X208849108Y-54871500D01*
X208721812Y-54905608D01*
X208607686Y-54971500D01*
X208607683Y-54971502D01*
X208514502Y-55064683D01*
X208514500Y-55064686D01*
X208448608Y-55178812D01*
X208414500Y-55306108D01*
X208414500Y-55437891D01*
X208448608Y-55565187D01*
X208481554Y-55622250D01*
X208514500Y-55679314D01*
X208514502Y-55679316D01*
X208553181Y-55717995D01*
X208586666Y-55779318D01*
X208589500Y-55805676D01*
X208589500Y-56457852D01*
X208611682Y-56540640D01*
X208625060Y-56563811D01*
X208654535Y-56614862D01*
X208654537Y-56614864D01*
X209051492Y-57011819D01*
X209084977Y-57073142D01*
X209079993Y-57142834D01*
X209038121Y-57198767D01*
X208972657Y-57223184D01*
X208963811Y-57223500D01*
X206485188Y-57223500D01*
X206418149Y-57203815D01*
X206397507Y-57187181D01*
X205974819Y-56764492D01*
X205941334Y-56703169D01*
X205938500Y-56676811D01*
X205938500Y-55805676D01*
X205958185Y-55738637D01*
X205974819Y-55717995D01*
X206013500Y-55679314D01*
X206079392Y-55565186D01*
X206113500Y-55437892D01*
X206113500Y-55306108D01*
X206079392Y-55178814D01*
X206013500Y-55064686D01*
X205920314Y-54971500D01*
X205863250Y-54938554D01*
X205806187Y-54905608D01*
X205742539Y-54888554D01*
X205678892Y-54871500D01*
X205547108Y-54871500D01*
X205419812Y-54905608D01*
X205305686Y-54971500D01*
X205305683Y-54971502D01*
X205212502Y-55064683D01*
X205212500Y-55064686D01*
X205146608Y-55178812D01*
X205112500Y-55306108D01*
X205112500Y-55437891D01*
X205146608Y-55565187D01*
X205179554Y-55622250D01*
X205212500Y-55679314D01*
X205212502Y-55679316D01*
X205251181Y-55717995D01*
X205284666Y-55779318D01*
X205287500Y-55805676D01*
X205287500Y-56820147D01*
X205287500Y-56905853D01*
X205292170Y-56923281D01*
X205309682Y-56988640D01*
X205323065Y-57011819D01*
X205352535Y-57062862D01*
X205654492Y-57364819D01*
X205752493Y-57462819D01*
X205785978Y-57524142D01*
X205780994Y-57593833D01*
X205739123Y-57649767D01*
X205673658Y-57674184D01*
X205664812Y-57674500D01*
X202686188Y-57674500D01*
X202619149Y-57654815D01*
X202598507Y-57638181D01*
X202165440Y-57205113D01*
X202131955Y-57143790D01*
X202129121Y-57117432D01*
X202129121Y-55805676D01*
X202148806Y-55738637D01*
X202165440Y-55717995D01*
X202204121Y-55679314D01*
X202270013Y-55565186D01*
X202304121Y-55437892D01*
X202304121Y-55306108D01*
X202270013Y-55178814D01*
X202204121Y-55064686D01*
X202110935Y-54971500D01*
X202053871Y-54938554D01*
X201996808Y-54905608D01*
X201933160Y-54888554D01*
X201869513Y-54871500D01*
X201737729Y-54871500D01*
X201610433Y-54905608D01*
X201496307Y-54971500D01*
X201496304Y-54971502D01*
X201403123Y-55064683D01*
X201403121Y-55064686D01*
X201337229Y-55178812D01*
X201303121Y-55306108D01*
X201303121Y-55437891D01*
X201337229Y-55565187D01*
X201370175Y-55622250D01*
X201403121Y-55679314D01*
X201403123Y-55679316D01*
X201441802Y-55717995D01*
X201475287Y-55779318D01*
X201478121Y-55805676D01*
X201478121Y-56856242D01*
X201458436Y-56923281D01*
X201405632Y-56969036D01*
X201336474Y-56978980D01*
X201272918Y-56949955D01*
X201266440Y-56943923D01*
X201062054Y-56739537D01*
X201062052Y-56739535D01*
X200999065Y-56703169D01*
X200987830Y-56696682D01*
X200946436Y-56685591D01*
X200905043Y-56674500D01*
X200905042Y-56674500D01*
X199436189Y-56674500D01*
X199369150Y-56654815D01*
X199348508Y-56638181D01*
X198862819Y-56152492D01*
X198829334Y-56091169D01*
X198826500Y-56064811D01*
X198826500Y-55805676D01*
X198846185Y-55738637D01*
X198862819Y-55717995D01*
X198901500Y-55679314D01*
X198967392Y-55565186D01*
X199001500Y-55437892D01*
X199001500Y-55306108D01*
X198967392Y-55178814D01*
X198901500Y-55064686D01*
X198808314Y-54971500D01*
X198751250Y-54938554D01*
X198694187Y-54905608D01*
X198630539Y-54888554D01*
X198566892Y-54871500D01*
X198435108Y-54871500D01*
X198307812Y-54905608D01*
X198193686Y-54971500D01*
X198193683Y-54971502D01*
X198100502Y-55064683D01*
X198100500Y-55064686D01*
X198034608Y-55178812D01*
X198000500Y-55306108D01*
X198000500Y-55437891D01*
X198034608Y-55565187D01*
X198067554Y-55622250D01*
X198100500Y-55679314D01*
X198100502Y-55679316D01*
X198139181Y-55717995D01*
X198172666Y-55779318D01*
X198175500Y-55805676D01*
X198175500Y-56293852D01*
X198197682Y-56376640D01*
X198219108Y-56413750D01*
X198240535Y-56450862D01*
X198240537Y-56450864D01*
X198703492Y-56913819D01*
X198736977Y-56975142D01*
X198731993Y-57044834D01*
X198690121Y-57100767D01*
X198624657Y-57125184D01*
X198615811Y-57125500D01*
X195578188Y-57125500D01*
X195511149Y-57105815D01*
X195490507Y-57089181D01*
X195052819Y-56651492D01*
X195019334Y-56590169D01*
X195016500Y-56563811D01*
X195016500Y-55805676D01*
X195036185Y-55738637D01*
X195052819Y-55717995D01*
X195091500Y-55679314D01*
X195157392Y-55565186D01*
X195191500Y-55437892D01*
X195191500Y-55306108D01*
X195157392Y-55178814D01*
X195091500Y-55064686D01*
X194998314Y-54971500D01*
X194941250Y-54938554D01*
X194884187Y-54905608D01*
X194820539Y-54888554D01*
X194756892Y-54871500D01*
X194625108Y-54871500D01*
X194497812Y-54905608D01*
X194383686Y-54971500D01*
X194383683Y-54971502D01*
X194290502Y-55064683D01*
X194290500Y-55064686D01*
X194224608Y-55178812D01*
X194190500Y-55306108D01*
X194190500Y-55437891D01*
X194224608Y-55565187D01*
X194257554Y-55622250D01*
X194290500Y-55679314D01*
X194290502Y-55679316D01*
X194329181Y-55717995D01*
X194362666Y-55779318D01*
X194365500Y-55805676D01*
X194365500Y-56707147D01*
X194365500Y-56792853D01*
X194372813Y-56820147D01*
X194387682Y-56875640D01*
X194405126Y-56905852D01*
X194430535Y-56949862D01*
X194704173Y-57223500D01*
X194845493Y-57364819D01*
X194878978Y-57426142D01*
X194873994Y-57495833D01*
X194832123Y-57551767D01*
X194766658Y-57576184D01*
X194757812Y-57576500D01*
X192338189Y-57576500D01*
X192271150Y-57556815D01*
X192250508Y-57540181D01*
X191750819Y-57040492D01*
X191717334Y-56979169D01*
X191714500Y-56952811D01*
X191714500Y-55805676D01*
X191734185Y-55738637D01*
X191750819Y-55717995D01*
X191789500Y-55679314D01*
X191855392Y-55565186D01*
X191889500Y-55437892D01*
X191889500Y-55306108D01*
X191855392Y-55178814D01*
X191789500Y-55064686D01*
X191696314Y-54971500D01*
X191639250Y-54938554D01*
X191582187Y-54905608D01*
X191518539Y-54888554D01*
X191454892Y-54871500D01*
X191323108Y-54871500D01*
X191195812Y-54905608D01*
X191081686Y-54971500D01*
X191081683Y-54971502D01*
X190988502Y-55064683D01*
X190988500Y-55064686D01*
X190922608Y-55178812D01*
X190888500Y-55306108D01*
X190888500Y-55437891D01*
X190922608Y-55565187D01*
X190955554Y-55622250D01*
X190988500Y-55679314D01*
X190988502Y-55679316D01*
X191027181Y-55717995D01*
X191060666Y-55779318D01*
X191063500Y-55805676D01*
X191063500Y-57181852D01*
X191085682Y-57264640D01*
X191107108Y-57301750D01*
X191128535Y-57338862D01*
X191128537Y-57338864D01*
X191605492Y-57815819D01*
X191638977Y-57877142D01*
X191633993Y-57946834D01*
X191592121Y-58002767D01*
X191526657Y-58027184D01*
X191517811Y-58027500D01*
X188539189Y-58027500D01*
X188472150Y-58007815D01*
X188451508Y-57991181D01*
X187940819Y-57480492D01*
X187907334Y-57419169D01*
X187904500Y-57392811D01*
X187904500Y-55805676D01*
X187924185Y-55738637D01*
X187940819Y-55717995D01*
X187979500Y-55679314D01*
X188045392Y-55565186D01*
X188079500Y-55437892D01*
X188079500Y-55306108D01*
X188045392Y-55178814D01*
X187979500Y-55064686D01*
X187886314Y-54971500D01*
X187829250Y-54938554D01*
X187772187Y-54905608D01*
X187708539Y-54888554D01*
X187644892Y-54871500D01*
X187513108Y-54871500D01*
X187385812Y-54905608D01*
X187271686Y-54971500D01*
X187271683Y-54971502D01*
X187178502Y-55064683D01*
X187178500Y-55064686D01*
X187112608Y-55178812D01*
X187078500Y-55306108D01*
X175500500Y-55306108D01*
X175500500Y-46374247D01*
X187671500Y-46374247D01*
X187671500Y-48113752D01*
X187683131Y-48172229D01*
X187683132Y-48172230D01*
X187727447Y-48238552D01*
X187793769Y-48282867D01*
X187793770Y-48282868D01*
X187852247Y-48294499D01*
X187852250Y-48294500D01*
X187852252Y-48294500D01*
X189591750Y-48294500D01*
X189591751Y-48294499D01*
X189606568Y-48291552D01*
X189650229Y-48282868D01*
X189650229Y-48282867D01*
X189650231Y-48282867D01*
X189716552Y-48238552D01*
X189760867Y-48172231D01*
X189760867Y-48172229D01*
X189760868Y-48172229D01*
X189772499Y-48113752D01*
X189772500Y-48113750D01*
X189772500Y-46374249D01*
X189772499Y-46374247D01*
X194783500Y-46374247D01*
X194783500Y-48113752D01*
X194795131Y-48172229D01*
X194795132Y-48172230D01*
X194839447Y-48238552D01*
X194905769Y-48282867D01*
X194905770Y-48282868D01*
X194964247Y-48294499D01*
X194964250Y-48294500D01*
X194964252Y-48294500D01*
X196703750Y-48294500D01*
X196703751Y-48294499D01*
X196718568Y-48291552D01*
X196762229Y-48282868D01*
X196762229Y-48282867D01*
X196762231Y-48282867D01*
X196828552Y-48238552D01*
X196872867Y-48172231D01*
X196872867Y-48172229D01*
X196872868Y-48172229D01*
X196884499Y-48113752D01*
X196884500Y-48113750D01*
X196884500Y-46374249D01*
X196884499Y-46374247D01*
X201895500Y-46374247D01*
X201895500Y-48113752D01*
X201907131Y-48172229D01*
X201907132Y-48172230D01*
X201951447Y-48238552D01*
X202017769Y-48282867D01*
X202017770Y-48282868D01*
X202076247Y-48294499D01*
X202076250Y-48294500D01*
X202076252Y-48294500D01*
X203815750Y-48294500D01*
X203815751Y-48294499D01*
X203830568Y-48291552D01*
X203874229Y-48282868D01*
X203874229Y-48282867D01*
X203874231Y-48282867D01*
X203940552Y-48238552D01*
X203984867Y-48172231D01*
X203984867Y-48172229D01*
X203984868Y-48172229D01*
X203996499Y-48113752D01*
X203996500Y-48113750D01*
X203996500Y-46374249D01*
X203996499Y-46374247D01*
X209007500Y-46374247D01*
X209007500Y-48113752D01*
X209019131Y-48172229D01*
X209019132Y-48172230D01*
X209063447Y-48238552D01*
X209129769Y-48282867D01*
X209129770Y-48282868D01*
X209188247Y-48294499D01*
X209188250Y-48294500D01*
X209188252Y-48294500D01*
X210927750Y-48294500D01*
X210927751Y-48294499D01*
X210942568Y-48291552D01*
X210986229Y-48282868D01*
X210986229Y-48282867D01*
X210986231Y-48282867D01*
X211052552Y-48238552D01*
X211096867Y-48172231D01*
X211096867Y-48172229D01*
X211096868Y-48172229D01*
X211108499Y-48113752D01*
X211108500Y-48113750D01*
X211108500Y-46374249D01*
X211108499Y-46374247D01*
X211096868Y-46315770D01*
X211096867Y-46315769D01*
X211052552Y-46249447D01*
X210986230Y-46205132D01*
X210986229Y-46205131D01*
X210927752Y-46193500D01*
X210927748Y-46193500D01*
X209188252Y-46193500D01*
X209188247Y-46193500D01*
X209129770Y-46205131D01*
X209129769Y-46205132D01*
X209063447Y-46249447D01*
X209019132Y-46315769D01*
X209019131Y-46315770D01*
X209007500Y-46374247D01*
X203996499Y-46374247D01*
X203984868Y-46315770D01*
X203984867Y-46315769D01*
X203940552Y-46249447D01*
X203874230Y-46205132D01*
X203874229Y-46205131D01*
X203815752Y-46193500D01*
X203815748Y-46193500D01*
X202076252Y-46193500D01*
X202076247Y-46193500D01*
X202017770Y-46205131D01*
X202017769Y-46205132D01*
X201951447Y-46249447D01*
X201907132Y-46315769D01*
X201907131Y-46315770D01*
X201895500Y-46374247D01*
X196884499Y-46374247D01*
X196872868Y-46315770D01*
X196872867Y-46315769D01*
X196828552Y-46249447D01*
X196762230Y-46205132D01*
X196762229Y-46205131D01*
X196703752Y-46193500D01*
X196703748Y-46193500D01*
X194964252Y-46193500D01*
X194964247Y-46193500D01*
X194905770Y-46205131D01*
X194905769Y-46205132D01*
X194839447Y-46249447D01*
X194795132Y-46315769D01*
X194795131Y-46315770D01*
X194783500Y-46374247D01*
X189772499Y-46374247D01*
X189760868Y-46315770D01*
X189760867Y-46315769D01*
X189716552Y-46249447D01*
X189650230Y-46205132D01*
X189650229Y-46205131D01*
X189591752Y-46193500D01*
X189591748Y-46193500D01*
X187852252Y-46193500D01*
X187852247Y-46193500D01*
X187793770Y-46205131D01*
X187793769Y-46205132D01*
X187727447Y-46249447D01*
X187683132Y-46315769D01*
X187683131Y-46315770D01*
X187671500Y-46374247D01*
X175500500Y-46374247D01*
X175500500Y-44600530D01*
X187671500Y-44600530D01*
X187671500Y-44807469D01*
X187711868Y-45010412D01*
X187711870Y-45010420D01*
X187791058Y-45201596D01*
X187906024Y-45373657D01*
X188052342Y-45519975D01*
X188052345Y-45519977D01*
X188224402Y-45634941D01*
X188415580Y-45714130D01*
X188618530Y-45754499D01*
X188618534Y-45754500D01*
X188618535Y-45754500D01*
X188825466Y-45754500D01*
X188825467Y-45754499D01*
X189028420Y-45714130D01*
X189219598Y-45634941D01*
X189391655Y-45519977D01*
X189537977Y-45373655D01*
X189652941Y-45201598D01*
X189732130Y-45010420D01*
X189772500Y-44807465D01*
X189772500Y-44600535D01*
X189772499Y-44600530D01*
X194783500Y-44600530D01*
X194783500Y-44807469D01*
X194823868Y-45010412D01*
X194823870Y-45010420D01*
X194903058Y-45201596D01*
X195018024Y-45373657D01*
X195164342Y-45519975D01*
X195164345Y-45519977D01*
X195336402Y-45634941D01*
X195527580Y-45714130D01*
X195730530Y-45754499D01*
X195730534Y-45754500D01*
X195730535Y-45754500D01*
X195937466Y-45754500D01*
X195937467Y-45754499D01*
X196140420Y-45714130D01*
X196331598Y-45634941D01*
X196503655Y-45519977D01*
X196649977Y-45373655D01*
X196764941Y-45201598D01*
X196844130Y-45010420D01*
X196884500Y-44807465D01*
X196884500Y-44600535D01*
X196884499Y-44600530D01*
X201895500Y-44600530D01*
X201895500Y-44807469D01*
X201935868Y-45010412D01*
X201935870Y-45010420D01*
X202015058Y-45201596D01*
X202130024Y-45373657D01*
X202276342Y-45519975D01*
X202276345Y-45519977D01*
X202448402Y-45634941D01*
X202639580Y-45714130D01*
X202842530Y-45754499D01*
X202842534Y-45754500D01*
X202842535Y-45754500D01*
X203049466Y-45754500D01*
X203049467Y-45754499D01*
X203252420Y-45714130D01*
X203443598Y-45634941D01*
X203615655Y-45519977D01*
X203761977Y-45373655D01*
X203876941Y-45201598D01*
X203956130Y-45010420D01*
X203996500Y-44807465D01*
X203996500Y-44600535D01*
X203996499Y-44600530D01*
X209007500Y-44600530D01*
X209007500Y-44807469D01*
X209047868Y-45010412D01*
X209047870Y-45010420D01*
X209127058Y-45201596D01*
X209242024Y-45373657D01*
X209388342Y-45519975D01*
X209388345Y-45519977D01*
X209560402Y-45634941D01*
X209751580Y-45714130D01*
X209954530Y-45754499D01*
X209954534Y-45754500D01*
X209954535Y-45754500D01*
X210161466Y-45754500D01*
X210161467Y-45754499D01*
X210364420Y-45714130D01*
X210555598Y-45634941D01*
X210727655Y-45519977D01*
X210873977Y-45373655D01*
X210988941Y-45201598D01*
X211068130Y-45010420D01*
X211108500Y-44807465D01*
X211108500Y-44600535D01*
X211068130Y-44397580D01*
X210988941Y-44206402D01*
X210873977Y-44034345D01*
X210873975Y-44034342D01*
X210727657Y-43888024D01*
X210641626Y-43830541D01*
X210555598Y-43773059D01*
X210364420Y-43693870D01*
X210364412Y-43693868D01*
X210161469Y-43653500D01*
X210161465Y-43653500D01*
X209954535Y-43653500D01*
X209954530Y-43653500D01*
X209751587Y-43693868D01*
X209751579Y-43693870D01*
X209560403Y-43773058D01*
X209388342Y-43888024D01*
X209242024Y-44034342D01*
X209127058Y-44206403D01*
X209047870Y-44397579D01*
X209047868Y-44397587D01*
X209007500Y-44600530D01*
X203996499Y-44600530D01*
X203956130Y-44397580D01*
X203876941Y-44206402D01*
X203761977Y-44034345D01*
X203761975Y-44034342D01*
X203615657Y-43888024D01*
X203529626Y-43830541D01*
X203443598Y-43773059D01*
X203252420Y-43693870D01*
X203252412Y-43693868D01*
X203049469Y-43653500D01*
X203049465Y-43653500D01*
X202842535Y-43653500D01*
X202842530Y-43653500D01*
X202639587Y-43693868D01*
X202639579Y-43693870D01*
X202448403Y-43773058D01*
X202276342Y-43888024D01*
X202130024Y-44034342D01*
X202015058Y-44206403D01*
X201935870Y-44397579D01*
X201935868Y-44397587D01*
X201895500Y-44600530D01*
X196884499Y-44600530D01*
X196844130Y-44397580D01*
X196764941Y-44206402D01*
X196649977Y-44034345D01*
X196649975Y-44034342D01*
X196503657Y-43888024D01*
X196417626Y-43830541D01*
X196331598Y-43773059D01*
X196140420Y-43693870D01*
X196140412Y-43693868D01*
X195937469Y-43653500D01*
X195937465Y-43653500D01*
X195730535Y-43653500D01*
X195730530Y-43653500D01*
X195527587Y-43693868D01*
X195527579Y-43693870D01*
X195336403Y-43773058D01*
X195164342Y-43888024D01*
X195018024Y-44034342D01*
X194903058Y-44206403D01*
X194823870Y-44397579D01*
X194823868Y-44397587D01*
X194783500Y-44600530D01*
X189772499Y-44600530D01*
X189732130Y-44397580D01*
X189652941Y-44206402D01*
X189537977Y-44034345D01*
X189537975Y-44034342D01*
X189391657Y-43888024D01*
X189305626Y-43830541D01*
X189219598Y-43773059D01*
X189028420Y-43693870D01*
X189028412Y-43693868D01*
X188825469Y-43653500D01*
X188825465Y-43653500D01*
X188618535Y-43653500D01*
X188618530Y-43653500D01*
X188415587Y-43693868D01*
X188415579Y-43693870D01*
X188224403Y-43773058D01*
X188052342Y-43888024D01*
X187906024Y-44034342D01*
X187791058Y-44206403D01*
X187711870Y-44397579D01*
X187711868Y-44397587D01*
X187671500Y-44600530D01*
X175500500Y-44600530D01*
X175500500Y-42060530D01*
X187671500Y-42060530D01*
X187671500Y-42267469D01*
X187711868Y-42470412D01*
X187711870Y-42470420D01*
X187791058Y-42661596D01*
X187906024Y-42833657D01*
X188052342Y-42979975D01*
X188052345Y-42979977D01*
X188224402Y-43094941D01*
X188415580Y-43174130D01*
X188618530Y-43214499D01*
X188618534Y-43214500D01*
X188618535Y-43214500D01*
X188825466Y-43214500D01*
X188825467Y-43214499D01*
X189028420Y-43174130D01*
X189219598Y-43094941D01*
X189391655Y-42979977D01*
X189537977Y-42833655D01*
X189652941Y-42661598D01*
X189732130Y-42470420D01*
X189772500Y-42267465D01*
X189772500Y-42060535D01*
X189772499Y-42060530D01*
X194783500Y-42060530D01*
X194783500Y-42267469D01*
X194823868Y-42470412D01*
X194823870Y-42470420D01*
X194903058Y-42661596D01*
X195018024Y-42833657D01*
X195164342Y-42979975D01*
X195164345Y-42979977D01*
X195336402Y-43094941D01*
X195527580Y-43174130D01*
X195730530Y-43214499D01*
X195730534Y-43214500D01*
X195730535Y-43214500D01*
X195937466Y-43214500D01*
X195937467Y-43214499D01*
X196140420Y-43174130D01*
X196331598Y-43094941D01*
X196503655Y-42979977D01*
X196649977Y-42833655D01*
X196764941Y-42661598D01*
X196844130Y-42470420D01*
X196884500Y-42267465D01*
X196884500Y-42060535D01*
X196884499Y-42060530D01*
X201895500Y-42060530D01*
X201895500Y-42267469D01*
X201935868Y-42470412D01*
X201935870Y-42470420D01*
X202015058Y-42661596D01*
X202130024Y-42833657D01*
X202276342Y-42979975D01*
X202276345Y-42979977D01*
X202448402Y-43094941D01*
X202639580Y-43174130D01*
X202842530Y-43214499D01*
X202842534Y-43214500D01*
X202842535Y-43214500D01*
X203049466Y-43214500D01*
X203049467Y-43214499D01*
X203252420Y-43174130D01*
X203443598Y-43094941D01*
X203615655Y-42979977D01*
X203761977Y-42833655D01*
X203876941Y-42661598D01*
X203956130Y-42470420D01*
X203996500Y-42267465D01*
X203996500Y-42060535D01*
X203996499Y-42060530D01*
X209007500Y-42060530D01*
X209007500Y-42267469D01*
X209047868Y-42470412D01*
X209047870Y-42470420D01*
X209127058Y-42661596D01*
X209242024Y-42833657D01*
X209388342Y-42979975D01*
X209388345Y-42979977D01*
X209560402Y-43094941D01*
X209751580Y-43174130D01*
X209954530Y-43214499D01*
X209954534Y-43214500D01*
X209954535Y-43214500D01*
X210161466Y-43214500D01*
X210161467Y-43214499D01*
X210364420Y-43174130D01*
X210555598Y-43094941D01*
X210727655Y-42979977D01*
X210873977Y-42833655D01*
X210988941Y-42661598D01*
X211068130Y-42470420D01*
X211108500Y-42267465D01*
X211108500Y-42060535D01*
X211068130Y-41857580D01*
X210988941Y-41666402D01*
X210873977Y-41494345D01*
X210873975Y-41494342D01*
X210727657Y-41348024D01*
X210641626Y-41290541D01*
X210555598Y-41233059D01*
X210364420Y-41153870D01*
X210364412Y-41153868D01*
X210161469Y-41113500D01*
X210161465Y-41113500D01*
X209954535Y-41113500D01*
X209954530Y-41113500D01*
X209751587Y-41153868D01*
X209751579Y-41153870D01*
X209560403Y-41233058D01*
X209388342Y-41348024D01*
X209242024Y-41494342D01*
X209127058Y-41666403D01*
X209047870Y-41857579D01*
X209047868Y-41857587D01*
X209007500Y-42060530D01*
X203996499Y-42060530D01*
X203956130Y-41857580D01*
X203876941Y-41666402D01*
X203761977Y-41494345D01*
X203761975Y-41494342D01*
X203615657Y-41348024D01*
X203529626Y-41290541D01*
X203443598Y-41233059D01*
X203252420Y-41153870D01*
X203252412Y-41153868D01*
X203049469Y-41113500D01*
X203049465Y-41113500D01*
X202842535Y-41113500D01*
X202842530Y-41113500D01*
X202639587Y-41153868D01*
X202639579Y-41153870D01*
X202448403Y-41233058D01*
X202276342Y-41348024D01*
X202130024Y-41494342D01*
X202015058Y-41666403D01*
X201935870Y-41857579D01*
X201935868Y-41857587D01*
X201895500Y-42060530D01*
X196884499Y-42060530D01*
X196844130Y-41857580D01*
X196764941Y-41666402D01*
X196649977Y-41494345D01*
X196649975Y-41494342D01*
X196503657Y-41348024D01*
X196417626Y-41290541D01*
X196331598Y-41233059D01*
X196140420Y-41153870D01*
X196140412Y-41153868D01*
X195937469Y-41113500D01*
X195937465Y-41113500D01*
X195730535Y-41113500D01*
X195730530Y-41113500D01*
X195527587Y-41153868D01*
X195527579Y-41153870D01*
X195336403Y-41233058D01*
X195164342Y-41348024D01*
X195018024Y-41494342D01*
X194903058Y-41666403D01*
X194823870Y-41857579D01*
X194823868Y-41857587D01*
X194783500Y-42060530D01*
X189772499Y-42060530D01*
X189732130Y-41857580D01*
X189652941Y-41666402D01*
X189537977Y-41494345D01*
X189537975Y-41494342D01*
X189391657Y-41348024D01*
X189305626Y-41290541D01*
X189219598Y-41233059D01*
X189028420Y-41153870D01*
X189028412Y-41153868D01*
X188825469Y-41113500D01*
X188825465Y-41113500D01*
X188618535Y-41113500D01*
X188618530Y-41113500D01*
X188415587Y-41153868D01*
X188415579Y-41153870D01*
X188224403Y-41233058D01*
X188052342Y-41348024D01*
X187906024Y-41494342D01*
X187791058Y-41666403D01*
X187711870Y-41857579D01*
X187711868Y-41857587D01*
X187671500Y-42060530D01*
X175500500Y-42060530D01*
X175500500Y-27378711D01*
X177149500Y-27378711D01*
X177149500Y-27621288D01*
X177181161Y-27861785D01*
X177243947Y-28096104D01*
X177336773Y-28320205D01*
X177336776Y-28320212D01*
X177458064Y-28530289D01*
X177458066Y-28530292D01*
X177458067Y-28530293D01*
X177605733Y-28722736D01*
X177605739Y-28722743D01*
X177777256Y-28894260D01*
X177777262Y-28894265D01*
X177969711Y-29041936D01*
X178179788Y-29163224D01*
X178403900Y-29256054D01*
X178638211Y-29318838D01*
X178794261Y-29339382D01*
X178878711Y-29350500D01*
X178878712Y-29350500D01*
X179121289Y-29350500D01*
X179169388Y-29344167D01*
X179361789Y-29318838D01*
X179596100Y-29256054D01*
X179820212Y-29163224D01*
X180030289Y-29041936D01*
X180222738Y-28894265D01*
X180394265Y-28722738D01*
X180541936Y-28530289D01*
X180663224Y-28320212D01*
X180756054Y-28096100D01*
X180818838Y-27861789D01*
X180850500Y-27621288D01*
X180850500Y-27472231D01*
X187471500Y-27472231D01*
X187471500Y-29180758D01*
X187474354Y-29211198D01*
X187474354Y-29211199D01*
X187519206Y-29339381D01*
X187519207Y-29339382D01*
X187599850Y-29448650D01*
X187709118Y-29529293D01*
X187837302Y-29574146D01*
X187837301Y-29574146D01*
X187841271Y-29574518D01*
X187867735Y-29577000D01*
X189576264Y-29576999D01*
X189606698Y-29574146D01*
X189734882Y-29529293D01*
X189844150Y-29448650D01*
X189924793Y-29339382D01*
X189969646Y-29211198D01*
X189972500Y-29180765D01*
X189972499Y-27472236D01*
X189972499Y-27472231D01*
X194583500Y-27472231D01*
X194583500Y-29180758D01*
X194586354Y-29211198D01*
X194586354Y-29211199D01*
X194631206Y-29339381D01*
X194631207Y-29339382D01*
X194711850Y-29448650D01*
X194821118Y-29529293D01*
X194949302Y-29574146D01*
X194949301Y-29574146D01*
X194953271Y-29574518D01*
X194979735Y-29577000D01*
X196688264Y-29576999D01*
X196718698Y-29574146D01*
X196846882Y-29529293D01*
X196956150Y-29448650D01*
X197036793Y-29339382D01*
X197081646Y-29211198D01*
X197084500Y-29180765D01*
X197084499Y-27472236D01*
X197084499Y-27472231D01*
X201695500Y-27472231D01*
X201695500Y-29180758D01*
X201698354Y-29211198D01*
X201698354Y-29211199D01*
X201743206Y-29339381D01*
X201743207Y-29339382D01*
X201823850Y-29448650D01*
X201933118Y-29529293D01*
X202061302Y-29574146D01*
X202061301Y-29574146D01*
X202065271Y-29574518D01*
X202091735Y-29577000D01*
X203800264Y-29576999D01*
X203830698Y-29574146D01*
X203958882Y-29529293D01*
X204068150Y-29448650D01*
X204148793Y-29339382D01*
X204193646Y-29211198D01*
X204196500Y-29180765D01*
X204196499Y-27472236D01*
X204196499Y-27472231D01*
X208807500Y-27472231D01*
X208807500Y-29180758D01*
X208810354Y-29211198D01*
X208810354Y-29211199D01*
X208855206Y-29339381D01*
X208855207Y-29339382D01*
X208935850Y-29448650D01*
X209045118Y-29529293D01*
X209173302Y-29574146D01*
X209173301Y-29574146D01*
X209177271Y-29574518D01*
X209203735Y-29577000D01*
X210912264Y-29576999D01*
X210942698Y-29574146D01*
X211070882Y-29529293D01*
X211180150Y-29448650D01*
X211260793Y-29339382D01*
X211305646Y-29211198D01*
X211308500Y-29180765D01*
X211308499Y-27472236D01*
X211308499Y-27472231D01*
X217697500Y-27472231D01*
X217697500Y-29180758D01*
X217700354Y-29211198D01*
X217700354Y-29211199D01*
X217745206Y-29339381D01*
X217745207Y-29339382D01*
X217825850Y-29448650D01*
X217935118Y-29529293D01*
X218063302Y-29574146D01*
X218063301Y-29574146D01*
X218067271Y-29574518D01*
X218093735Y-29577000D01*
X219802264Y-29576999D01*
X219832698Y-29574146D01*
X219960882Y-29529293D01*
X220070150Y-29448650D01*
X220150793Y-29339382D01*
X220195646Y-29211198D01*
X220198500Y-29180765D01*
X220198499Y-27472236D01*
X220195646Y-27441802D01*
X220173570Y-27378711D01*
X224399500Y-27378711D01*
X224399500Y-27621288D01*
X224431161Y-27861785D01*
X224493947Y-28096104D01*
X224586773Y-28320205D01*
X224586776Y-28320212D01*
X224708064Y-28530289D01*
X224708066Y-28530292D01*
X224708067Y-28530293D01*
X224855733Y-28722736D01*
X224855739Y-28722743D01*
X225027256Y-28894260D01*
X225027262Y-28894265D01*
X225219711Y-29041936D01*
X225429788Y-29163224D01*
X225653900Y-29256054D01*
X225888211Y-29318838D01*
X226044261Y-29339382D01*
X226128711Y-29350500D01*
X226128712Y-29350500D01*
X226371289Y-29350500D01*
X226419388Y-29344167D01*
X226611789Y-29318838D01*
X226846100Y-29256054D01*
X227070212Y-29163224D01*
X227280289Y-29041936D01*
X227472738Y-28894265D01*
X227644265Y-28722738D01*
X227791936Y-28530289D01*
X227913224Y-28320212D01*
X228006054Y-28096100D01*
X228068838Y-27861789D01*
X228100500Y-27621288D01*
X228100500Y-27378712D01*
X228068838Y-27138211D01*
X228006054Y-26903900D01*
X227913224Y-26679788D01*
X227791936Y-26469711D01*
X227644265Y-26277262D01*
X227644260Y-26277256D01*
X227472743Y-26105739D01*
X227472736Y-26105733D01*
X227280293Y-25958067D01*
X227280292Y-25958066D01*
X227280289Y-25958064D01*
X227070212Y-25836776D01*
X227070205Y-25836773D01*
X226846104Y-25743947D01*
X226611785Y-25681161D01*
X226371289Y-25649500D01*
X226371288Y-25649500D01*
X226128712Y-25649500D01*
X226128711Y-25649500D01*
X225888214Y-25681161D01*
X225653895Y-25743947D01*
X225429794Y-25836773D01*
X225429785Y-25836777D01*
X225219706Y-25958067D01*
X225027263Y-26105733D01*
X225027256Y-26105739D01*
X224855739Y-26277256D01*
X224855733Y-26277263D01*
X224708067Y-26469706D01*
X224586777Y-26679785D01*
X224586773Y-26679794D01*
X224493947Y-26903895D01*
X224431161Y-27138214D01*
X224399500Y-27378711D01*
X220173570Y-27378711D01*
X220150793Y-27313618D01*
X220070150Y-27204350D01*
X219989506Y-27144832D01*
X219960881Y-27123706D01*
X219832695Y-27078853D01*
X219832698Y-27078853D01*
X219802268Y-27076000D01*
X218093741Y-27076000D01*
X218063301Y-27078854D01*
X218063300Y-27078854D01*
X217935118Y-27123706D01*
X217825850Y-27204350D01*
X217745206Y-27313618D01*
X217700353Y-27441802D01*
X217697500Y-27472231D01*
X211308499Y-27472231D01*
X211305646Y-27441802D01*
X211260793Y-27313618D01*
X211180150Y-27204350D01*
X211099506Y-27144832D01*
X211070881Y-27123706D01*
X210942695Y-27078853D01*
X210942698Y-27078853D01*
X210912268Y-27076000D01*
X209203741Y-27076000D01*
X209173301Y-27078854D01*
X209173300Y-27078854D01*
X209045118Y-27123706D01*
X208935850Y-27204350D01*
X208855206Y-27313618D01*
X208810353Y-27441802D01*
X208807500Y-27472231D01*
X204196499Y-27472231D01*
X204193646Y-27441802D01*
X204148793Y-27313618D01*
X204068150Y-27204350D01*
X203987506Y-27144832D01*
X203958881Y-27123706D01*
X203830695Y-27078853D01*
X203830698Y-27078853D01*
X203800268Y-27076000D01*
X202091741Y-27076000D01*
X202061301Y-27078854D01*
X202061300Y-27078854D01*
X201933118Y-27123706D01*
X201823850Y-27204350D01*
X201743206Y-27313618D01*
X201698353Y-27441802D01*
X201695500Y-27472231D01*
X197084499Y-27472231D01*
X197081646Y-27441802D01*
X197036793Y-27313618D01*
X196956150Y-27204350D01*
X196875506Y-27144832D01*
X196846881Y-27123706D01*
X196718695Y-27078853D01*
X196718698Y-27078853D01*
X196688268Y-27076000D01*
X194979741Y-27076000D01*
X194949301Y-27078854D01*
X194949300Y-27078854D01*
X194821118Y-27123706D01*
X194711850Y-27204350D01*
X194631206Y-27313618D01*
X194586353Y-27441802D01*
X194583500Y-27472231D01*
X189972499Y-27472231D01*
X189969646Y-27441802D01*
X189924793Y-27313618D01*
X189844150Y-27204350D01*
X189763506Y-27144832D01*
X189734881Y-27123706D01*
X189606695Y-27078853D01*
X189606698Y-27078853D01*
X189576268Y-27076000D01*
X187867741Y-27076000D01*
X187837301Y-27078854D01*
X187837300Y-27078854D01*
X187709118Y-27123706D01*
X187599850Y-27204350D01*
X187519206Y-27313618D01*
X187474353Y-27441802D01*
X187471500Y-27472231D01*
X180850500Y-27472231D01*
X180850500Y-27378712D01*
X180818838Y-27138211D01*
X180756054Y-26903900D01*
X180663224Y-26679788D01*
X180541936Y-26469711D01*
X180394265Y-26277262D01*
X180394260Y-26277256D01*
X180222743Y-26105739D01*
X180222736Y-26105733D01*
X180030293Y-25958067D01*
X180030292Y-25958066D01*
X180030289Y-25958064D01*
X179820212Y-25836776D01*
X179820205Y-25836773D01*
X179596104Y-25743947D01*
X179361785Y-25681161D01*
X179121289Y-25649500D01*
X179121288Y-25649500D01*
X178878712Y-25649500D01*
X178878711Y-25649500D01*
X178638214Y-25681161D01*
X178403895Y-25743947D01*
X178179794Y-25836773D01*
X178179785Y-25836777D01*
X177969706Y-25958067D01*
X177777263Y-26105733D01*
X177777256Y-26105739D01*
X177605739Y-26277256D01*
X177605733Y-26277263D01*
X177458067Y-26469706D01*
X177336777Y-26679785D01*
X177336773Y-26679794D01*
X177243947Y-26903895D01*
X177181161Y-27138214D01*
X177149500Y-27378711D01*
X175500500Y-27378711D01*
X175500500Y-24124500D01*
X175520185Y-24057461D01*
X175572989Y-24011706D01*
X175624500Y-24000500D01*
X229625500Y-24000500D01*
X229692539Y-24020185D01*
G37*
G04 #@! TD.AperFunction*
M02*
