G04 #@! TF.GenerationSoftware,KiCad,Pcbnew,9.0.7*
G04 #@! TF.CreationDate,2026-01-25T06:09:58+01:00*
G04 #@! TF.ProjectId,usb2lin,75736232-6c69-46e2-9e6b-696361645f70,rev?*
G04 #@! TF.SameCoordinates,Original*
G04 #@! TF.FileFunction,Paste,Top*
G04 #@! TF.FilePolarity,Positive*
%FSLAX46Y46*%
G04 Gerber Fmt 4.6, Leading zero omitted, Abs format (unit mm)*
G04 Created by KiCad (PCBNEW 9.0.7) date 2026-01-25 06:09:58*
%MOMM*%
%LPD*%
G01*
G04 APERTURE LIST*
G04 Aperture macros list*
%AMRoundRect*
0 Rectangle with rounded corners*
0 $1 Rounding radius*
0 $2 $3 $4 $5 $6 $7 $8 $9 X,Y pos of 4 corners*
0 Add a 4 corners polygon primitive as box body*
4,1,4,$2,$3,$4,$5,$6,$7,$8,$9,$2,$3,0*
0 Add four circle primitives for the rounded corners*
1,1,$1+$1,$2,$3*
1,1,$1+$1,$4,$5*
1,1,$1+$1,$6,$7*
1,1,$1+$1,$8,$9*
0 Add four rect primitives between the rounded corners*
20,1,$1+$1,$2,$3,$4,$5,0*
20,1,$1+$1,$4,$5,$6,$7,0*
20,1,$1+$1,$6,$7,$8,$9,0*
20,1,$1+$1,$8,$9,$2,$3,0*%
G04 Aperture macros list end*
%ADD10RoundRect,0.250000X0.475000X-0.250000X0.475000X0.250000X-0.475000X0.250000X-0.475000X-0.250000X0*%
%ADD11RoundRect,0.250000X-0.262500X-0.450000X0.262500X-0.450000X0.262500X0.450000X-0.262500X0.450000X0*%
%ADD12RoundRect,0.250000X-0.250000X-0.475000X0.250000X-0.475000X0.250000X0.475000X-0.250000X0.475000X0*%
%ADD13RoundRect,0.249999X-0.450001X-1.850001X0.450001X-1.850001X0.450001X1.850001X-0.450001X1.850001X0*%
%ADD14RoundRect,0.250000X-0.450000X0.262500X-0.450000X-0.262500X0.450000X-0.262500X0.450000X0.262500X0*%
%ADD15RoundRect,0.112500X0.112500X-0.187500X0.112500X0.187500X-0.112500X0.187500X-0.112500X-0.187500X0*%
%ADD16RoundRect,0.250000X0.450000X-0.262500X0.450000X0.262500X-0.450000X0.262500X-0.450000X-0.262500X0*%
%ADD17RoundRect,0.075000X0.662500X0.075000X-0.662500X0.075000X-0.662500X-0.075000X0.662500X-0.075000X0*%
%ADD18RoundRect,0.075000X0.075000X0.662500X-0.075000X0.662500X-0.075000X-0.662500X0.075000X-0.662500X0*%
%ADD19RoundRect,0.243750X-0.243750X-0.456250X0.243750X-0.456250X0.243750X0.456250X-0.243750X0.456250X0*%
%ADD20RoundRect,0.150000X0.150000X-0.825000X0.150000X0.825000X-0.150000X0.825000X-0.150000X-0.825000X0*%
%ADD21RoundRect,0.250000X-0.475000X0.250000X-0.475000X-0.250000X0.475000X-0.250000X0.475000X0.250000X0*%
%ADD22RoundRect,0.250001X-0.462499X-0.624999X0.462499X-0.624999X0.462499X0.624999X-0.462499X0.624999X0*%
%ADD23RoundRect,0.150000X0.512500X0.150000X-0.512500X0.150000X-0.512500X-0.150000X0.512500X-0.150000X0*%
%ADD24RoundRect,0.250000X0.262500X0.450000X-0.262500X0.450000X-0.262500X-0.450000X0.262500X-0.450000X0*%
%ADD25RoundRect,0.250000X0.250000X0.475000X-0.250000X0.475000X-0.250000X-0.475000X0.250000X-0.475000X0*%
%ADD26RoundRect,0.250000X1.000000X0.650000X-1.000000X0.650000X-1.000000X-0.650000X1.000000X-0.650000X0*%
%ADD27RoundRect,0.150000X0.587500X0.150000X-0.587500X0.150000X-0.587500X-0.150000X0.587500X-0.150000X0*%
G04 APERTURE END LIST*
D10*
X191008000Y-37780000D03*
X191008000Y-35880000D03*
D11*
X226430000Y-46432500D03*
X228255000Y-46432500D03*
D12*
X225250000Y-70250000D03*
X227150000Y-70250000D03*
D13*
X219801000Y-54814500D03*
X223501000Y-54814500D03*
D12*
X226355000Y-51004500D03*
X228255000Y-51004500D03*
D10*
X205232000Y-37780000D03*
X205232000Y-35880000D03*
X212344000Y-37780000D03*
X212344000Y-35880000D03*
D14*
X185166000Y-47244000D03*
X185166000Y-49069000D03*
D15*
X186436000Y-37880000D03*
X186436000Y-35780000D03*
X207772000Y-37914000D03*
X207772000Y-35814000D03*
D14*
X206502000Y-47244000D03*
X206502000Y-49069000D03*
D16*
X201930000Y-62277000D03*
X201930000Y-60452000D03*
X195834000Y-37742500D03*
X195834000Y-35917500D03*
D12*
X219751000Y-49988500D03*
X221651000Y-49988500D03*
D16*
X209042000Y-62277000D03*
X209042000Y-60452000D03*
D17*
X227162500Y-80662500D03*
X227162500Y-80162500D03*
X227162500Y-79662500D03*
X227162500Y-79162500D03*
X227162500Y-78662500D03*
X227162500Y-78162500D03*
X227162500Y-77662500D03*
X227162500Y-77162500D03*
X227162500Y-76662500D03*
X227162500Y-76162500D03*
X227162500Y-75662500D03*
X227162500Y-75162500D03*
D18*
X225750000Y-73750000D03*
X225250000Y-73750000D03*
X224750000Y-73750000D03*
X224250000Y-73750000D03*
X223750000Y-73750000D03*
X223250000Y-73750000D03*
X222750000Y-73750000D03*
X222250000Y-73750000D03*
X221750000Y-73750000D03*
X221250000Y-73750000D03*
X220750000Y-73750000D03*
X220250000Y-73750000D03*
D17*
X218837500Y-75162500D03*
X218837500Y-75662500D03*
X218837500Y-76162500D03*
X218837500Y-76662500D03*
X218837500Y-77162500D03*
X218837500Y-77662500D03*
X218837500Y-78162500D03*
X218837500Y-78662500D03*
X218837500Y-79162500D03*
X218837500Y-79662500D03*
X218837500Y-80162500D03*
X218837500Y-80662500D03*
D18*
X220250000Y-82075000D03*
X220750000Y-82075000D03*
X221250000Y-82075000D03*
X221750000Y-82075000D03*
X222250000Y-82075000D03*
X222750000Y-82075000D03*
X223250000Y-82075000D03*
X223750000Y-82075000D03*
X224250000Y-82075000D03*
X224750000Y-82075000D03*
X225250000Y-82075000D03*
X225750000Y-82075000D03*
D14*
X199390000Y-47244000D03*
X199390000Y-49069000D03*
D10*
X206502000Y-45400000D03*
X206502000Y-43500000D03*
D19*
X217000000Y-66500000D03*
X218875000Y-66500000D03*
D20*
X194691000Y-57085000D03*
X195961000Y-57085000D03*
X197231000Y-57085000D03*
X198501000Y-57085000D03*
X198501000Y-52135000D03*
X197231000Y-52135000D03*
X195961000Y-52135000D03*
X194691000Y-52135000D03*
D21*
X197358000Y-60452000D03*
X197358000Y-62352000D03*
D16*
X194818000Y-62277000D03*
X194818000Y-60452000D03*
D22*
X219000000Y-36250000D03*
X221975000Y-36250000D03*
D23*
X222534500Y-47382500D03*
X222534500Y-46432500D03*
X222534500Y-45482500D03*
X220259500Y-45482500D03*
X220259500Y-46432500D03*
X220259500Y-47382500D03*
D15*
X193548000Y-37880000D03*
X193548000Y-35780000D03*
D12*
X226355000Y-44146500D03*
X228255000Y-44146500D03*
D15*
X200660000Y-37914000D03*
X200660000Y-35814000D03*
D10*
X199390000Y-45400000D03*
X199390000Y-43500000D03*
D20*
X187579000Y-57085000D03*
X188849000Y-57085000D03*
X190119000Y-57085000D03*
X191389000Y-57085000D03*
X191389000Y-52135000D03*
X190119000Y-52135000D03*
X188849000Y-52135000D03*
X187579000Y-52135000D03*
D24*
X218825000Y-70250000D03*
X217000000Y-70250000D03*
D16*
X188722000Y-37742500D03*
X188722000Y-35917500D03*
D20*
X201803000Y-57085000D03*
X203073000Y-57085000D03*
X204343000Y-57085000D03*
X205613000Y-57085000D03*
X205613000Y-52135000D03*
X204343000Y-52135000D03*
X203073000Y-52135000D03*
X201803000Y-52135000D03*
D25*
X223150000Y-70250000D03*
X221250000Y-70250000D03*
D16*
X210058000Y-37742500D03*
X210058000Y-35917500D03*
X202946000Y-37742500D03*
X202946000Y-35917500D03*
D14*
X192278000Y-47244000D03*
X192278000Y-49069000D03*
D12*
X226355000Y-39611000D03*
X228255000Y-39611000D03*
D26*
X222975000Y-40500000D03*
X218975000Y-40500000D03*
D12*
X226355000Y-48718500D03*
X228255000Y-48718500D03*
D10*
X185166000Y-45400000D03*
X185166000Y-43500000D03*
X192278000Y-45400000D03*
X192278000Y-43500000D03*
D20*
X208915000Y-57020000D03*
X210185000Y-57020000D03*
X211455000Y-57020000D03*
X212725000Y-57020000D03*
X212725000Y-52070000D03*
X211455000Y-52070000D03*
X210185000Y-52070000D03*
X208915000Y-52070000D03*
D10*
X198120000Y-37780000D03*
X198120000Y-35880000D03*
D27*
X193500000Y-81500000D03*
X193500000Y-79600000D03*
X191625000Y-80550000D03*
D21*
X204470000Y-60452000D03*
X204470000Y-62352000D03*
D12*
X226355000Y-41860500D03*
X228255000Y-41860500D03*
D21*
X211582000Y-60452000D03*
X211582000Y-62352000D03*
D16*
X187706000Y-62277000D03*
X187706000Y-60452000D03*
D21*
X190246000Y-60452000D03*
X190246000Y-62352000D03*
M02*
