G04 #@! TF.GenerationSoftware,KiCad,Pcbnew,9.0.7*
G04 #@! TF.CreationDate,2026-01-25T06:09:58+01:00*
G04 #@! TF.ProjectId,usb2lin,75736232-6c69-46e2-9e6b-696361645f70,rev?*
G04 #@! TF.SameCoordinates,Original*
G04 #@! TF.FileFunction,Legend,Top*
G04 #@! TF.FilePolarity,Positive*
%FSLAX46Y46*%
G04 Gerber Fmt 4.6, Leading zero omitted, Abs format (unit mm)*
G04 Created by KiCad (PCBNEW 9.0.7) date 2026-01-25 06:09:58*
%MOMM*%
%LPD*%
G01*
G04 APERTURE LIST*
G04 Aperture macros list*
%AMRoundRect*
0 Rectangle with rounded corners*
0 $1 Rounding radius*
0 $2 $3 $4 $5 $6 $7 $8 $9 X,Y pos of 4 corners*
0 Add a 4 corners polygon primitive as box body*
4,1,4,$2,$3,$4,$5,$6,$7,$8,$9,$2,$3,0*
0 Add four circle primitives for the rounded corners*
1,1,$1+$1,$2,$3*
1,1,$1+$1,$4,$5*
1,1,$1+$1,$6,$7*
1,1,$1+$1,$8,$9*
0 Add four rect primitives between the rounded corners*
20,1,$1+$1,$2,$3,$4,$5,0*
20,1,$1+$1,$4,$5,$6,$7,0*
20,1,$1+$1,$6,$7,$8,$9,0*
20,1,$1+$1,$8,$9,$2,$3,0*%
G04 Aperture macros list end*
%ADD10C,0.100000*%
%ADD11C,0.120000*%
%ADD12C,0.010000*%
%ADD13R,1.700000X1.700000*%
%ADD14C,1.700000*%
%ADD15RoundRect,0.250000X0.475000X-0.250000X0.475000X0.250000X-0.475000X0.250000X-0.475000X-0.250000X0*%
%ADD16RoundRect,0.250000X-0.262500X-0.450000X0.262500X-0.450000X0.262500X0.450000X-0.262500X0.450000X0*%
%ADD17RoundRect,0.250000X-0.250000X-0.475000X0.250000X-0.475000X0.250000X0.475000X-0.250000X0.475000X0*%
%ADD18RoundRect,0.249999X-0.450001X-1.850001X0.450001X-1.850001X0.450001X1.850001X-0.450001X1.850001X0*%
%ADD19RoundRect,0.250000X-0.450000X0.262500X-0.450000X-0.262500X0.450000X-0.262500X0.450000X0.262500X0*%
%ADD20RoundRect,0.250001X0.799999X0.799999X-0.799999X0.799999X-0.799999X-0.799999X0.799999X-0.799999X0*%
%ADD21C,2.100000*%
%ADD22RoundRect,0.112500X0.112500X-0.187500X0.112500X0.187500X-0.112500X0.187500X-0.112500X-0.187500X0*%
%ADD23RoundRect,0.250000X0.450000X-0.262500X0.450000X0.262500X-0.450000X0.262500X-0.450000X-0.262500X0*%
%ADD24RoundRect,0.075000X0.662500X0.075000X-0.662500X0.075000X-0.662500X-0.075000X0.662500X-0.075000X0*%
%ADD25RoundRect,0.075000X0.075000X0.662500X-0.075000X0.662500X-0.075000X-0.662500X0.075000X-0.662500X0*%
%ADD26C,3.200000*%
%ADD27RoundRect,0.243750X-0.243750X-0.456250X0.243750X-0.456250X0.243750X0.456250X-0.243750X0.456250X0*%
%ADD28RoundRect,0.150000X0.150000X-0.825000X0.150000X0.825000X-0.150000X0.825000X-0.150000X-0.825000X0*%
%ADD29RoundRect,0.250000X-0.475000X0.250000X-0.475000X-0.250000X0.475000X-0.250000X0.475000X0.250000X0*%
%ADD30RoundRect,0.250001X-0.462499X-0.624999X0.462499X-0.624999X0.462499X0.624999X-0.462499X0.624999X0*%
%ADD31RoundRect,0.150000X0.512500X0.150000X-0.512500X0.150000X-0.512500X-0.150000X0.512500X-0.150000X0*%
%ADD32RoundRect,0.250001X0.799999X-0.799999X0.799999X0.799999X-0.799999X0.799999X-0.799999X-0.799999X0*%
%ADD33RoundRect,0.250000X0.262500X0.450000X-0.262500X0.450000X-0.262500X-0.450000X0.262500X-0.450000X0*%
%ADD34R,1.400000X1.400000*%
%ADD35C,1.400000*%
%ADD36C,3.000000*%
%ADD37RoundRect,0.250000X0.250000X0.475000X-0.250000X0.475000X-0.250000X-0.475000X0.250000X-0.475000X0*%
%ADD38RoundRect,0.250000X1.000000X0.650000X-1.000000X0.650000X-1.000000X-0.650000X1.000000X-0.650000X0*%
%ADD39RoundRect,0.150000X0.587500X0.150000X-0.587500X0.150000X-0.587500X-0.150000X0.587500X-0.150000X0*%
G04 APERTURE END LIST*
D10*
X180594000Y-52832000D02*
X183134000Y-52832000D01*
X183134000Y-54864000D01*
X180594000Y-54864000D01*
X180594000Y-52832000D01*
X180594000Y-44450000D02*
X183134000Y-44450000D01*
X183134000Y-52832000D01*
X180594000Y-52832000D01*
X180594000Y-44450000D01*
X178054000Y-41148000D02*
X180594000Y-41148000D01*
X180594000Y-43180000D01*
X178054000Y-43180000D01*
X178054000Y-41148000D01*
X176276000Y-32766000D02*
X178054000Y-32766000D01*
X178054000Y-41148000D01*
X176276000Y-41148000D01*
X176276000Y-32766000D01*
X180594000Y-41148000D02*
X183134000Y-41148000D01*
X183134000Y-43180000D01*
X180594000Y-43180000D01*
X180594000Y-41148000D01*
X180594000Y-32766000D02*
X183134000Y-32766000D01*
X183134000Y-41148000D01*
X180594000Y-41148000D01*
X180594000Y-32766000D01*
X212317000Y-74676000D02*
X212317000Y-64262000D01*
X178054000Y-32766000D02*
X180594000Y-32766000D01*
X180594000Y-41148000D01*
X178054000Y-41148000D01*
X178054000Y-32766000D01*
X176276000Y-44450000D02*
X178054000Y-44450000D01*
X178054000Y-52832000D01*
X176276000Y-52832000D01*
X176276000Y-44450000D01*
X186690000Y-40132000D02*
X214122000Y-40132000D01*
X214122000Y-50546000D01*
X186690000Y-50546000D01*
X186690000Y-40132000D01*
X178054000Y-44450000D02*
X180594000Y-44450000D01*
X180594000Y-52832000D01*
X178054000Y-52832000D01*
X178054000Y-44450000D01*
X178054000Y-52832000D02*
X180594000Y-52832000D01*
X180594000Y-54864000D01*
X178054000Y-54864000D01*
X178054000Y-52832000D01*
X186944000Y-64262000D02*
X214376000Y-64262000D01*
X214376000Y-74676000D01*
X186944000Y-74676000D01*
X186944000Y-64262000D01*
X212090000Y-50546000D02*
X212090000Y-40132000D01*
X182244419Y-42368115D02*
X181244419Y-42368115D01*
X181244419Y-42368115D02*
X181958704Y-42034782D01*
X181958704Y-42034782D02*
X181244419Y-41701449D01*
X181244419Y-41701449D02*
X182244419Y-41701449D01*
X213348609Y-73862782D02*
X213396228Y-73719925D01*
X213396228Y-73719925D02*
X213443847Y-73672306D01*
X213443847Y-73672306D02*
X213539085Y-73624687D01*
X213539085Y-73624687D02*
X213681942Y-73624687D01*
X213681942Y-73624687D02*
X213777180Y-73672306D01*
X213777180Y-73672306D02*
X213824800Y-73719925D01*
X213824800Y-73719925D02*
X213872419Y-73815163D01*
X213872419Y-73815163D02*
X213872419Y-74196115D01*
X213872419Y-74196115D02*
X212872419Y-74196115D01*
X212872419Y-74196115D02*
X212872419Y-73862782D01*
X212872419Y-73862782D02*
X212920038Y-73767544D01*
X212920038Y-73767544D02*
X212967657Y-73719925D01*
X212967657Y-73719925D02*
X213062895Y-73672306D01*
X213062895Y-73672306D02*
X213158133Y-73672306D01*
X213158133Y-73672306D02*
X213253371Y-73719925D01*
X213253371Y-73719925D02*
X213300990Y-73767544D01*
X213300990Y-73767544D02*
X213348609Y-73862782D01*
X213348609Y-73862782D02*
X213348609Y-74196115D01*
X212872419Y-73196115D02*
X213681942Y-73196115D01*
X213681942Y-73196115D02*
X213777180Y-73148496D01*
X213777180Y-73148496D02*
X213824800Y-73100877D01*
X213824800Y-73100877D02*
X213872419Y-73005639D01*
X213872419Y-73005639D02*
X213872419Y-72815163D01*
X213872419Y-72815163D02*
X213824800Y-72719925D01*
X213824800Y-72719925D02*
X213777180Y-72672306D01*
X213777180Y-72672306D02*
X213681942Y-72624687D01*
X213681942Y-72624687D02*
X212872419Y-72624687D01*
X213824800Y-72196115D02*
X213872419Y-72053258D01*
X213872419Y-72053258D02*
X213872419Y-71815163D01*
X213872419Y-71815163D02*
X213824800Y-71719925D01*
X213824800Y-71719925D02*
X213777180Y-71672306D01*
X213777180Y-71672306D02*
X213681942Y-71624687D01*
X213681942Y-71624687D02*
X213586704Y-71624687D01*
X213586704Y-71624687D02*
X213491466Y-71672306D01*
X213491466Y-71672306D02*
X213443847Y-71719925D01*
X213443847Y-71719925D02*
X213396228Y-71815163D01*
X213396228Y-71815163D02*
X213348609Y-72005639D01*
X213348609Y-72005639D02*
X213300990Y-72100877D01*
X213300990Y-72100877D02*
X213253371Y-72148496D01*
X213253371Y-72148496D02*
X213158133Y-72196115D01*
X213158133Y-72196115D02*
X213062895Y-72196115D01*
X213062895Y-72196115D02*
X212967657Y-72148496D01*
X212967657Y-72148496D02*
X212920038Y-72100877D01*
X212920038Y-72100877D02*
X212872419Y-72005639D01*
X212872419Y-72005639D02*
X212872419Y-71767544D01*
X212872419Y-71767544D02*
X212920038Y-71624687D01*
X213348609Y-70434210D02*
X213348609Y-70100877D01*
X213872419Y-69958020D02*
X213872419Y-70434210D01*
X213872419Y-70434210D02*
X212872419Y-70434210D01*
X212872419Y-70434210D02*
X212872419Y-69958020D01*
X213872419Y-69529448D02*
X212872419Y-69529448D01*
X212872419Y-69529448D02*
X213872419Y-68958020D01*
X213872419Y-68958020D02*
X212872419Y-68958020D01*
G36*
X196458945Y-73336356D02*
G01*
X196504676Y-73348141D01*
X196546887Y-73367555D01*
X196584146Y-73394717D01*
X196616503Y-73431062D01*
X196644157Y-73478075D01*
X196663063Y-73529558D01*
X196675472Y-73593907D01*
X196680000Y-73673835D01*
X196680000Y-74046855D01*
X195663949Y-74046855D01*
X195663949Y-73688245D01*
X195777278Y-73688245D01*
X195777278Y-73917895D01*
X196108838Y-73917895D01*
X196108838Y-73692459D01*
X196106554Y-73670477D01*
X196218869Y-73670477D01*
X196218869Y-73917895D01*
X196566671Y-73917895D01*
X196566671Y-73677316D01*
X196560441Y-73598562D01*
X196544308Y-73544013D01*
X196520814Y-73507262D01*
X196487529Y-73478957D01*
X196450545Y-73462396D01*
X196408463Y-73456764D01*
X196359116Y-73463326D01*
X196314063Y-73482898D01*
X196275502Y-73514096D01*
X196244881Y-73556782D01*
X196225692Y-73607702D01*
X196218869Y-73670477D01*
X196106554Y-73670477D01*
X196103325Y-73639395D01*
X196087344Y-73592808D01*
X196061231Y-73552527D01*
X196026650Y-73521977D01*
X195984735Y-73502557D01*
X195934876Y-73495843D01*
X195892685Y-73501089D01*
X195855848Y-73516405D01*
X195823012Y-73542249D01*
X195799043Y-73576125D01*
X195783221Y-73623327D01*
X195777278Y-73688245D01*
X195663949Y-73688245D01*
X195663949Y-73685192D01*
X195668463Y-73614586D01*
X195680987Y-73556497D01*
X195700403Y-73508788D01*
X195728071Y-73465509D01*
X195760420Y-73431400D01*
X195797733Y-73405351D01*
X195839493Y-73386608D01*
X195884295Y-73375268D01*
X195932861Y-73371401D01*
X195994615Y-73377690D01*
X196040816Y-73394727D01*
X196079247Y-73421899D01*
X196108532Y-73455971D01*
X196130438Y-73495517D01*
X196145963Y-73538464D01*
X196155549Y-73538464D01*
X196164765Y-73491697D01*
X196188339Y-73443209D01*
X196224030Y-73400327D01*
X196273702Y-73364074D01*
X196311776Y-73346942D01*
X196356396Y-73336145D01*
X196408890Y-73332323D01*
X196458945Y-73336356D01*
G37*
X215457693Y-33146419D02*
X214886265Y-33146419D01*
X215171979Y-33146419D02*
X215171979Y-32146419D01*
X215171979Y-32146419D02*
X215076741Y-32289276D01*
X215076741Y-32289276D02*
X214981503Y-32384514D01*
X214981503Y-32384514D02*
X214886265Y-32432133D01*
X215838646Y-32241657D02*
X215886265Y-32194038D01*
X215886265Y-32194038D02*
X215981503Y-32146419D01*
X215981503Y-32146419D02*
X216219598Y-32146419D01*
X216219598Y-32146419D02*
X216314836Y-32194038D01*
X216314836Y-32194038D02*
X216362455Y-32241657D01*
X216362455Y-32241657D02*
X216410074Y-32336895D01*
X216410074Y-32336895D02*
X216410074Y-32432133D01*
X216410074Y-32432133D02*
X216362455Y-32574990D01*
X216362455Y-32574990D02*
X215791027Y-33146419D01*
X215791027Y-33146419D02*
X216410074Y-33146419D01*
X216695789Y-32146419D02*
X217029122Y-33146419D01*
X217029122Y-33146419D02*
X217362455Y-32146419D01*
X218457694Y-33146419D02*
X218457694Y-32146419D01*
X218933884Y-33146419D02*
X218933884Y-32146419D01*
X218933884Y-32146419D02*
X219505312Y-33146419D01*
X219505312Y-33146419D02*
X219505312Y-32146419D01*
G36*
X181099146Y-85351500D02*
G01*
X180986595Y-85345958D01*
X180865650Y-85328724D01*
X180745307Y-85301589D01*
X180630383Y-85266381D01*
X180521910Y-85222807D01*
X180433035Y-85175767D01*
X180433035Y-85056149D01*
X180542333Y-85105157D01*
X180656700Y-85147435D01*
X180773084Y-85181735D01*
X180886167Y-85206542D01*
X180997920Y-85222114D01*
X181099146Y-85227058D01*
X181190182Y-85222569D01*
X181283122Y-85208923D01*
X181376766Y-85186400D01*
X181479677Y-85152869D01*
X181584836Y-85111013D01*
X181705052Y-85056149D01*
X181705052Y-85175767D01*
X181604339Y-85229366D01*
X181503686Y-85272933D01*
X181402801Y-85306926D01*
X181299455Y-85331920D01*
X181198393Y-85346648D01*
X181099146Y-85351500D01*
G37*
G36*
X181591723Y-84457144D02*
G01*
X181584456Y-84542144D01*
X181563279Y-84619029D01*
X181528403Y-84689357D01*
X181480821Y-84751803D01*
X181421105Y-84805072D01*
X181347725Y-84849642D01*
X181267452Y-84881172D01*
X181175178Y-84900985D01*
X181068738Y-84907955D01*
X180961842Y-84900974D01*
X180869380Y-84881151D01*
X180789141Y-84849642D01*
X180715738Y-84805087D01*
X180655894Y-84751818D01*
X180608096Y-84689357D01*
X180573010Y-84619007D01*
X180551715Y-84542125D01*
X180544410Y-84457144D01*
X180550164Y-84381642D01*
X180567063Y-84311575D01*
X180595028Y-84246261D01*
X180633192Y-84188476D01*
X180681102Y-84138587D01*
X180738644Y-84097435D01*
X180803908Y-84066971D01*
X180879389Y-84047304D01*
X180879389Y-84177180D01*
X180829364Y-84192236D01*
X180787187Y-84214427D01*
X180750562Y-84243723D01*
X180720204Y-84278724D01*
X180696336Y-84318503D01*
X180679232Y-84362438D01*
X180669009Y-84409010D01*
X180665554Y-84458121D01*
X180670831Y-84517830D01*
X180686314Y-84572621D01*
X180712021Y-84623534D01*
X180747040Y-84668516D01*
X180792012Y-84707417D01*
X180848370Y-84740465D01*
X180909731Y-84763524D01*
X180982481Y-84778257D01*
X181068738Y-84783513D01*
X181154472Y-84778227D01*
X181227017Y-84763382D01*
X181288435Y-84740099D01*
X181344745Y-84706861D01*
X181389590Y-84667858D01*
X181424417Y-84622862D01*
X181449974Y-84571976D01*
X181465347Y-84517400D01*
X181470579Y-84458121D01*
X181467048Y-84409020D01*
X181456596Y-84362438D01*
X181439245Y-84318467D01*
X181415563Y-84278724D01*
X181385395Y-84243759D01*
X181348579Y-84214427D01*
X181306228Y-84192197D01*
X181256683Y-84177180D01*
X181256683Y-84047304D01*
X181331523Y-84066397D01*
X181396451Y-84096702D01*
X181453814Y-84137864D01*
X181501964Y-84187805D01*
X181540458Y-84245639D01*
X181568764Y-84310903D01*
X181585881Y-84381069D01*
X181591723Y-84457144D01*
G37*
G36*
X181705052Y-83900636D02*
G01*
X181581698Y-83844165D01*
X181475586Y-83802206D01*
X181372161Y-83769049D01*
X181279031Y-83747191D01*
X181187121Y-83734018D01*
X181099146Y-83729727D01*
X180997920Y-83734672D01*
X180886167Y-83750244D01*
X180773073Y-83774978D01*
X180656700Y-83809045D01*
X180542379Y-83851198D01*
X180433035Y-83900636D01*
X180433035Y-83781018D01*
X180521896Y-83733912D01*
X180630383Y-83690099D01*
X180745371Y-83654712D01*
X180865956Y-83627756D01*
X180987142Y-83610740D01*
X181099146Y-83605286D01*
X181200191Y-83610245D01*
X181302173Y-83625242D01*
X181405549Y-83650593D01*
X181506454Y-83684926D01*
X181606197Y-83728284D01*
X181705052Y-83781018D01*
X181705052Y-83900636D01*
G37*
G36*
X181581953Y-82958897D02*
G01*
X181488225Y-82958897D01*
X181120823Y-82620865D01*
X181012684Y-82526648D01*
X180965773Y-82492752D01*
X180924085Y-82469984D01*
X180880847Y-82455675D01*
X180834815Y-82450872D01*
X180784229Y-82457383D01*
X180742430Y-82476029D01*
X180708049Y-82505511D01*
X180682529Y-82544112D01*
X180667038Y-82589059D01*
X180661646Y-82641320D01*
X180667814Y-82696464D01*
X180685277Y-82741765D01*
X180713687Y-82779426D01*
X180751650Y-82807405D01*
X180797031Y-82824515D01*
X180851912Y-82830547D01*
X180851912Y-82954989D01*
X180792761Y-82950148D01*
X180740149Y-82936158D01*
X180692909Y-82913346D01*
X180650600Y-82882185D01*
X180615254Y-82844578D01*
X180586359Y-82799895D01*
X180565502Y-82750790D01*
X180552721Y-82696903D01*
X180548318Y-82637290D01*
X180552750Y-82577692D01*
X180565554Y-82524405D01*
X180586359Y-82476395D01*
X180614944Y-82432620D01*
X180648940Y-82396197D01*
X180688696Y-82366425D01*
X180733055Y-82344317D01*
X180780890Y-82330980D01*
X180833105Y-82326430D01*
X180887717Y-82331379D01*
X180940938Y-82346275D01*
X180993746Y-82371829D01*
X181059762Y-82416006D01*
X181128870Y-82471957D01*
X181221939Y-82556079D01*
X181459466Y-82778829D01*
X181467709Y-82778829D01*
X181467709Y-82310188D01*
X181581953Y-82310188D01*
X181581953Y-82958897D01*
G37*
G36*
X181178840Y-81419461D02*
G01*
X181272312Y-81433893D01*
X181351449Y-81456315D01*
X181425839Y-81489897D01*
X181484595Y-81530550D01*
X181530113Y-81578131D01*
X181563884Y-81634120D01*
X181584537Y-81698030D01*
X181591723Y-81771877D01*
X181584552Y-81845276D01*
X181563914Y-81908996D01*
X181530113Y-81965012D01*
X181484623Y-82012607D01*
X181425977Y-82053359D01*
X181351816Y-82087133D01*
X181272900Y-82109696D01*
X181179335Y-82124243D01*
X181068738Y-82129448D01*
X180958666Y-82124220D01*
X180865218Y-82109581D01*
X180786088Y-82086828D01*
X180711646Y-82052849D01*
X180652644Y-82011973D01*
X180606753Y-81964340D01*
X180572499Y-81908287D01*
X180551642Y-81844781D01*
X180544410Y-81771877D01*
X180657739Y-81771877D01*
X180663318Y-81819635D01*
X180679548Y-81861324D01*
X180706709Y-81898394D01*
X180742076Y-81928906D01*
X180788220Y-81955476D01*
X180847332Y-81977712D01*
X180909054Y-81992224D01*
X180982391Y-82001633D01*
X181069105Y-82005006D01*
X181155319Y-82001636D01*
X181228319Y-81992230D01*
X181289839Y-81977712D01*
X181348695Y-81955479D01*
X181394617Y-81928910D01*
X181429790Y-81898394D01*
X181456734Y-81861350D01*
X181472850Y-81819660D01*
X181478394Y-81771877D01*
X181472852Y-81724134D01*
X181456737Y-81682463D01*
X181429790Y-81645420D01*
X181394617Y-81614904D01*
X181348695Y-81588335D01*
X181289839Y-81566102D01*
X181228316Y-81551551D01*
X181155316Y-81542125D01*
X181069105Y-81538747D01*
X180982399Y-81542125D01*
X180908952Y-81551550D01*
X180847027Y-81566102D01*
X180787677Y-81588368D01*
X180741535Y-81614942D01*
X180706343Y-81645420D01*
X180679396Y-81682463D01*
X180663281Y-81724134D01*
X180657739Y-81771877D01*
X180544410Y-81771877D01*
X180551635Y-81699007D01*
X180572486Y-81635412D01*
X180606753Y-81579169D01*
X180652686Y-81531307D01*
X180711692Y-81490415D01*
X180786088Y-81456620D01*
X180865202Y-81434034D01*
X180958651Y-81419498D01*
X181068738Y-81414305D01*
X181178840Y-81419461D01*
G37*
G36*
X181581953Y-81222819D02*
G01*
X181488225Y-81222819D01*
X181120823Y-80884787D01*
X181012684Y-80790570D01*
X180965773Y-80756674D01*
X180924085Y-80733906D01*
X180880847Y-80719596D01*
X180834815Y-80714794D01*
X180784229Y-80721305D01*
X180742430Y-80739951D01*
X180708049Y-80769433D01*
X180682529Y-80808033D01*
X180667038Y-80852981D01*
X180661646Y-80905242D01*
X180667814Y-80960385D01*
X180685277Y-81005687D01*
X180713687Y-81043348D01*
X180751650Y-81071327D01*
X180797031Y-81088437D01*
X180851912Y-81094469D01*
X180851912Y-81218911D01*
X180792761Y-81214070D01*
X180740149Y-81200080D01*
X180692909Y-81177267D01*
X180650600Y-81146107D01*
X180615254Y-81108500D01*
X180586359Y-81063817D01*
X180565502Y-81014712D01*
X180552721Y-80960825D01*
X180548318Y-80901212D01*
X180552750Y-80841614D01*
X180565554Y-80788327D01*
X180586359Y-80740317D01*
X180614944Y-80696542D01*
X180648940Y-80660118D01*
X180688696Y-80630347D01*
X180733055Y-80608239D01*
X180780890Y-80594902D01*
X180833105Y-80590352D01*
X180887717Y-80595301D01*
X180940938Y-80610197D01*
X180993746Y-80635751D01*
X181059762Y-80679928D01*
X181128870Y-80735879D01*
X181221939Y-80820001D01*
X181459466Y-81042751D01*
X181467709Y-81042751D01*
X181467709Y-80574110D01*
X181581953Y-80574110D01*
X181581953Y-81222819D01*
G37*
G36*
X181311299Y-79698689D02*
G01*
X181368614Y-79712824D01*
X181421791Y-79736113D01*
X181470030Y-79768144D01*
X181511094Y-79807691D01*
X181545561Y-79855425D01*
X181570772Y-79908543D01*
X181586319Y-79968305D01*
X181591723Y-80036104D01*
X181586024Y-80099057D01*
X181568581Y-80162927D01*
X181550001Y-80203283D01*
X181524318Y-80241711D01*
X181490851Y-80278515D01*
X181452102Y-80309651D01*
X181403343Y-80337599D01*
X181342840Y-80362046D01*
X181279732Y-80378583D01*
X181202575Y-80389435D01*
X181108916Y-80393370D01*
X180978645Y-80386605D01*
X180870596Y-80367847D01*
X180802559Y-80347402D01*
X180744316Y-80322511D01*
X180694680Y-80293536D01*
X180649773Y-80258059D01*
X180613667Y-80218926D01*
X180585504Y-80175872D01*
X180565083Y-80128703D01*
X180552607Y-80077180D01*
X180548318Y-80020411D01*
X180552251Y-79964397D01*
X180563652Y-79913774D01*
X180582206Y-79867698D01*
X180607888Y-79825191D01*
X180639159Y-79788547D01*
X180676362Y-79757240D01*
X180718155Y-79732238D01*
X180764425Y-79713801D01*
X180815886Y-79701980D01*
X180815886Y-79827826D01*
X180773925Y-79842784D01*
X180737482Y-79864284D01*
X180705793Y-79892550D01*
X180681827Y-79926688D01*
X180666941Y-79968204D01*
X180661646Y-80019129D01*
X180666891Y-80069233D01*
X180682122Y-80113390D01*
X180707381Y-80152913D01*
X180740904Y-80186259D01*
X180784277Y-80215018D01*
X180839333Y-80239009D01*
X180897569Y-80254964D01*
X180966453Y-80265250D01*
X181047672Y-80268928D01*
X181047672Y-80260807D01*
X181007965Y-80230733D01*
X180974583Y-80195533D01*
X180947650Y-80155309D01*
X180927871Y-80110537D01*
X180915834Y-80062607D01*
X180913345Y-80031341D01*
X181025080Y-80031341D01*
X181029676Y-80076303D01*
X181043215Y-80117437D01*
X181064784Y-80154790D01*
X181093224Y-80187229D01*
X181127239Y-80213825D01*
X181165825Y-80233879D01*
X181207440Y-80246370D01*
X181251065Y-80250549D01*
X181309368Y-80243530D01*
X181363051Y-80222644D01*
X181409787Y-80189450D01*
X181446582Y-80145769D01*
X181464161Y-80111881D01*
X181474769Y-80075128D01*
X181478394Y-80034760D01*
X181474889Y-79994786D01*
X181464624Y-79958263D01*
X181447620Y-79924485D01*
X181411675Y-79880658D01*
X181365127Y-79846877D01*
X181310941Y-79825579D01*
X181249661Y-79818300D01*
X181189704Y-79825322D01*
X181136393Y-79845900D01*
X181090488Y-79878717D01*
X181055244Y-79921737D01*
X181038612Y-79955053D01*
X181028533Y-79991346D01*
X181025080Y-80031341D01*
X180913345Y-80031341D01*
X180911751Y-80011313D01*
X180916623Y-79954503D01*
X180930973Y-79901781D01*
X180954860Y-79852250D01*
X180987081Y-79807619D01*
X181026608Y-79769352D01*
X181074173Y-79737028D01*
X181126545Y-79713370D01*
X181184418Y-79698866D01*
X181248928Y-79693859D01*
X181311299Y-79698689D01*
G37*
G36*
X181580000Y-79104745D02*
G01*
X180814054Y-79104745D01*
X180814054Y-78983722D01*
X180985024Y-78983722D01*
X180985024Y-78993248D01*
X180927575Y-78972460D01*
X180883175Y-78943850D01*
X180847669Y-78906920D01*
X180822602Y-78864776D01*
X180807385Y-78818460D01*
X180802330Y-78770376D01*
X180808310Y-78717014D01*
X180825300Y-78672812D01*
X180853072Y-78635737D01*
X180889559Y-78606009D01*
X180933505Y-78583797D01*
X180986367Y-78569242D01*
X180986367Y-78585790D01*
X180933041Y-78566213D01*
X180888243Y-78535720D01*
X180851807Y-78495611D01*
X180824678Y-78447548D01*
X180808026Y-78393996D01*
X180802330Y-78334708D01*
X180809634Y-78270540D01*
X180831029Y-78213319D01*
X180853195Y-78179484D01*
X180881863Y-78150436D01*
X180917796Y-78125819D01*
X180957803Y-78108391D01*
X181006187Y-78097222D01*
X181064708Y-78093213D01*
X181580000Y-78093213D01*
X181580000Y-78217655D01*
X181066540Y-78217655D01*
X181013376Y-78223574D01*
X180975165Y-78239445D01*
X180948021Y-78264122D01*
X180928282Y-78296587D01*
X180916422Y-78332261D01*
X180912362Y-78372077D01*
X180918004Y-78420775D01*
X180933977Y-78460554D01*
X180959599Y-78493548D01*
X180993267Y-78517951D01*
X181032992Y-78532900D01*
X181079607Y-78538101D01*
X181580000Y-78538101D01*
X181580000Y-78662543D01*
X181054267Y-78662543D01*
X181013605Y-78667449D01*
X180979864Y-78681462D01*
X180951441Y-78704614D01*
X180929978Y-78734628D01*
X180916921Y-78769597D01*
X180912362Y-78810921D01*
X180917579Y-78853711D01*
X180933244Y-78893963D01*
X180958912Y-78928787D01*
X180995282Y-78956612D01*
X181039771Y-78973995D01*
X181097437Y-78980303D01*
X181580000Y-78980303D01*
X181580000Y-79104745D01*
G37*
G36*
X181587815Y-77619260D02*
G01*
X181584093Y-77670031D01*
X181573383Y-77715027D01*
X181556064Y-77755181D01*
X181531526Y-77790968D01*
X181499816Y-77821167D01*
X181460015Y-77846161D01*
X181415968Y-77863510D01*
X181363004Y-77874651D01*
X181299364Y-77878646D01*
X180814054Y-77878646D01*
X180814054Y-77754204D01*
X181289656Y-77754204D01*
X181346736Y-77748525D01*
X181391927Y-77732785D01*
X181427836Y-77707859D01*
X181455123Y-77674016D01*
X181471856Y-77632721D01*
X181477784Y-77581769D01*
X181471653Y-77529408D01*
X181453848Y-77483888D01*
X181424612Y-77445380D01*
X181383689Y-77415378D01*
X181334254Y-77396804D01*
X181272498Y-77390160D01*
X180814054Y-77390160D01*
X180814054Y-77265718D01*
X181576092Y-77265718D01*
X181576092Y-77385336D01*
X181392421Y-77385336D01*
X181392421Y-77368850D01*
X181460983Y-77397961D01*
X181510176Y-77431736D01*
X181543974Y-77469783D01*
X181568175Y-77515050D01*
X181582803Y-77564512D01*
X181587815Y-77619260D01*
G37*
G36*
X181583907Y-76878654D02*
G01*
X181578119Y-76934510D01*
X181562366Y-76976603D01*
X181537745Y-77008225D01*
X181504529Y-77031269D01*
X181462423Y-77045868D01*
X181408907Y-77051151D01*
X180560041Y-77051151D01*
X180560041Y-76926709D01*
X181378194Y-76926709D01*
X181426661Y-76922891D01*
X181452383Y-76914070D01*
X181467840Y-76896519D01*
X181473876Y-76863145D01*
X181472533Y-76833042D01*
X181468442Y-76813930D01*
X181572306Y-76789323D01*
X181580488Y-76829867D01*
X181583907Y-76878654D01*
G37*
G36*
X180814054Y-76401465D02*
G01*
X180919567Y-76401465D01*
X180919567Y-76796161D01*
X180814054Y-76796161D01*
X180814054Y-76401465D01*
G37*
G36*
X180632337Y-76680879D02*
G01*
X180632337Y-76556437D01*
X181379476Y-76556437D01*
X181426178Y-76550610D01*
X181454214Y-76535921D01*
X181466573Y-76520520D01*
X181474711Y-76498485D01*
X181477784Y-76467472D01*
X181475097Y-76438224D01*
X181469602Y-76405495D01*
X181574077Y-76380277D01*
X181584335Y-76423569D01*
X181587815Y-76471624D01*
X181581399Y-76535538D01*
X181563644Y-76585888D01*
X181535547Y-76625680D01*
X181497386Y-76655604D01*
X181449660Y-76674213D01*
X181389551Y-76680879D01*
X180632337Y-76680879D01*
G37*
G36*
X181580000Y-76243196D02*
G01*
X180814054Y-76243196D01*
X180814054Y-76118754D01*
X181580000Y-76118754D01*
X181580000Y-76243196D01*
G37*
G36*
X180692909Y-76180975D02*
G01*
X180686884Y-76213509D01*
X180668790Y-76241303D01*
X180642076Y-76260368D01*
X180610844Y-76266643D01*
X180579057Y-76260319D01*
X180552592Y-76241303D01*
X180534736Y-76213532D01*
X180528778Y-76180975D01*
X180534768Y-76147849D01*
X180552592Y-76120036D01*
X180579057Y-76101020D01*
X180610844Y-76094696D01*
X180642076Y-76100971D01*
X180668790Y-76120036D01*
X180686853Y-76147873D01*
X180692909Y-76180975D01*
G37*
G36*
X181583907Y-75731690D02*
G01*
X181578119Y-75787545D01*
X181562366Y-75829639D01*
X181537745Y-75861261D01*
X181504529Y-75884304D01*
X181462423Y-75898903D01*
X181408907Y-75904187D01*
X180560041Y-75904187D01*
X180560041Y-75779745D01*
X181378194Y-75779745D01*
X181426661Y-75775927D01*
X181452383Y-75767105D01*
X181467840Y-75749555D01*
X181473876Y-75716181D01*
X181472533Y-75686078D01*
X181468442Y-75666966D01*
X181572306Y-75642358D01*
X181580488Y-75682903D01*
X181583907Y-75731690D01*
G37*
G36*
X181581526Y-75071135D02*
G01*
X181476563Y-75071135D01*
X181476563Y-75079317D01*
X181502864Y-75095427D01*
X181532189Y-75121022D01*
X181557885Y-75152977D01*
X181580183Y-75195394D01*
X181594361Y-75244020D01*
X181599539Y-75306036D01*
X181592535Y-75375926D01*
X181572245Y-75437438D01*
X181551018Y-75474383D01*
X181524493Y-75505487D01*
X181492316Y-75531350D01*
X181455772Y-75550275D01*
X181413571Y-75562030D01*
X181364455Y-75566154D01*
X181321414Y-75562954D01*
X181286395Y-75554083D01*
X181257904Y-75540265D01*
X181221302Y-75510032D01*
X181193302Y-75470961D01*
X181172912Y-75425813D01*
X181158131Y-75375034D01*
X181139691Y-75269094D01*
X181126074Y-75157841D01*
X181118895Y-75117856D01*
X181109649Y-75093972D01*
X181094335Y-75078590D01*
X181069959Y-75073150D01*
X181199164Y-75073150D01*
X181206766Y-75083419D01*
X181215223Y-75105940D01*
X181227801Y-75163459D01*
X181237021Y-75226168D01*
X181242822Y-75274162D01*
X181250330Y-75317455D01*
X181261568Y-75356960D01*
X181278304Y-75392232D01*
X181300403Y-75418571D01*
X181329401Y-75435566D01*
X181369584Y-75441713D01*
X181406543Y-75436383D01*
X181435652Y-75421257D01*
X181458680Y-75397495D01*
X181475891Y-75365387D01*
X181485944Y-75328360D01*
X181489508Y-75284359D01*
X181486304Y-75239575D01*
X181477264Y-75201566D01*
X181462946Y-75169199D01*
X181431977Y-75127394D01*
X181393825Y-75097697D01*
X181349939Y-75079199D01*
X181304799Y-75073150D01*
X181199164Y-75073150D01*
X181069959Y-75073150D01*
X181065868Y-75073150D01*
X181020498Y-75077869D01*
X180984963Y-75090919D01*
X180955822Y-75112879D01*
X180934038Y-75144042D01*
X180921054Y-75182216D01*
X180916270Y-75232580D01*
X180920807Y-75284682D01*
X180933306Y-75325942D01*
X180952923Y-75361805D01*
X180975865Y-75388956D01*
X181002316Y-75410566D01*
X181028072Y-75425348D01*
X180989176Y-75544173D01*
X180944361Y-75521488D01*
X180908041Y-75495019D01*
X180879084Y-75464794D01*
X180845056Y-75412083D01*
X180822786Y-75354579D01*
X180810316Y-75294284D01*
X180806238Y-75235511D01*
X180808401Y-75196028D01*
X180815519Y-75148255D01*
X180829147Y-75100520D01*
X180852156Y-75053794D01*
X180885385Y-75012883D01*
X180933306Y-74978506D01*
X180970363Y-74962806D01*
X181017421Y-74952490D01*
X181076798Y-74948709D01*
X181581526Y-74948709D01*
X181581526Y-75071135D01*
G37*
G36*
X181121556Y-74609333D02*
G01*
X181580000Y-74609333D01*
X181580000Y-74733775D01*
X180817962Y-74733775D01*
X180817962Y-74614096D01*
X181001632Y-74614096D01*
X181001632Y-74630704D01*
X180933935Y-74602140D01*
X180884913Y-74568814D01*
X180850812Y-74531114D01*
X180826320Y-74486184D01*
X180811394Y-74436067D01*
X180806238Y-74379501D01*
X180809972Y-74328775D01*
X180820706Y-74283929D01*
X180838051Y-74244007D01*
X180862518Y-74208393D01*
X180894108Y-74178293D01*
X180933733Y-74153332D01*
X180977510Y-74136017D01*
X181030543Y-74124861D01*
X181094689Y-74120847D01*
X181580000Y-74120847D01*
X181580000Y-74245289D01*
X181104459Y-74245289D01*
X181047354Y-74250936D01*
X181002164Y-74266578D01*
X180966278Y-74291329D01*
X180938974Y-74324918D01*
X180922215Y-74366076D01*
X180916270Y-74417053D01*
X180922405Y-74469463D01*
X180940266Y-74515300D01*
X180969462Y-74554085D01*
X181010059Y-74584115D01*
X181059217Y-74602657D01*
X181121556Y-74609333D01*
G37*
G36*
X181587815Y-73815361D02*
G01*
X181581096Y-73850676D01*
X181560949Y-73880390D01*
X181531234Y-73900537D01*
X181495919Y-73907257D01*
X181460667Y-73900538D01*
X181431011Y-73880390D01*
X181410864Y-73850676D01*
X181404145Y-73815361D01*
X181410863Y-73780108D01*
X181431011Y-73750453D01*
X181460667Y-73730305D01*
X181495919Y-73723586D01*
X181531234Y-73730306D01*
X181560949Y-73750453D01*
X181581097Y-73780108D01*
X181587815Y-73815361D01*
G37*
G36*
X181580000Y-72984996D02*
G01*
X181460992Y-72984996D01*
X181460992Y-72997941D01*
X181513932Y-73034516D01*
X181543126Y-73062745D01*
X181570657Y-73102965D01*
X181583841Y-73133402D01*
X181592475Y-73171863D01*
X181595631Y-73220202D01*
X181590061Y-73282105D01*
X181573840Y-73337785D01*
X181547088Y-73388485D01*
X181510876Y-73433096D01*
X181465515Y-73471112D01*
X181409762Y-73502791D01*
X181349206Y-73524943D01*
X181279548Y-73538906D01*
X181199225Y-73543824D01*
X181119418Y-73538869D01*
X181050122Y-73524790D01*
X180989787Y-73502424D01*
X180934264Y-73470554D01*
X180889256Y-73432436D01*
X180853499Y-73387814D01*
X180827133Y-73337154D01*
X180811128Y-73281470D01*
X180805628Y-73219530D01*
X180806736Y-73202128D01*
X180915659Y-73202128D01*
X180920120Y-73249285D01*
X180932796Y-73289120D01*
X180953272Y-73323089D01*
X180980796Y-73352180D01*
X181014332Y-73376242D01*
X181054755Y-73395385D01*
X181121146Y-73413156D01*
X181197943Y-73419382D01*
X181275445Y-73413097D01*
X181343145Y-73395080D01*
X181384476Y-73375671D01*
X181418800Y-73351358D01*
X181447009Y-73322051D01*
X181468120Y-73287810D01*
X181481074Y-73248285D01*
X181485600Y-73202128D01*
X181481304Y-73156751D01*
X181469026Y-73117900D01*
X181449085Y-73084281D01*
X181422182Y-73055428D01*
X181388695Y-73031226D01*
X181347602Y-73011618D01*
X181279618Y-72993432D01*
X181197943Y-72986950D01*
X181116414Y-72993395D01*
X181049931Y-73011313D01*
X181010016Y-73030661D01*
X180977427Y-73054726D01*
X180951196Y-73083609D01*
X180931844Y-73117174D01*
X180919866Y-73156238D01*
X180915659Y-73202128D01*
X180806736Y-73202128D01*
X180808767Y-73170233D01*
X180817301Y-73131484D01*
X180830235Y-73101256D01*
X180857372Y-73061436D01*
X180885983Y-73033845D01*
X180937519Y-72997941D01*
X180937519Y-72988293D01*
X180560041Y-72988293D01*
X180560041Y-72865806D01*
X181580000Y-72865806D01*
X181580000Y-72984996D01*
G37*
G36*
X181595631Y-72329204D02*
G01*
X181589831Y-72401583D01*
X181573225Y-72464668D01*
X181546416Y-72520080D01*
X181509455Y-72569285D01*
X181464003Y-72610300D01*
X181409091Y-72643667D01*
X181348869Y-72667207D01*
X181280743Y-72681890D01*
X181203316Y-72687020D01*
X181125919Y-72682029D01*
X181057350Y-72667708D01*
X180996320Y-72644705D01*
X180940259Y-72612048D01*
X180893922Y-72572227D01*
X180856247Y-72524842D01*
X180828485Y-72471143D01*
X180811503Y-72411174D01*
X180805628Y-72343492D01*
X180810648Y-72283358D01*
X180825839Y-72223691D01*
X180852011Y-72167672D01*
X180890929Y-72116468D01*
X180922994Y-72087331D01*
X180962061Y-72061694D01*
X181009143Y-72039654D01*
X181058820Y-72024365D01*
X181118109Y-72014494D01*
X181188661Y-72010956D01*
X181240013Y-72010956D01*
X181240013Y-72603611D01*
X181134501Y-72603611D01*
X181134501Y-72077634D01*
X181173396Y-72135397D01*
X181101065Y-72141540D01*
X181040101Y-72158906D01*
X181003389Y-72177485D01*
X180973212Y-72200694D01*
X180948754Y-72228698D01*
X180930788Y-72261074D01*
X180919603Y-72299026D01*
X180915659Y-72343859D01*
X180919620Y-72388684D01*
X180930980Y-72427617D01*
X180949426Y-72461767D01*
X180988207Y-72504968D01*
X181037353Y-72536688D01*
X181093258Y-72556052D01*
X181153613Y-72562578D01*
X181222489Y-72562578D01*
X181278238Y-72559026D01*
X181325631Y-72549021D01*
X181365982Y-72533269D01*
X181402619Y-72510724D01*
X181432107Y-72483474D01*
X181455252Y-72451203D01*
X181471850Y-72414891D01*
X181482062Y-72374408D01*
X181485600Y-72328899D01*
X181482262Y-72285224D01*
X181472716Y-72247138D01*
X181456376Y-72212700D01*
X181433698Y-72183757D01*
X181404835Y-72160518D01*
X181368913Y-72142908D01*
X181401458Y-72023351D01*
X181455421Y-72047211D01*
X181502697Y-72083435D01*
X181541221Y-72130164D01*
X181571024Y-72188276D01*
X181589238Y-72253373D01*
X181595631Y-72329204D01*
G37*
X199138217Y-32622609D02*
X199281074Y-32670228D01*
X199281074Y-32670228D02*
X199328693Y-32717847D01*
X199328693Y-32717847D02*
X199376312Y-32813085D01*
X199376312Y-32813085D02*
X199376312Y-32955942D01*
X199376312Y-32955942D02*
X199328693Y-33051180D01*
X199328693Y-33051180D02*
X199281074Y-33098800D01*
X199281074Y-33098800D02*
X199185836Y-33146419D01*
X199185836Y-33146419D02*
X198804884Y-33146419D01*
X198804884Y-33146419D02*
X198804884Y-32146419D01*
X198804884Y-32146419D02*
X199138217Y-32146419D01*
X199138217Y-32146419D02*
X199233455Y-32194038D01*
X199233455Y-32194038D02*
X199281074Y-32241657D01*
X199281074Y-32241657D02*
X199328693Y-32336895D01*
X199328693Y-32336895D02*
X199328693Y-32432133D01*
X199328693Y-32432133D02*
X199281074Y-32527371D01*
X199281074Y-32527371D02*
X199233455Y-32574990D01*
X199233455Y-32574990D02*
X199138217Y-32622609D01*
X199138217Y-32622609D02*
X198804884Y-32622609D01*
X199804884Y-32146419D02*
X199804884Y-32955942D01*
X199804884Y-32955942D02*
X199852503Y-33051180D01*
X199852503Y-33051180D02*
X199900122Y-33098800D01*
X199900122Y-33098800D02*
X199995360Y-33146419D01*
X199995360Y-33146419D02*
X200185836Y-33146419D01*
X200185836Y-33146419D02*
X200281074Y-33098800D01*
X200281074Y-33098800D02*
X200328693Y-33051180D01*
X200328693Y-33051180D02*
X200376312Y-32955942D01*
X200376312Y-32955942D02*
X200376312Y-32146419D01*
X200804884Y-33098800D02*
X200947741Y-33146419D01*
X200947741Y-33146419D02*
X201185836Y-33146419D01*
X201185836Y-33146419D02*
X201281074Y-33098800D01*
X201281074Y-33098800D02*
X201328693Y-33051180D01*
X201328693Y-33051180D02*
X201376312Y-32955942D01*
X201376312Y-32955942D02*
X201376312Y-32860704D01*
X201376312Y-32860704D02*
X201328693Y-32765466D01*
X201328693Y-32765466D02*
X201281074Y-32717847D01*
X201281074Y-32717847D02*
X201185836Y-32670228D01*
X201185836Y-32670228D02*
X200995360Y-32622609D01*
X200995360Y-32622609D02*
X200900122Y-32574990D01*
X200900122Y-32574990D02*
X200852503Y-32527371D01*
X200852503Y-32527371D02*
X200804884Y-32432133D01*
X200804884Y-32432133D02*
X200804884Y-32336895D01*
X200804884Y-32336895D02*
X200852503Y-32241657D01*
X200852503Y-32241657D02*
X200900122Y-32194038D01*
X200900122Y-32194038D02*
X200995360Y-32146419D01*
X200995360Y-32146419D02*
X201233455Y-32146419D01*
X201233455Y-32146419D02*
X201376312Y-32194038D01*
X203138217Y-33051180D02*
X203090598Y-33098800D01*
X203090598Y-33098800D02*
X202947741Y-33146419D01*
X202947741Y-33146419D02*
X202852503Y-33146419D01*
X202852503Y-33146419D02*
X202709646Y-33098800D01*
X202709646Y-33098800D02*
X202614408Y-33003561D01*
X202614408Y-33003561D02*
X202566789Y-32908323D01*
X202566789Y-32908323D02*
X202519170Y-32717847D01*
X202519170Y-32717847D02*
X202519170Y-32574990D01*
X202519170Y-32574990D02*
X202566789Y-32384514D01*
X202566789Y-32384514D02*
X202614408Y-32289276D01*
X202614408Y-32289276D02*
X202709646Y-32194038D01*
X202709646Y-32194038D02*
X202852503Y-32146419D01*
X202852503Y-32146419D02*
X202947741Y-32146419D01*
X202947741Y-32146419D02*
X203090598Y-32194038D01*
X203090598Y-32194038D02*
X203138217Y-32241657D01*
G36*
X210904000Y-73729156D02*
G01*
X210904000Y-73975597D01*
X210790671Y-73975597D01*
X210790671Y-73736789D01*
X210784854Y-73654645D01*
X210768608Y-73586503D01*
X210743166Y-73529915D01*
X210706919Y-73479889D01*
X210661791Y-73439279D01*
X210606695Y-73407366D01*
X210546117Y-73385574D01*
X210475769Y-73371767D01*
X210393959Y-73366883D01*
X210313044Y-73371731D01*
X210243486Y-73385433D01*
X210183605Y-73407061D01*
X210128963Y-73438548D01*
X210084292Y-73478140D01*
X210048478Y-73526435D01*
X210023105Y-73581192D01*
X210007012Y-73646438D01*
X210001278Y-73724393D01*
X210001278Y-73981032D01*
X209887949Y-73981032D01*
X209887949Y-73716089D01*
X209892071Y-73641290D01*
X209903905Y-73574533D01*
X209922862Y-73514788D01*
X209948644Y-73461161D01*
X209982225Y-73411428D01*
X210022137Y-73368084D01*
X210068801Y-73330651D01*
X210122911Y-73298922D01*
X210200529Y-73268419D01*
X210290152Y-73249211D01*
X210393959Y-73242441D01*
X210498659Y-73249260D01*
X210588962Y-73268597D01*
X210667084Y-73299289D01*
X210721340Y-73331287D01*
X210768286Y-73369353D01*
X210808588Y-73413745D01*
X210842633Y-73465008D01*
X210868623Y-73520093D01*
X210887799Y-73581812D01*
X210899807Y-73651130D01*
X210904000Y-73729156D01*
G37*
G36*
X209887949Y-73917895D02*
G01*
X210904000Y-73917895D01*
X210904000Y-74046855D01*
X209887949Y-74046855D01*
X209887949Y-73917895D01*
G37*
X206250217Y-32622609D02*
X206393074Y-32670228D01*
X206393074Y-32670228D02*
X206440693Y-32717847D01*
X206440693Y-32717847D02*
X206488312Y-32813085D01*
X206488312Y-32813085D02*
X206488312Y-32955942D01*
X206488312Y-32955942D02*
X206440693Y-33051180D01*
X206440693Y-33051180D02*
X206393074Y-33098800D01*
X206393074Y-33098800D02*
X206297836Y-33146419D01*
X206297836Y-33146419D02*
X205916884Y-33146419D01*
X205916884Y-33146419D02*
X205916884Y-32146419D01*
X205916884Y-32146419D02*
X206250217Y-32146419D01*
X206250217Y-32146419D02*
X206345455Y-32194038D01*
X206345455Y-32194038D02*
X206393074Y-32241657D01*
X206393074Y-32241657D02*
X206440693Y-32336895D01*
X206440693Y-32336895D02*
X206440693Y-32432133D01*
X206440693Y-32432133D02*
X206393074Y-32527371D01*
X206393074Y-32527371D02*
X206345455Y-32574990D01*
X206345455Y-32574990D02*
X206250217Y-32622609D01*
X206250217Y-32622609D02*
X205916884Y-32622609D01*
X206916884Y-32146419D02*
X206916884Y-32955942D01*
X206916884Y-32955942D02*
X206964503Y-33051180D01*
X206964503Y-33051180D02*
X207012122Y-33098800D01*
X207012122Y-33098800D02*
X207107360Y-33146419D01*
X207107360Y-33146419D02*
X207297836Y-33146419D01*
X207297836Y-33146419D02*
X207393074Y-33098800D01*
X207393074Y-33098800D02*
X207440693Y-33051180D01*
X207440693Y-33051180D02*
X207488312Y-32955942D01*
X207488312Y-32955942D02*
X207488312Y-32146419D01*
X207916884Y-33098800D02*
X208059741Y-33146419D01*
X208059741Y-33146419D02*
X208297836Y-33146419D01*
X208297836Y-33146419D02*
X208393074Y-33098800D01*
X208393074Y-33098800D02*
X208440693Y-33051180D01*
X208440693Y-33051180D02*
X208488312Y-32955942D01*
X208488312Y-32955942D02*
X208488312Y-32860704D01*
X208488312Y-32860704D02*
X208440693Y-32765466D01*
X208440693Y-32765466D02*
X208393074Y-32717847D01*
X208393074Y-32717847D02*
X208297836Y-32670228D01*
X208297836Y-32670228D02*
X208107360Y-32622609D01*
X208107360Y-32622609D02*
X208012122Y-32574990D01*
X208012122Y-32574990D02*
X207964503Y-32527371D01*
X207964503Y-32527371D02*
X207916884Y-32432133D01*
X207916884Y-32432133D02*
X207916884Y-32336895D01*
X207916884Y-32336895D02*
X207964503Y-32241657D01*
X207964503Y-32241657D02*
X208012122Y-32194038D01*
X208012122Y-32194038D02*
X208107360Y-32146419D01*
X208107360Y-32146419D02*
X208345455Y-32146419D01*
X208345455Y-32146419D02*
X208488312Y-32194038D01*
X209678789Y-33146419D02*
X209678789Y-32146419D01*
X209678789Y-32146419D02*
X209916884Y-32146419D01*
X209916884Y-32146419D02*
X210059741Y-32194038D01*
X210059741Y-32194038D02*
X210154979Y-32289276D01*
X210154979Y-32289276D02*
X210202598Y-32384514D01*
X210202598Y-32384514D02*
X210250217Y-32574990D01*
X210250217Y-32574990D02*
X210250217Y-32717847D01*
X210250217Y-32717847D02*
X210202598Y-32908323D01*
X210202598Y-32908323D02*
X210154979Y-33003561D01*
X210154979Y-33003561D02*
X210059741Y-33098800D01*
X210059741Y-33098800D02*
X209916884Y-33146419D01*
X209916884Y-33146419D02*
X209678789Y-33146419D01*
G36*
X203549723Y-49505123D02*
G01*
X203542456Y-49590123D01*
X203521279Y-49667008D01*
X203486403Y-49737337D01*
X203438821Y-49799782D01*
X203379105Y-49853052D01*
X203305725Y-49897621D01*
X203225452Y-49929151D01*
X203133178Y-49948964D01*
X203026738Y-49955934D01*
X202919842Y-49948953D01*
X202827380Y-49929130D01*
X202747141Y-49897621D01*
X202673738Y-49853066D01*
X202613894Y-49799797D01*
X202566096Y-49737337D01*
X202531010Y-49666986D01*
X202509715Y-49590104D01*
X202502410Y-49505123D01*
X202508164Y-49429621D01*
X202525063Y-49359554D01*
X202553028Y-49294240D01*
X202591192Y-49236456D01*
X202639102Y-49186566D01*
X202696644Y-49145414D01*
X202761908Y-49114950D01*
X202837389Y-49095283D01*
X202837389Y-49225159D01*
X202787364Y-49240215D01*
X202745187Y-49262406D01*
X202708562Y-49291702D01*
X202678204Y-49326703D01*
X202654336Y-49366482D01*
X202637232Y-49410418D01*
X202627009Y-49456989D01*
X202623554Y-49506100D01*
X202628831Y-49565809D01*
X202644314Y-49620600D01*
X202670021Y-49671513D01*
X202705040Y-49716495D01*
X202750012Y-49755396D01*
X202806370Y-49788444D01*
X202867731Y-49811503D01*
X202940481Y-49826237D01*
X203026738Y-49831492D01*
X203112472Y-49826206D01*
X203185017Y-49811361D01*
X203246435Y-49788078D01*
X203302745Y-49754841D01*
X203347590Y-49715837D01*
X203382417Y-49670841D01*
X203407974Y-49619955D01*
X203423347Y-49565379D01*
X203428579Y-49506100D01*
X203425048Y-49456999D01*
X203414596Y-49410418D01*
X203397245Y-49366446D01*
X203373563Y-49326703D01*
X203343395Y-49291738D01*
X203306579Y-49262406D01*
X203264228Y-49240176D01*
X203214683Y-49225159D01*
X203214683Y-49095283D01*
X203289523Y-49114376D01*
X203354451Y-49144681D01*
X203411814Y-49185843D01*
X203459964Y-49235784D01*
X203498458Y-49293618D01*
X203526764Y-49358882D01*
X203543881Y-49429048D01*
X203549723Y-49505123D01*
G37*
G36*
X203803723Y-73635123D02*
G01*
X203796456Y-73720123D01*
X203775279Y-73797008D01*
X203740403Y-73867337D01*
X203692821Y-73929782D01*
X203633105Y-73983052D01*
X203559725Y-74027621D01*
X203479452Y-74059151D01*
X203387178Y-74078964D01*
X203280738Y-74085934D01*
X203173842Y-74078953D01*
X203081380Y-74059130D01*
X203001141Y-74027621D01*
X202927738Y-73983066D01*
X202867894Y-73929797D01*
X202820096Y-73867337D01*
X202785010Y-73796986D01*
X202763715Y-73720104D01*
X202756410Y-73635123D01*
X202762164Y-73559621D01*
X202779063Y-73489554D01*
X202807028Y-73424240D01*
X202845192Y-73366456D01*
X202893102Y-73316566D01*
X202950644Y-73275414D01*
X203015908Y-73244950D01*
X203091389Y-73225283D01*
X203091389Y-73355159D01*
X203041364Y-73370215D01*
X202999187Y-73392406D01*
X202962562Y-73421702D01*
X202932204Y-73456703D01*
X202908336Y-73496482D01*
X202891232Y-73540418D01*
X202881009Y-73586989D01*
X202877554Y-73636100D01*
X202882831Y-73695809D01*
X202898314Y-73750600D01*
X202924021Y-73801513D01*
X202959040Y-73846495D01*
X203004012Y-73885396D01*
X203060370Y-73918444D01*
X203121731Y-73941503D01*
X203194481Y-73956237D01*
X203280738Y-73961492D01*
X203366472Y-73956206D01*
X203439017Y-73941361D01*
X203500435Y-73918078D01*
X203556745Y-73884841D01*
X203601590Y-73845837D01*
X203636417Y-73800841D01*
X203661974Y-73749955D01*
X203677347Y-73695379D01*
X203682579Y-73636100D01*
X203679048Y-73586999D01*
X203668596Y-73540418D01*
X203651245Y-73496446D01*
X203627563Y-73456703D01*
X203597395Y-73421738D01*
X203560579Y-73392406D01*
X203518228Y-73370176D01*
X203468683Y-73355159D01*
X203468683Y-73225283D01*
X203543523Y-73244376D01*
X203608451Y-73274681D01*
X203665814Y-73315843D01*
X203713964Y-73365784D01*
X203752458Y-73423618D01*
X203780764Y-73488882D01*
X203797881Y-73559048D01*
X203803723Y-73635123D01*
G37*
G36*
X196204945Y-49206356D02*
G01*
X196250676Y-49218141D01*
X196292887Y-49237555D01*
X196330146Y-49264717D01*
X196362503Y-49301062D01*
X196390157Y-49348075D01*
X196409063Y-49399558D01*
X196421472Y-49463907D01*
X196426000Y-49543835D01*
X196426000Y-49916855D01*
X195409949Y-49916855D01*
X195409949Y-49558245D01*
X195523278Y-49558245D01*
X195523278Y-49787895D01*
X195854838Y-49787895D01*
X195854838Y-49562459D01*
X195852554Y-49540477D01*
X195964869Y-49540477D01*
X195964869Y-49787895D01*
X196312671Y-49787895D01*
X196312671Y-49547316D01*
X196306441Y-49468562D01*
X196290308Y-49414013D01*
X196266814Y-49377262D01*
X196233529Y-49348957D01*
X196196545Y-49332396D01*
X196154463Y-49326764D01*
X196105116Y-49333326D01*
X196060063Y-49352898D01*
X196021502Y-49384096D01*
X195990881Y-49426782D01*
X195971692Y-49477702D01*
X195964869Y-49540477D01*
X195852554Y-49540477D01*
X195849325Y-49509395D01*
X195833344Y-49462808D01*
X195807231Y-49422527D01*
X195772650Y-49391977D01*
X195730735Y-49372557D01*
X195680876Y-49365843D01*
X195638685Y-49371089D01*
X195601848Y-49386405D01*
X195569012Y-49412249D01*
X195545043Y-49446125D01*
X195529221Y-49493327D01*
X195523278Y-49558245D01*
X195409949Y-49558245D01*
X195409949Y-49555192D01*
X195414463Y-49484586D01*
X195426987Y-49426497D01*
X195446403Y-49378788D01*
X195474071Y-49335509D01*
X195506420Y-49301400D01*
X195543733Y-49275351D01*
X195585493Y-49256608D01*
X195630295Y-49245268D01*
X195678861Y-49241401D01*
X195740615Y-49247690D01*
X195786816Y-49264727D01*
X195825247Y-49291899D01*
X195854532Y-49325971D01*
X195876438Y-49365517D01*
X195891963Y-49408464D01*
X195901549Y-49408464D01*
X195910765Y-49361697D01*
X195934339Y-49313209D01*
X195970030Y-49270327D01*
X196019702Y-49234074D01*
X196057776Y-49216942D01*
X196102396Y-49206145D01*
X196154890Y-49202323D01*
X196204945Y-49206356D01*
G37*
X192026217Y-32622609D02*
X192169074Y-32670228D01*
X192169074Y-32670228D02*
X192216693Y-32717847D01*
X192216693Y-32717847D02*
X192264312Y-32813085D01*
X192264312Y-32813085D02*
X192264312Y-32955942D01*
X192264312Y-32955942D02*
X192216693Y-33051180D01*
X192216693Y-33051180D02*
X192169074Y-33098800D01*
X192169074Y-33098800D02*
X192073836Y-33146419D01*
X192073836Y-33146419D02*
X191692884Y-33146419D01*
X191692884Y-33146419D02*
X191692884Y-32146419D01*
X191692884Y-32146419D02*
X192026217Y-32146419D01*
X192026217Y-32146419D02*
X192121455Y-32194038D01*
X192121455Y-32194038D02*
X192169074Y-32241657D01*
X192169074Y-32241657D02*
X192216693Y-32336895D01*
X192216693Y-32336895D02*
X192216693Y-32432133D01*
X192216693Y-32432133D02*
X192169074Y-32527371D01*
X192169074Y-32527371D02*
X192121455Y-32574990D01*
X192121455Y-32574990D02*
X192026217Y-32622609D01*
X192026217Y-32622609D02*
X191692884Y-32622609D01*
X192692884Y-32146419D02*
X192692884Y-32955942D01*
X192692884Y-32955942D02*
X192740503Y-33051180D01*
X192740503Y-33051180D02*
X192788122Y-33098800D01*
X192788122Y-33098800D02*
X192883360Y-33146419D01*
X192883360Y-33146419D02*
X193073836Y-33146419D01*
X193073836Y-33146419D02*
X193169074Y-33098800D01*
X193169074Y-33098800D02*
X193216693Y-33051180D01*
X193216693Y-33051180D02*
X193264312Y-32955942D01*
X193264312Y-32955942D02*
X193264312Y-32146419D01*
X193692884Y-33098800D02*
X193835741Y-33146419D01*
X193835741Y-33146419D02*
X194073836Y-33146419D01*
X194073836Y-33146419D02*
X194169074Y-33098800D01*
X194169074Y-33098800D02*
X194216693Y-33051180D01*
X194216693Y-33051180D02*
X194264312Y-32955942D01*
X194264312Y-32955942D02*
X194264312Y-32860704D01*
X194264312Y-32860704D02*
X194216693Y-32765466D01*
X194216693Y-32765466D02*
X194169074Y-32717847D01*
X194169074Y-32717847D02*
X194073836Y-32670228D01*
X194073836Y-32670228D02*
X193883360Y-32622609D01*
X193883360Y-32622609D02*
X193788122Y-32574990D01*
X193788122Y-32574990D02*
X193740503Y-32527371D01*
X193740503Y-32527371D02*
X193692884Y-32432133D01*
X193692884Y-32432133D02*
X193692884Y-32336895D01*
X193692884Y-32336895D02*
X193740503Y-32241657D01*
X193740503Y-32241657D02*
X193788122Y-32194038D01*
X193788122Y-32194038D02*
X193883360Y-32146419D01*
X193883360Y-32146419D02*
X194121455Y-32146419D01*
X194121455Y-32146419D02*
X194264312Y-32194038D01*
X195788122Y-32622609D02*
X195930979Y-32670228D01*
X195930979Y-32670228D02*
X195978598Y-32717847D01*
X195978598Y-32717847D02*
X196026217Y-32813085D01*
X196026217Y-32813085D02*
X196026217Y-32955942D01*
X196026217Y-32955942D02*
X195978598Y-33051180D01*
X195978598Y-33051180D02*
X195930979Y-33098800D01*
X195930979Y-33098800D02*
X195835741Y-33146419D01*
X195835741Y-33146419D02*
X195454789Y-33146419D01*
X195454789Y-33146419D02*
X195454789Y-32146419D01*
X195454789Y-32146419D02*
X195788122Y-32146419D01*
X195788122Y-32146419D02*
X195883360Y-32194038D01*
X195883360Y-32194038D02*
X195930979Y-32241657D01*
X195930979Y-32241657D02*
X195978598Y-32336895D01*
X195978598Y-32336895D02*
X195978598Y-32432133D01*
X195978598Y-32432133D02*
X195930979Y-32527371D01*
X195930979Y-32527371D02*
X195883360Y-32574990D01*
X195883360Y-32574990D02*
X195788122Y-32622609D01*
X195788122Y-32622609D02*
X195454789Y-32622609D01*
X213098609Y-49612782D02*
X213146228Y-49469925D01*
X213146228Y-49469925D02*
X213193847Y-49422306D01*
X213193847Y-49422306D02*
X213289085Y-49374687D01*
X213289085Y-49374687D02*
X213431942Y-49374687D01*
X213431942Y-49374687D02*
X213527180Y-49422306D01*
X213527180Y-49422306D02*
X213574800Y-49469925D01*
X213574800Y-49469925D02*
X213622419Y-49565163D01*
X213622419Y-49565163D02*
X213622419Y-49946115D01*
X213622419Y-49946115D02*
X212622419Y-49946115D01*
X212622419Y-49946115D02*
X212622419Y-49612782D01*
X212622419Y-49612782D02*
X212670038Y-49517544D01*
X212670038Y-49517544D02*
X212717657Y-49469925D01*
X212717657Y-49469925D02*
X212812895Y-49422306D01*
X212812895Y-49422306D02*
X212908133Y-49422306D01*
X212908133Y-49422306D02*
X213003371Y-49469925D01*
X213003371Y-49469925D02*
X213050990Y-49517544D01*
X213050990Y-49517544D02*
X213098609Y-49612782D01*
X213098609Y-49612782D02*
X213098609Y-49946115D01*
X212622419Y-48946115D02*
X213431942Y-48946115D01*
X213431942Y-48946115D02*
X213527180Y-48898496D01*
X213527180Y-48898496D02*
X213574800Y-48850877D01*
X213574800Y-48850877D02*
X213622419Y-48755639D01*
X213622419Y-48755639D02*
X213622419Y-48565163D01*
X213622419Y-48565163D02*
X213574800Y-48469925D01*
X213574800Y-48469925D02*
X213527180Y-48422306D01*
X213527180Y-48422306D02*
X213431942Y-48374687D01*
X213431942Y-48374687D02*
X212622419Y-48374687D01*
X213574800Y-47946115D02*
X213622419Y-47803258D01*
X213622419Y-47803258D02*
X213622419Y-47565163D01*
X213622419Y-47565163D02*
X213574800Y-47469925D01*
X213574800Y-47469925D02*
X213527180Y-47422306D01*
X213527180Y-47422306D02*
X213431942Y-47374687D01*
X213431942Y-47374687D02*
X213336704Y-47374687D01*
X213336704Y-47374687D02*
X213241466Y-47422306D01*
X213241466Y-47422306D02*
X213193847Y-47469925D01*
X213193847Y-47469925D02*
X213146228Y-47565163D01*
X213146228Y-47565163D02*
X213098609Y-47755639D01*
X213098609Y-47755639D02*
X213050990Y-47850877D01*
X213050990Y-47850877D02*
X213003371Y-47898496D01*
X213003371Y-47898496D02*
X212908133Y-47946115D01*
X212908133Y-47946115D02*
X212812895Y-47946115D01*
X212812895Y-47946115D02*
X212717657Y-47898496D01*
X212717657Y-47898496D02*
X212670038Y-47850877D01*
X212670038Y-47850877D02*
X212622419Y-47755639D01*
X212622419Y-47755639D02*
X212622419Y-47517544D01*
X212622419Y-47517544D02*
X212670038Y-47374687D01*
X213622419Y-46184210D02*
X212622419Y-46184210D01*
X212622419Y-46184210D02*
X213336704Y-45850877D01*
X213336704Y-45850877D02*
X212622419Y-45517544D01*
X212622419Y-45517544D02*
X213622419Y-45517544D01*
X212622419Y-44850877D02*
X212622419Y-44660401D01*
X212622419Y-44660401D02*
X212670038Y-44565163D01*
X212670038Y-44565163D02*
X212765276Y-44469925D01*
X212765276Y-44469925D02*
X212955752Y-44422306D01*
X212955752Y-44422306D02*
X213289085Y-44422306D01*
X213289085Y-44422306D02*
X213479561Y-44469925D01*
X213479561Y-44469925D02*
X213574800Y-44565163D01*
X213574800Y-44565163D02*
X213622419Y-44660401D01*
X213622419Y-44660401D02*
X213622419Y-44850877D01*
X213622419Y-44850877D02*
X213574800Y-44946115D01*
X213574800Y-44946115D02*
X213479561Y-45041353D01*
X213479561Y-45041353D02*
X213289085Y-45088972D01*
X213289085Y-45088972D02*
X212955752Y-45088972D01*
X212955752Y-45088972D02*
X212765276Y-45041353D01*
X212765276Y-45041353D02*
X212670038Y-44946115D01*
X212670038Y-44946115D02*
X212622419Y-44850877D01*
X213622419Y-43993734D02*
X212622419Y-43993734D01*
X212622419Y-43993734D02*
X212622419Y-43755639D01*
X212622419Y-43755639D02*
X212670038Y-43612782D01*
X212670038Y-43612782D02*
X212765276Y-43517544D01*
X212765276Y-43517544D02*
X212860514Y-43469925D01*
X212860514Y-43469925D02*
X213050990Y-43422306D01*
X213050990Y-43422306D02*
X213193847Y-43422306D01*
X213193847Y-43422306D02*
X213384323Y-43469925D01*
X213384323Y-43469925D02*
X213479561Y-43517544D01*
X213479561Y-43517544D02*
X213574800Y-43612782D01*
X213574800Y-43612782D02*
X213622419Y-43755639D01*
X213622419Y-43755639D02*
X213622419Y-43993734D01*
X213098609Y-42993734D02*
X213098609Y-42660401D01*
X213622419Y-42517544D02*
X213622419Y-42993734D01*
X213622419Y-42993734D02*
X212622419Y-42993734D01*
X212622419Y-42993734D02*
X212622419Y-42517544D01*
G36*
X189060000Y-50001180D02*
G01*
X188040041Y-49631091D01*
X188040041Y-49480515D01*
X189060000Y-49105663D01*
X189060000Y-49242378D01*
X188454644Y-49458655D01*
X188314631Y-49504878D01*
X188100614Y-49568809D01*
X188100614Y-49544202D01*
X188317318Y-49608193D01*
X188454644Y-49653012D01*
X189060000Y-49863061D01*
X189060000Y-50001180D01*
G37*
G36*
X188774724Y-49815250D02*
G01*
X188661395Y-49815250D01*
X188661395Y-49291593D01*
X188774724Y-49291593D01*
X188774724Y-49815250D01*
G37*
X177148609Y-51940782D02*
X177196228Y-51797925D01*
X177196228Y-51797925D02*
X177243847Y-51750306D01*
X177243847Y-51750306D02*
X177339085Y-51702687D01*
X177339085Y-51702687D02*
X177481942Y-51702687D01*
X177481942Y-51702687D02*
X177577180Y-51750306D01*
X177577180Y-51750306D02*
X177624800Y-51797925D01*
X177624800Y-51797925D02*
X177672419Y-51893163D01*
X177672419Y-51893163D02*
X177672419Y-52274115D01*
X177672419Y-52274115D02*
X176672419Y-52274115D01*
X176672419Y-52274115D02*
X176672419Y-51940782D01*
X176672419Y-51940782D02*
X176720038Y-51845544D01*
X176720038Y-51845544D02*
X176767657Y-51797925D01*
X176767657Y-51797925D02*
X176862895Y-51750306D01*
X176862895Y-51750306D02*
X176958133Y-51750306D01*
X176958133Y-51750306D02*
X177053371Y-51797925D01*
X177053371Y-51797925D02*
X177100990Y-51845544D01*
X177100990Y-51845544D02*
X177148609Y-51940782D01*
X177148609Y-51940782D02*
X177148609Y-52274115D01*
X176672419Y-51274115D02*
X177481942Y-51274115D01*
X177481942Y-51274115D02*
X177577180Y-51226496D01*
X177577180Y-51226496D02*
X177624800Y-51178877D01*
X177624800Y-51178877D02*
X177672419Y-51083639D01*
X177672419Y-51083639D02*
X177672419Y-50893163D01*
X177672419Y-50893163D02*
X177624800Y-50797925D01*
X177624800Y-50797925D02*
X177577180Y-50750306D01*
X177577180Y-50750306D02*
X177481942Y-50702687D01*
X177481942Y-50702687D02*
X176672419Y-50702687D01*
X177624800Y-50274115D02*
X177672419Y-50131258D01*
X177672419Y-50131258D02*
X177672419Y-49893163D01*
X177672419Y-49893163D02*
X177624800Y-49797925D01*
X177624800Y-49797925D02*
X177577180Y-49750306D01*
X177577180Y-49750306D02*
X177481942Y-49702687D01*
X177481942Y-49702687D02*
X177386704Y-49702687D01*
X177386704Y-49702687D02*
X177291466Y-49750306D01*
X177291466Y-49750306D02*
X177243847Y-49797925D01*
X177243847Y-49797925D02*
X177196228Y-49893163D01*
X177196228Y-49893163D02*
X177148609Y-50083639D01*
X177148609Y-50083639D02*
X177100990Y-50178877D01*
X177100990Y-50178877D02*
X177053371Y-50226496D01*
X177053371Y-50226496D02*
X176958133Y-50274115D01*
X176958133Y-50274115D02*
X176862895Y-50274115D01*
X176862895Y-50274115D02*
X176767657Y-50226496D01*
X176767657Y-50226496D02*
X176720038Y-50178877D01*
X176720038Y-50178877D02*
X176672419Y-50083639D01*
X176672419Y-50083639D02*
X176672419Y-49845544D01*
X176672419Y-49845544D02*
X176720038Y-49702687D01*
X177148609Y-48512210D02*
X177148609Y-48178877D01*
X177672419Y-48036020D02*
X177672419Y-48512210D01*
X177672419Y-48512210D02*
X176672419Y-48512210D01*
X176672419Y-48512210D02*
X176672419Y-48036020D01*
X177672419Y-47607448D02*
X176672419Y-47607448D01*
X176672419Y-47607448D02*
X177672419Y-47036020D01*
X177672419Y-47036020D02*
X176672419Y-47036020D01*
X197803884Y-77372419D02*
X197803884Y-78181942D01*
X197803884Y-78181942D02*
X197851503Y-78277180D01*
X197851503Y-78277180D02*
X197899122Y-78324800D01*
X197899122Y-78324800D02*
X197994360Y-78372419D01*
X197994360Y-78372419D02*
X198184836Y-78372419D01*
X198184836Y-78372419D02*
X198280074Y-78324800D01*
X198280074Y-78324800D02*
X198327693Y-78277180D01*
X198327693Y-78277180D02*
X198375312Y-78181942D01*
X198375312Y-78181942D02*
X198375312Y-77372419D01*
X198803884Y-78324800D02*
X198946741Y-78372419D01*
X198946741Y-78372419D02*
X199184836Y-78372419D01*
X199184836Y-78372419D02*
X199280074Y-78324800D01*
X199280074Y-78324800D02*
X199327693Y-78277180D01*
X199327693Y-78277180D02*
X199375312Y-78181942D01*
X199375312Y-78181942D02*
X199375312Y-78086704D01*
X199375312Y-78086704D02*
X199327693Y-77991466D01*
X199327693Y-77991466D02*
X199280074Y-77943847D01*
X199280074Y-77943847D02*
X199184836Y-77896228D01*
X199184836Y-77896228D02*
X198994360Y-77848609D01*
X198994360Y-77848609D02*
X198899122Y-77800990D01*
X198899122Y-77800990D02*
X198851503Y-77753371D01*
X198851503Y-77753371D02*
X198803884Y-77658133D01*
X198803884Y-77658133D02*
X198803884Y-77562895D01*
X198803884Y-77562895D02*
X198851503Y-77467657D01*
X198851503Y-77467657D02*
X198899122Y-77420038D01*
X198899122Y-77420038D02*
X198994360Y-77372419D01*
X198994360Y-77372419D02*
X199232455Y-77372419D01*
X199232455Y-77372419D02*
X199375312Y-77420038D01*
X200137217Y-77848609D02*
X200280074Y-77896228D01*
X200280074Y-77896228D02*
X200327693Y-77943847D01*
X200327693Y-77943847D02*
X200375312Y-78039085D01*
X200375312Y-78039085D02*
X200375312Y-78181942D01*
X200375312Y-78181942D02*
X200327693Y-78277180D01*
X200327693Y-78277180D02*
X200280074Y-78324800D01*
X200280074Y-78324800D02*
X200184836Y-78372419D01*
X200184836Y-78372419D02*
X199803884Y-78372419D01*
X199803884Y-78372419D02*
X199803884Y-77372419D01*
X199803884Y-77372419D02*
X200137217Y-77372419D01*
X200137217Y-77372419D02*
X200232455Y-77420038D01*
X200232455Y-77420038D02*
X200280074Y-77467657D01*
X200280074Y-77467657D02*
X200327693Y-77562895D01*
X200327693Y-77562895D02*
X200327693Y-77658133D01*
X200327693Y-77658133D02*
X200280074Y-77753371D01*
X200280074Y-77753371D02*
X200232455Y-77800990D01*
X200232455Y-77800990D02*
X200137217Y-77848609D01*
X200137217Y-77848609D02*
X199803884Y-77848609D01*
X178704419Y-53861639D02*
X178704419Y-53766401D01*
X178704419Y-53766401D02*
X178752038Y-53671163D01*
X178752038Y-53671163D02*
X178799657Y-53623544D01*
X178799657Y-53623544D02*
X178894895Y-53575925D01*
X178894895Y-53575925D02*
X179085371Y-53528306D01*
X179085371Y-53528306D02*
X179323466Y-53528306D01*
X179323466Y-53528306D02*
X179513942Y-53575925D01*
X179513942Y-53575925D02*
X179609180Y-53623544D01*
X179609180Y-53623544D02*
X179656800Y-53671163D01*
X179656800Y-53671163D02*
X179704419Y-53766401D01*
X179704419Y-53766401D02*
X179704419Y-53861639D01*
X179704419Y-53861639D02*
X179656800Y-53956877D01*
X179656800Y-53956877D02*
X179609180Y-54004496D01*
X179609180Y-54004496D02*
X179513942Y-54052115D01*
X179513942Y-54052115D02*
X179323466Y-54099734D01*
X179323466Y-54099734D02*
X179085371Y-54099734D01*
X179085371Y-54099734D02*
X178894895Y-54052115D01*
X178894895Y-54052115D02*
X178799657Y-54004496D01*
X178799657Y-54004496D02*
X178752038Y-53956877D01*
X178752038Y-53956877D02*
X178704419Y-53861639D01*
X184914217Y-32622609D02*
X185057074Y-32670228D01*
X185057074Y-32670228D02*
X185104693Y-32717847D01*
X185104693Y-32717847D02*
X185152312Y-32813085D01*
X185152312Y-32813085D02*
X185152312Y-32955942D01*
X185152312Y-32955942D02*
X185104693Y-33051180D01*
X185104693Y-33051180D02*
X185057074Y-33098800D01*
X185057074Y-33098800D02*
X184961836Y-33146419D01*
X184961836Y-33146419D02*
X184580884Y-33146419D01*
X184580884Y-33146419D02*
X184580884Y-32146419D01*
X184580884Y-32146419D02*
X184914217Y-32146419D01*
X184914217Y-32146419D02*
X185009455Y-32194038D01*
X185009455Y-32194038D02*
X185057074Y-32241657D01*
X185057074Y-32241657D02*
X185104693Y-32336895D01*
X185104693Y-32336895D02*
X185104693Y-32432133D01*
X185104693Y-32432133D02*
X185057074Y-32527371D01*
X185057074Y-32527371D02*
X185009455Y-32574990D01*
X185009455Y-32574990D02*
X184914217Y-32622609D01*
X184914217Y-32622609D02*
X184580884Y-32622609D01*
X185580884Y-32146419D02*
X185580884Y-32955942D01*
X185580884Y-32955942D02*
X185628503Y-33051180D01*
X185628503Y-33051180D02*
X185676122Y-33098800D01*
X185676122Y-33098800D02*
X185771360Y-33146419D01*
X185771360Y-33146419D02*
X185961836Y-33146419D01*
X185961836Y-33146419D02*
X186057074Y-33098800D01*
X186057074Y-33098800D02*
X186104693Y-33051180D01*
X186104693Y-33051180D02*
X186152312Y-32955942D01*
X186152312Y-32955942D02*
X186152312Y-32146419D01*
X186580884Y-33098800D02*
X186723741Y-33146419D01*
X186723741Y-33146419D02*
X186961836Y-33146419D01*
X186961836Y-33146419D02*
X187057074Y-33098800D01*
X187057074Y-33098800D02*
X187104693Y-33051180D01*
X187104693Y-33051180D02*
X187152312Y-32955942D01*
X187152312Y-32955942D02*
X187152312Y-32860704D01*
X187152312Y-32860704D02*
X187104693Y-32765466D01*
X187104693Y-32765466D02*
X187057074Y-32717847D01*
X187057074Y-32717847D02*
X186961836Y-32670228D01*
X186961836Y-32670228D02*
X186771360Y-32622609D01*
X186771360Y-32622609D02*
X186676122Y-32574990D01*
X186676122Y-32574990D02*
X186628503Y-32527371D01*
X186628503Y-32527371D02*
X186580884Y-32432133D01*
X186580884Y-32432133D02*
X186580884Y-32336895D01*
X186580884Y-32336895D02*
X186628503Y-32241657D01*
X186628503Y-32241657D02*
X186676122Y-32194038D01*
X186676122Y-32194038D02*
X186771360Y-32146419D01*
X186771360Y-32146419D02*
X187009455Y-32146419D01*
X187009455Y-32146419D02*
X187152312Y-32194038D01*
X188295170Y-32860704D02*
X188771360Y-32860704D01*
X188199932Y-33146419D02*
X188533265Y-32146419D01*
X188533265Y-32146419D02*
X188866598Y-33146419D01*
X221950646Y-59451419D02*
X222569693Y-59451419D01*
X222569693Y-59451419D02*
X222236360Y-59832371D01*
X222236360Y-59832371D02*
X222379217Y-59832371D01*
X222379217Y-59832371D02*
X222474455Y-59879990D01*
X222474455Y-59879990D02*
X222522074Y-59927609D01*
X222522074Y-59927609D02*
X222569693Y-60022847D01*
X222569693Y-60022847D02*
X222569693Y-60260942D01*
X222569693Y-60260942D02*
X222522074Y-60356180D01*
X222522074Y-60356180D02*
X222474455Y-60403800D01*
X222474455Y-60403800D02*
X222379217Y-60451419D01*
X222379217Y-60451419D02*
X222093503Y-60451419D01*
X222093503Y-60451419D02*
X221998265Y-60403800D01*
X221998265Y-60403800D02*
X221950646Y-60356180D01*
X222855408Y-59451419D02*
X223188741Y-60451419D01*
X223188741Y-60451419D02*
X223522074Y-59451419D01*
X223760170Y-59451419D02*
X224379217Y-59451419D01*
X224379217Y-59451419D02*
X224045884Y-59832371D01*
X224045884Y-59832371D02*
X224188741Y-59832371D01*
X224188741Y-59832371D02*
X224283979Y-59879990D01*
X224283979Y-59879990D02*
X224331598Y-59927609D01*
X224331598Y-59927609D02*
X224379217Y-60022847D01*
X224379217Y-60022847D02*
X224379217Y-60260942D01*
X224379217Y-60260942D02*
X224331598Y-60356180D01*
X224331598Y-60356180D02*
X224283979Y-60403800D01*
X224283979Y-60403800D02*
X224188741Y-60451419D01*
X224188741Y-60451419D02*
X223903027Y-60451419D01*
X223903027Y-60451419D02*
X223807789Y-60403800D01*
X223807789Y-60403800D02*
X223760170Y-60356180D01*
X225760170Y-59451419D02*
X225950646Y-59451419D01*
X225950646Y-59451419D02*
X226045884Y-59499038D01*
X226045884Y-59499038D02*
X226141122Y-59594276D01*
X226141122Y-59594276D02*
X226188741Y-59784752D01*
X226188741Y-59784752D02*
X226188741Y-60118085D01*
X226188741Y-60118085D02*
X226141122Y-60308561D01*
X226141122Y-60308561D02*
X226045884Y-60403800D01*
X226045884Y-60403800D02*
X225950646Y-60451419D01*
X225950646Y-60451419D02*
X225760170Y-60451419D01*
X225760170Y-60451419D02*
X225664932Y-60403800D01*
X225664932Y-60403800D02*
X225569694Y-60308561D01*
X225569694Y-60308561D02*
X225522075Y-60118085D01*
X225522075Y-60118085D02*
X225522075Y-59784752D01*
X225522075Y-59784752D02*
X225569694Y-59594276D01*
X225569694Y-59594276D02*
X225664932Y-59499038D01*
X225664932Y-59499038D02*
X225760170Y-59451419D01*
X226617313Y-59451419D02*
X226617313Y-60260942D01*
X226617313Y-60260942D02*
X226664932Y-60356180D01*
X226664932Y-60356180D02*
X226712551Y-60403800D01*
X226712551Y-60403800D02*
X226807789Y-60451419D01*
X226807789Y-60451419D02*
X226998265Y-60451419D01*
X226998265Y-60451419D02*
X227093503Y-60403800D01*
X227093503Y-60403800D02*
X227141122Y-60356180D01*
X227141122Y-60356180D02*
X227188741Y-60260942D01*
X227188741Y-60260942D02*
X227188741Y-59451419D01*
X227522075Y-59451419D02*
X228093503Y-59451419D01*
X227807789Y-60451419D02*
X227807789Y-59451419D01*
X179656800Y-42415734D02*
X179704419Y-42272877D01*
X179704419Y-42272877D02*
X179704419Y-42034782D01*
X179704419Y-42034782D02*
X179656800Y-41939544D01*
X179656800Y-41939544D02*
X179609180Y-41891925D01*
X179609180Y-41891925D02*
X179513942Y-41844306D01*
X179513942Y-41844306D02*
X179418704Y-41844306D01*
X179418704Y-41844306D02*
X179323466Y-41891925D01*
X179323466Y-41891925D02*
X179275847Y-41939544D01*
X179275847Y-41939544D02*
X179228228Y-42034782D01*
X179228228Y-42034782D02*
X179180609Y-42225258D01*
X179180609Y-42225258D02*
X179132990Y-42320496D01*
X179132990Y-42320496D02*
X179085371Y-42368115D01*
X179085371Y-42368115D02*
X178990133Y-42415734D01*
X178990133Y-42415734D02*
X178894895Y-42415734D01*
X178894895Y-42415734D02*
X178799657Y-42368115D01*
X178799657Y-42368115D02*
X178752038Y-42320496D01*
X178752038Y-42320496D02*
X178704419Y-42225258D01*
X178704419Y-42225258D02*
X178704419Y-41987163D01*
X178704419Y-41987163D02*
X178752038Y-41844306D01*
X182244419Y-53528306D02*
X182244419Y-54099734D01*
X182244419Y-53814020D02*
X181244419Y-53814020D01*
X181244419Y-53814020D02*
X181387276Y-53909258D01*
X181387276Y-53909258D02*
X181482514Y-54004496D01*
X181482514Y-54004496D02*
X181530133Y-54099734D01*
G36*
X189314000Y-74131180D02*
G01*
X188294041Y-73761091D01*
X188294041Y-73610515D01*
X189314000Y-73235663D01*
X189314000Y-73372378D01*
X188708644Y-73588655D01*
X188568631Y-73634878D01*
X188354614Y-73698809D01*
X188354614Y-73674202D01*
X188571318Y-73738193D01*
X188708644Y-73783012D01*
X189314000Y-73993061D01*
X189314000Y-74131180D01*
G37*
G36*
X189028724Y-73945250D02*
G01*
X188915395Y-73945250D01*
X188915395Y-73421593D01*
X189028724Y-73421593D01*
X189028724Y-73945250D01*
G37*
G36*
X179591871Y-84719369D02*
G01*
X179583516Y-84838190D01*
X179559575Y-84942743D01*
X179521071Y-85035266D01*
X179467317Y-85119507D01*
X179402920Y-85188696D01*
X179327173Y-85244369D01*
X179242365Y-85285037D01*
X179149579Y-85309783D01*
X179046996Y-85318283D01*
X178038486Y-85318283D01*
X178038486Y-85124842D01*
X179030967Y-85124842D01*
X179102675Y-85119181D01*
X179167323Y-85102741D01*
X179226148Y-85075841D01*
X179278963Y-85038676D01*
X179323714Y-84992383D01*
X179360970Y-84935982D01*
X179387611Y-84873680D01*
X179404292Y-84802042D01*
X179410154Y-84719277D01*
X179404284Y-84636576D01*
X179387596Y-84565163D01*
X179360970Y-84503214D01*
X179323717Y-84447146D01*
X179278970Y-84401220D01*
X179226148Y-84364453D01*
X179167349Y-84337814D01*
X179102698Y-84321523D01*
X179030967Y-84315910D01*
X178038486Y-84315910D01*
X178038486Y-84122470D01*
X179046996Y-84122470D01*
X179149575Y-84130979D01*
X179242359Y-84155755D01*
X179327173Y-84196475D01*
X179402987Y-84252097D01*
X179467376Y-84320972D01*
X179521071Y-84404570D01*
X179559541Y-84496389D01*
X179583498Y-84600551D01*
X179591871Y-84719369D01*
G37*
G36*
X179597733Y-83262247D02*
G01*
X179591333Y-83371296D01*
X179573157Y-83466121D01*
X179544335Y-83548743D01*
X179502951Y-83625364D01*
X179453176Y-83688187D01*
X179394767Y-83738886D01*
X179327940Y-83777692D01*
X179253624Y-83803687D01*
X179170277Y-83816739D01*
X179170277Y-83619360D01*
X179225618Y-83608757D01*
X179272365Y-83589090D01*
X179312060Y-83560559D01*
X179360063Y-83503722D01*
X179394858Y-83430957D01*
X179415003Y-83349960D01*
X179421878Y-83262063D01*
X179413131Y-83161288D01*
X179388172Y-83074668D01*
X179346762Y-82999106D01*
X179293192Y-82943052D01*
X179250234Y-82916055D01*
X179203325Y-82899922D01*
X179151226Y-82894417D01*
X179103796Y-82899371D01*
X179064569Y-82913390D01*
X179031791Y-82936091D01*
X178990811Y-82983256D01*
X178956229Y-83046641D01*
X178928780Y-83117611D01*
X178904022Y-83197858D01*
X178851998Y-83382964D01*
X178809839Y-83502947D01*
X178759869Y-83597502D01*
X178702980Y-83670834D01*
X178651189Y-83715743D01*
X178593450Y-83747532D01*
X178528552Y-83766960D01*
X178454768Y-83773691D01*
X178371195Y-83765675D01*
X178296754Y-83742376D01*
X178229545Y-83703899D01*
X178170691Y-83652548D01*
X178120912Y-83590012D01*
X178079885Y-83514855D01*
X178050822Y-83433794D01*
X178032930Y-83345156D01*
X178026763Y-83247684D01*
X178033012Y-83148115D01*
X178050957Y-83059614D01*
X178079794Y-82980604D01*
X178120296Y-82907136D01*
X178168231Y-82846518D01*
X178223775Y-82797239D01*
X178287205Y-82759807D01*
X178355376Y-82737494D01*
X178429855Y-82729919D01*
X178429855Y-82916124D01*
X178360688Y-82934262D01*
X178304099Y-82969592D01*
X178257572Y-83023652D01*
X178224643Y-83088913D01*
X178204032Y-83165282D01*
X178196756Y-83255194D01*
X178205220Y-83350543D01*
X178228996Y-83429400D01*
X178268026Y-83497100D01*
X178317106Y-83545721D01*
X178376673Y-83576623D01*
X178444601Y-83587028D01*
X178495750Y-83581161D01*
X178537942Y-83564493D01*
X178573195Y-83537203D01*
X178616198Y-83483052D01*
X178648941Y-83418867D01*
X178691439Y-83295036D01*
X178733388Y-83141713D01*
X178778451Y-83005517D01*
X178811697Y-82932890D01*
X178854746Y-82863093D01*
X178908575Y-82801462D01*
X178975646Y-82751535D01*
X179026185Y-82727896D01*
X179085478Y-82713019D01*
X179155348Y-82707754D01*
X179236696Y-82715137D01*
X179311310Y-82736816D01*
X179380662Y-82772875D01*
X179441720Y-82821657D01*
X179494539Y-82884015D01*
X179539389Y-82961919D01*
X179570728Y-83046550D01*
X179590656Y-83145784D01*
X179597733Y-83262247D01*
G37*
G36*
X179236841Y-81343602D02*
G01*
X179305438Y-81361279D01*
X179368755Y-81390400D01*
X179424643Y-81431143D01*
X179473178Y-81485661D01*
X179514660Y-81556180D01*
X179543018Y-81633404D01*
X179561632Y-81729929D01*
X179568424Y-81849821D01*
X179568424Y-82409351D01*
X178044348Y-82409351D01*
X178044348Y-81871436D01*
X178214341Y-81871436D01*
X178214341Y-82215910D01*
X178711681Y-82215910D01*
X178711681Y-81877756D01*
X178708255Y-81844783D01*
X178876728Y-81844783D01*
X178876728Y-82215910D01*
X179398430Y-82215910D01*
X179398430Y-81855041D01*
X179389085Y-81736910D01*
X179364886Y-81655087D01*
X179329646Y-81599960D01*
X179279718Y-81557504D01*
X179224242Y-81532661D01*
X179161118Y-81524214D01*
X179087099Y-81534057D01*
X179019518Y-81563415D01*
X178961677Y-81610211D01*
X178915746Y-81674241D01*
X178886962Y-81750621D01*
X178876728Y-81844783D01*
X178708255Y-81844783D01*
X178703411Y-81798160D01*
X178679441Y-81728279D01*
X178640271Y-81667859D01*
X178588399Y-81622034D01*
X178525526Y-81592904D01*
X178450738Y-81582833D01*
X178387452Y-81590702D01*
X178332196Y-81613676D01*
X178282943Y-81652442D01*
X178246988Y-81703256D01*
X178223256Y-81774059D01*
X178214341Y-81871436D01*
X178044348Y-81871436D01*
X178044348Y-81866857D01*
X178051118Y-81760946D01*
X178069905Y-81673814D01*
X178099028Y-81602250D01*
X178140531Y-81537331D01*
X178189055Y-81486167D01*
X178245024Y-81447095D01*
X178307664Y-81418979D01*
X178374867Y-81401970D01*
X178447715Y-81396170D01*
X178540347Y-81405603D01*
X178609648Y-81431158D01*
X178667295Y-81471916D01*
X178711223Y-81523024D01*
X178744081Y-81582343D01*
X178767368Y-81646763D01*
X178781748Y-81646763D01*
X178795571Y-81576614D01*
X178830932Y-81503881D01*
X178884469Y-81439559D01*
X178958977Y-81385179D01*
X179016088Y-81359482D01*
X179083018Y-81343285D01*
X179161759Y-81337552D01*
X179236841Y-81343602D01*
G37*
G36*
X179571354Y-81059665D02*
G01*
X179430762Y-81059665D01*
X178879659Y-80552616D01*
X178717451Y-80411291D01*
X178647083Y-80360448D01*
X178584552Y-80326295D01*
X178519695Y-80304831D01*
X178450646Y-80297627D01*
X178374767Y-80307393D01*
X178312069Y-80335362D01*
X178260497Y-80379586D01*
X178222218Y-80437486D01*
X178198981Y-80504908D01*
X178190894Y-80583299D01*
X178200145Y-80666014D01*
X178226340Y-80733967D01*
X178268955Y-80790458D01*
X178325899Y-80832427D01*
X178393971Y-80858092D01*
X178476292Y-80867140D01*
X178476292Y-81053803D01*
X178387566Y-81046541D01*
X178308647Y-81025557D01*
X178237788Y-80991338D01*
X178174324Y-80944597D01*
X178121305Y-80888187D01*
X178077962Y-80821161D01*
X178046677Y-80747505D01*
X178027506Y-80666674D01*
X178020901Y-80577254D01*
X178027549Y-80487857D01*
X178046756Y-80407926D01*
X178077962Y-80335912D01*
X178120841Y-80270249D01*
X178171834Y-80215614D01*
X178231469Y-80170956D01*
X178298007Y-80137794D01*
X178369759Y-80117789D01*
X178448082Y-80110964D01*
X178530000Y-80118387D01*
X178609831Y-80140731D01*
X178689043Y-80179063D01*
X178788068Y-80245328D01*
X178891730Y-80329254D01*
X179031333Y-80455438D01*
X179387623Y-80789562D01*
X179399988Y-80789562D01*
X179399988Y-80086601D01*
X179571354Y-80086601D01*
X179571354Y-81059665D01*
G37*
G36*
X179568424Y-79756873D02*
G01*
X178041417Y-79756873D01*
X178041417Y-79563433D01*
X179398430Y-79563433D01*
X179398430Y-78854152D01*
X179568424Y-78854152D01*
X179568424Y-79756873D01*
G37*
G36*
X178038486Y-78376413D02*
G01*
X179568424Y-78376413D01*
X179568424Y-78569853D01*
X178038486Y-78569853D01*
X178038486Y-78376413D01*
G37*
G36*
X179568424Y-78007117D02*
G01*
X178038486Y-78007117D01*
X178038486Y-77777407D01*
X179017686Y-77155870D01*
X179115322Y-77096336D01*
X179249870Y-77020956D01*
X179410154Y-76941455D01*
X179410154Y-76969116D01*
X179241169Y-76982488D01*
X179092699Y-76987617D01*
X178977570Y-76988625D01*
X178038486Y-76988625D01*
X178038486Y-76793719D01*
X179568424Y-76793719D01*
X179568424Y-77025536D01*
X178700690Y-77579387D01*
X178576401Y-77655866D01*
X178424909Y-77743518D01*
X178208479Y-77865609D01*
X178208479Y-77829706D01*
X178418314Y-77820455D01*
X178586109Y-77813769D01*
X178698675Y-77811204D01*
X179568424Y-77811204D01*
X179568424Y-78007117D01*
G37*
X177148609Y-40256782D02*
X177196228Y-40113925D01*
X177196228Y-40113925D02*
X177243847Y-40066306D01*
X177243847Y-40066306D02*
X177339085Y-40018687D01*
X177339085Y-40018687D02*
X177481942Y-40018687D01*
X177481942Y-40018687D02*
X177577180Y-40066306D01*
X177577180Y-40066306D02*
X177624800Y-40113925D01*
X177624800Y-40113925D02*
X177672419Y-40209163D01*
X177672419Y-40209163D02*
X177672419Y-40590115D01*
X177672419Y-40590115D02*
X176672419Y-40590115D01*
X176672419Y-40590115D02*
X176672419Y-40256782D01*
X176672419Y-40256782D02*
X176720038Y-40161544D01*
X176720038Y-40161544D02*
X176767657Y-40113925D01*
X176767657Y-40113925D02*
X176862895Y-40066306D01*
X176862895Y-40066306D02*
X176958133Y-40066306D01*
X176958133Y-40066306D02*
X177053371Y-40113925D01*
X177053371Y-40113925D02*
X177100990Y-40161544D01*
X177100990Y-40161544D02*
X177148609Y-40256782D01*
X177148609Y-40256782D02*
X177148609Y-40590115D01*
X176672419Y-39590115D02*
X177481942Y-39590115D01*
X177481942Y-39590115D02*
X177577180Y-39542496D01*
X177577180Y-39542496D02*
X177624800Y-39494877D01*
X177624800Y-39494877D02*
X177672419Y-39399639D01*
X177672419Y-39399639D02*
X177672419Y-39209163D01*
X177672419Y-39209163D02*
X177624800Y-39113925D01*
X177624800Y-39113925D02*
X177577180Y-39066306D01*
X177577180Y-39066306D02*
X177481942Y-39018687D01*
X177481942Y-39018687D02*
X176672419Y-39018687D01*
X177624800Y-38590115D02*
X177672419Y-38447258D01*
X177672419Y-38447258D02*
X177672419Y-38209163D01*
X177672419Y-38209163D02*
X177624800Y-38113925D01*
X177624800Y-38113925D02*
X177577180Y-38066306D01*
X177577180Y-38066306D02*
X177481942Y-38018687D01*
X177481942Y-38018687D02*
X177386704Y-38018687D01*
X177386704Y-38018687D02*
X177291466Y-38066306D01*
X177291466Y-38066306D02*
X177243847Y-38113925D01*
X177243847Y-38113925D02*
X177196228Y-38209163D01*
X177196228Y-38209163D02*
X177148609Y-38399639D01*
X177148609Y-38399639D02*
X177100990Y-38494877D01*
X177100990Y-38494877D02*
X177053371Y-38542496D01*
X177053371Y-38542496D02*
X176958133Y-38590115D01*
X176958133Y-38590115D02*
X176862895Y-38590115D01*
X176862895Y-38590115D02*
X176767657Y-38542496D01*
X176767657Y-38542496D02*
X176720038Y-38494877D01*
X176720038Y-38494877D02*
X176672419Y-38399639D01*
X176672419Y-38399639D02*
X176672419Y-38161544D01*
X176672419Y-38161544D02*
X176720038Y-38018687D01*
X177672419Y-36828210D02*
X176672419Y-36828210D01*
X176672419Y-36828210D02*
X177386704Y-36494877D01*
X177386704Y-36494877D02*
X176672419Y-36161544D01*
X176672419Y-36161544D02*
X177672419Y-36161544D01*
X176672419Y-35494877D02*
X176672419Y-35304401D01*
X176672419Y-35304401D02*
X176720038Y-35209163D01*
X176720038Y-35209163D02*
X176815276Y-35113925D01*
X176815276Y-35113925D02*
X177005752Y-35066306D01*
X177005752Y-35066306D02*
X177339085Y-35066306D01*
X177339085Y-35066306D02*
X177529561Y-35113925D01*
X177529561Y-35113925D02*
X177624800Y-35209163D01*
X177624800Y-35209163D02*
X177672419Y-35304401D01*
X177672419Y-35304401D02*
X177672419Y-35494877D01*
X177672419Y-35494877D02*
X177624800Y-35590115D01*
X177624800Y-35590115D02*
X177529561Y-35685353D01*
X177529561Y-35685353D02*
X177339085Y-35732972D01*
X177339085Y-35732972D02*
X177005752Y-35732972D01*
X177005752Y-35732972D02*
X176815276Y-35685353D01*
X176815276Y-35685353D02*
X176720038Y-35590115D01*
X176720038Y-35590115D02*
X176672419Y-35494877D01*
X177672419Y-34637734D02*
X176672419Y-34637734D01*
X176672419Y-34637734D02*
X176672419Y-34399639D01*
X176672419Y-34399639D02*
X176720038Y-34256782D01*
X176720038Y-34256782D02*
X176815276Y-34161544D01*
X176815276Y-34161544D02*
X176910514Y-34113925D01*
X176910514Y-34113925D02*
X177100990Y-34066306D01*
X177100990Y-34066306D02*
X177243847Y-34066306D01*
X177243847Y-34066306D02*
X177434323Y-34113925D01*
X177434323Y-34113925D02*
X177529561Y-34161544D01*
X177529561Y-34161544D02*
X177624800Y-34256782D01*
X177624800Y-34256782D02*
X177672419Y-34399639D01*
X177672419Y-34399639D02*
X177672419Y-34637734D01*
X177148609Y-33637734D02*
X177148609Y-33304401D01*
X177672419Y-33161544D02*
X177672419Y-33637734D01*
X177672419Y-33637734D02*
X176672419Y-33637734D01*
X176672419Y-33637734D02*
X176672419Y-33161544D01*
G36*
X210650000Y-49599156D02*
G01*
X210650000Y-49845597D01*
X210536671Y-49845597D01*
X210536671Y-49606789D01*
X210530854Y-49524645D01*
X210514608Y-49456503D01*
X210489166Y-49399915D01*
X210452919Y-49349889D01*
X210407791Y-49309279D01*
X210352695Y-49277366D01*
X210292117Y-49255574D01*
X210221769Y-49241767D01*
X210139959Y-49236883D01*
X210059044Y-49241731D01*
X209989486Y-49255433D01*
X209929605Y-49277061D01*
X209874963Y-49308548D01*
X209830292Y-49348140D01*
X209794478Y-49396435D01*
X209769105Y-49451192D01*
X209753012Y-49516438D01*
X209747278Y-49594393D01*
X209747278Y-49851032D01*
X209633949Y-49851032D01*
X209633949Y-49586089D01*
X209638071Y-49511290D01*
X209649905Y-49444533D01*
X209668862Y-49384788D01*
X209694644Y-49331161D01*
X209728225Y-49281428D01*
X209768137Y-49238084D01*
X209814801Y-49200651D01*
X209868911Y-49168922D01*
X209946529Y-49138419D01*
X210036152Y-49119211D01*
X210139959Y-49112441D01*
X210244659Y-49119260D01*
X210334962Y-49138597D01*
X210413084Y-49169289D01*
X210467340Y-49201287D01*
X210514286Y-49239353D01*
X210554588Y-49283745D01*
X210588633Y-49335008D01*
X210614623Y-49390093D01*
X210633799Y-49451812D01*
X210645807Y-49521130D01*
X210650000Y-49599156D01*
G37*
G36*
X209633949Y-49787895D02*
G01*
X210650000Y-49787895D01*
X210650000Y-49916855D01*
X209633949Y-49916855D01*
X209633949Y-49787895D01*
G37*
D11*
X201820000Y-64914000D02*
X203200000Y-64914000D01*
X201820000Y-66294000D02*
X201820000Y-64914000D01*
X201820000Y-67564000D02*
X201820000Y-72754000D01*
X201820000Y-67564000D02*
X204580000Y-67564000D01*
X201820000Y-72754000D02*
X204580000Y-72754000D01*
X204580000Y-67564000D02*
X204580000Y-72754000D01*
X190273000Y-37091252D02*
X190273000Y-36568748D01*
X191743000Y-37091252D02*
X191743000Y-36568748D01*
X227115436Y-45697500D02*
X227569564Y-45697500D01*
X227115436Y-47167500D02*
X227569564Y-47167500D01*
X225938748Y-69515000D02*
X226461252Y-69515000D01*
X225938748Y-70985000D02*
X226461252Y-70985000D01*
X219041000Y-52204500D02*
X224261000Y-52204500D01*
X219041000Y-52454500D02*
X219041000Y-52204500D01*
X219041000Y-57424500D02*
X219041000Y-57174500D01*
X224261000Y-52204500D02*
X224261000Y-52454500D01*
X224261000Y-57174500D02*
X224261000Y-57424500D01*
X224261000Y-57424500D02*
X219041000Y-57424500D01*
X227043748Y-50269500D02*
X227566252Y-50269500D01*
X227043748Y-51739500D02*
X227566252Y-51739500D01*
X204497000Y-37091252D02*
X204497000Y-36568748D01*
X205967000Y-37091252D02*
X205967000Y-36568748D01*
X194454000Y-45974000D02*
X194454000Y-40784000D01*
X197214000Y-40784000D02*
X194454000Y-40784000D01*
X197214000Y-45974000D02*
X194454000Y-45974000D01*
X197214000Y-45974000D02*
X197214000Y-40784000D01*
X197214000Y-47244000D02*
X197214000Y-48624000D01*
X197214000Y-48624000D02*
X195834000Y-48624000D01*
X201566000Y-45974000D02*
X201566000Y-40784000D01*
X204326000Y-40784000D02*
X201566000Y-40784000D01*
X204326000Y-45974000D02*
X201566000Y-45974000D01*
X204326000Y-45974000D02*
X204326000Y-40784000D01*
X204326000Y-47244000D02*
X204326000Y-48624000D01*
X204326000Y-48624000D02*
X202946000Y-48624000D01*
X211609000Y-37091252D02*
X211609000Y-36568748D01*
X213079000Y-37091252D02*
X213079000Y-36568748D01*
X184431000Y-47929436D02*
X184431000Y-48383564D01*
X185901000Y-47929436D02*
X185901000Y-48383564D01*
X191674000Y-24956500D02*
X195534000Y-24956500D01*
X191674000Y-31696500D02*
X191674000Y-24956500D01*
X196134000Y-24956500D02*
X197454000Y-24956500D01*
X197454000Y-24956500D02*
X197454000Y-31696500D01*
X197454000Y-25476500D02*
X191674000Y-25476500D01*
X197454000Y-30576500D02*
X191674000Y-30576500D01*
X197454000Y-31696500D02*
X191674000Y-31696500D01*
X195834000Y-24956500D02*
X195394000Y-24346500D01*
X196274000Y-24346500D01*
X195834000Y-24956500D01*
G36*
X195834000Y-24956500D02*
G01*
X195394000Y-24346500D01*
X196274000Y-24346500D01*
X195834000Y-24956500D01*
G37*
X185586000Y-38440000D02*
X185586000Y-35780000D01*
X185586000Y-38440000D02*
X187286000Y-38440000D01*
X187286000Y-38440000D02*
X187286000Y-35780000D01*
X206922000Y-38474000D02*
X206922000Y-35814000D01*
X206922000Y-38474000D02*
X208622000Y-38474000D01*
X208622000Y-38474000D02*
X208622000Y-35814000D01*
X205767000Y-47929436D02*
X205767000Y-48383564D01*
X207237000Y-47929436D02*
X207237000Y-48383564D01*
X201195000Y-61591564D02*
X201195000Y-61137436D01*
X202665000Y-61591564D02*
X202665000Y-61137436D01*
X208678000Y-45974000D02*
X208678000Y-40784000D01*
X211438000Y-40784000D02*
X208678000Y-40784000D01*
X211438000Y-45974000D02*
X208678000Y-45974000D01*
X211438000Y-45974000D02*
X211438000Y-40784000D01*
X211438000Y-47244000D02*
X211438000Y-48624000D01*
X211438000Y-48624000D02*
X210058000Y-48624000D01*
D12*
X182142242Y-56529364D02*
X182120203Y-56568059D01*
X182084971Y-56629513D01*
X182037711Y-56711702D01*
X181979589Y-56812604D01*
X181911771Y-56930195D01*
X181835424Y-57062454D01*
X181751714Y-57207358D01*
X181661806Y-57362883D01*
X181566867Y-57527008D01*
X181530732Y-57589451D01*
X181434083Y-57756513D01*
X181341938Y-57915926D01*
X181255475Y-58065645D01*
X181175871Y-58203624D01*
X181104305Y-58327815D01*
X181041955Y-58436173D01*
X180989998Y-58526652D01*
X180949613Y-58597204D01*
X180921978Y-58645785D01*
X180908272Y-58670346D01*
X180906974Y-58672915D01*
X180895220Y-58665431D01*
X180863795Y-58639386D01*
X180815594Y-58597441D01*
X180753510Y-58542254D01*
X180680439Y-58476483D01*
X180599276Y-58402788D01*
X180512916Y-58323827D01*
X180424253Y-58242260D01*
X180336182Y-58160746D01*
X180251599Y-58081943D01*
X180173397Y-58008510D01*
X180104472Y-57943107D01*
X180047719Y-57888392D01*
X180006032Y-57847023D01*
X179992363Y-57832836D01*
X179948201Y-57785820D01*
X179984619Y-57762472D01*
X180003693Y-57751092D01*
X180047421Y-57725512D01*
X180113619Y-57686998D01*
X180200102Y-57636814D01*
X180304685Y-57576225D01*
X180425183Y-57506497D01*
X180559412Y-57428893D01*
X180705187Y-57344680D01*
X180860323Y-57255121D01*
X181020000Y-57163002D01*
X181183117Y-57068924D01*
X181339709Y-56978598D01*
X181487506Y-56893335D01*
X181624240Y-56814443D01*
X181747642Y-56743231D01*
X181855444Y-56681009D01*
X181945377Y-56629087D01*
X182015173Y-56588772D01*
X182062564Y-56561376D01*
X182084786Y-56548493D01*
X182122330Y-56527493D01*
X182145831Y-56516075D01*
X182149920Y-56515449D01*
X182142242Y-56529364D01*
G36*
X182142242Y-56529364D02*
G01*
X182120203Y-56568059D01*
X182084971Y-56629513D01*
X182037711Y-56711702D01*
X181979589Y-56812604D01*
X181911771Y-56930195D01*
X181835424Y-57062454D01*
X181751714Y-57207358D01*
X181661806Y-57362883D01*
X181566867Y-57527008D01*
X181530732Y-57589451D01*
X181434083Y-57756513D01*
X181341938Y-57915926D01*
X181255475Y-58065645D01*
X181175871Y-58203624D01*
X181104305Y-58327815D01*
X181041955Y-58436173D01*
X180989998Y-58526652D01*
X180949613Y-58597204D01*
X180921978Y-58645785D01*
X180908272Y-58670346D01*
X180906974Y-58672915D01*
X180895220Y-58665431D01*
X180863795Y-58639386D01*
X180815594Y-58597441D01*
X180753510Y-58542254D01*
X180680439Y-58476483D01*
X180599276Y-58402788D01*
X180512916Y-58323827D01*
X180424253Y-58242260D01*
X180336182Y-58160746D01*
X180251599Y-58081943D01*
X180173397Y-58008510D01*
X180104472Y-57943107D01*
X180047719Y-57888392D01*
X180006032Y-57847023D01*
X179992363Y-57832836D01*
X179948201Y-57785820D01*
X179984619Y-57762472D01*
X180003693Y-57751092D01*
X180047421Y-57725512D01*
X180113619Y-57686998D01*
X180200102Y-57636814D01*
X180304685Y-57576225D01*
X180425183Y-57506497D01*
X180559412Y-57428893D01*
X180705187Y-57344680D01*
X180860323Y-57255121D01*
X181020000Y-57163002D01*
X181183117Y-57068924D01*
X181339709Y-56978598D01*
X181487506Y-56893335D01*
X181624240Y-56814443D01*
X181747642Y-56743231D01*
X181855444Y-56681009D01*
X181945377Y-56629087D01*
X182015173Y-56588772D01*
X182062564Y-56561376D01*
X182084786Y-56548493D01*
X182122330Y-56527493D01*
X182145831Y-56516075D01*
X182149920Y-56515449D01*
X182142242Y-56529364D01*
G37*
X178881965Y-58431499D02*
X178909882Y-58468886D01*
X178944725Y-58525765D01*
X178983754Y-58597688D01*
X179020843Y-58672985D01*
X179065817Y-58775440D01*
X179106226Y-58883183D01*
X179142969Y-58999927D01*
X179176942Y-59129382D01*
X179209044Y-59275260D01*
X179240173Y-59441274D01*
X179271227Y-59631134D01*
X179300145Y-59827531D01*
X179325800Y-59998166D01*
X179351198Y-60141455D01*
X179377602Y-60260992D01*
X179406273Y-60360370D01*
X179438473Y-60443182D01*
X179475465Y-60513022D01*
X179518512Y-60573482D01*
X179568875Y-60628155D01*
X179587583Y-60645786D01*
X179631139Y-60684000D01*
X179666682Y-60712268D01*
X179687583Y-60725382D01*
X179689297Y-60725732D01*
X179699806Y-60730320D01*
X179699924Y-60746242D01*
X179688254Y-60776734D01*
X179663396Y-60825032D01*
X179623952Y-60894373D01*
X179595587Y-60942561D01*
X179551247Y-61014417D01*
X179513279Y-61070258D01*
X179484416Y-61106333D01*
X179467388Y-61118887D01*
X179467264Y-61118879D01*
X179451037Y-61111094D01*
X179410400Y-61089108D01*
X179347567Y-61054197D01*
X179264752Y-61007637D01*
X179164172Y-60950705D01*
X179048040Y-60884677D01*
X178918571Y-60810828D01*
X178777980Y-60730436D01*
X178628482Y-60644776D01*
X178472292Y-60555124D01*
X178311624Y-60462757D01*
X178148693Y-60368951D01*
X177985713Y-60274982D01*
X177824900Y-60182126D01*
X177668468Y-60091660D01*
X177518633Y-60004859D01*
X177377608Y-59923000D01*
X177247609Y-59847359D01*
X177130849Y-59779213D01*
X177029545Y-59719837D01*
X176945911Y-59670507D01*
X176882162Y-59632500D01*
X176840511Y-59607093D01*
X176823175Y-59595560D01*
X176822805Y-59595077D01*
X176835835Y-59585957D01*
X176873245Y-59562935D01*
X176932514Y-59527466D01*
X177011118Y-59481004D01*
X177106538Y-59425004D01*
X177216250Y-59360919D01*
X177337734Y-59290204D01*
X177468468Y-59214313D01*
X177605930Y-59134701D01*
X177747598Y-59052822D01*
X177890951Y-58970130D01*
X178033467Y-58888079D01*
X178172624Y-58808124D01*
X178305901Y-58731719D01*
X178430776Y-58660318D01*
X178544727Y-58595376D01*
X178645233Y-58538347D01*
X178729772Y-58490685D01*
X178795822Y-58453845D01*
X178840862Y-58429280D01*
X178862370Y-58418446D01*
X178863714Y-58418049D01*
X178881965Y-58431499D01*
G36*
X178881965Y-58431499D02*
G01*
X178909882Y-58468886D01*
X178944725Y-58525765D01*
X178983754Y-58597688D01*
X179020843Y-58672985D01*
X179065817Y-58775440D01*
X179106226Y-58883183D01*
X179142969Y-58999927D01*
X179176942Y-59129382D01*
X179209044Y-59275260D01*
X179240173Y-59441274D01*
X179271227Y-59631134D01*
X179300145Y-59827531D01*
X179325800Y-59998166D01*
X179351198Y-60141455D01*
X179377602Y-60260992D01*
X179406273Y-60360370D01*
X179438473Y-60443182D01*
X179475465Y-60513022D01*
X179518512Y-60573482D01*
X179568875Y-60628155D01*
X179587583Y-60645786D01*
X179631139Y-60684000D01*
X179666682Y-60712268D01*
X179687583Y-60725382D01*
X179689297Y-60725732D01*
X179699806Y-60730320D01*
X179699924Y-60746242D01*
X179688254Y-60776734D01*
X179663396Y-60825032D01*
X179623952Y-60894373D01*
X179595587Y-60942561D01*
X179551247Y-61014417D01*
X179513279Y-61070258D01*
X179484416Y-61106333D01*
X179467388Y-61118887D01*
X179467264Y-61118879D01*
X179451037Y-61111094D01*
X179410400Y-61089108D01*
X179347567Y-61054197D01*
X179264752Y-61007637D01*
X179164172Y-60950705D01*
X179048040Y-60884677D01*
X178918571Y-60810828D01*
X178777980Y-60730436D01*
X178628482Y-60644776D01*
X178472292Y-60555124D01*
X178311624Y-60462757D01*
X178148693Y-60368951D01*
X177985713Y-60274982D01*
X177824900Y-60182126D01*
X177668468Y-60091660D01*
X177518633Y-60004859D01*
X177377608Y-59923000D01*
X177247609Y-59847359D01*
X177130849Y-59779213D01*
X177029545Y-59719837D01*
X176945911Y-59670507D01*
X176882162Y-59632500D01*
X176840511Y-59607093D01*
X176823175Y-59595560D01*
X176822805Y-59595077D01*
X176835835Y-59585957D01*
X176873245Y-59562935D01*
X176932514Y-59527466D01*
X177011118Y-59481004D01*
X177106538Y-59425004D01*
X177216250Y-59360919D01*
X177337734Y-59290204D01*
X177468468Y-59214313D01*
X177605930Y-59134701D01*
X177747598Y-59052822D01*
X177890951Y-58970130D01*
X178033467Y-58888079D01*
X178172624Y-58808124D01*
X178305901Y-58731719D01*
X178430776Y-58660318D01*
X178544727Y-58595376D01*
X178645233Y-58538347D01*
X178729772Y-58490685D01*
X178795822Y-58453845D01*
X178840862Y-58429280D01*
X178862370Y-58418446D01*
X178863714Y-58418049D01*
X178881965Y-58431499D01*
G37*
X182696280Y-56829598D02*
X182697559Y-56872896D01*
X182698796Y-56944286D01*
X182699983Y-57042327D01*
X182701115Y-57165578D01*
X182702186Y-57312597D01*
X182703189Y-57481943D01*
X182704119Y-57672174D01*
X182704968Y-57881849D01*
X182705732Y-58109527D01*
X182706403Y-58353765D01*
X182706976Y-58613123D01*
X182707444Y-58886159D01*
X182707802Y-59171432D01*
X182708042Y-59467500D01*
X182708159Y-59772921D01*
X182708171Y-59901076D01*
X182708171Y-63001030D01*
X182324847Y-62779947D01*
X182243680Y-62733144D01*
X182139166Y-62672898D01*
X182014801Y-62601222D01*
X181874082Y-62520131D01*
X181720503Y-62431638D01*
X181557562Y-62337760D01*
X181388754Y-62240509D01*
X181217575Y-62141900D01*
X181047521Y-62043947D01*
X181004512Y-62019175D01*
X180847857Y-61928848D01*
X180698803Y-61842711D01*
X180559568Y-61762058D01*
X180432371Y-61688184D01*
X180319432Y-61622383D01*
X180222968Y-61565950D01*
X180145200Y-61520179D01*
X180088346Y-61486365D01*
X180054625Y-61465802D01*
X180046040Y-61460047D01*
X180039189Y-61447942D01*
X180041158Y-61427906D01*
X180053736Y-61395381D01*
X180078712Y-61345807D01*
X180117876Y-61274626D01*
X180120988Y-61269084D01*
X180158476Y-61203526D01*
X180191319Y-61148202D01*
X180216205Y-61108545D01*
X180229820Y-61089988D01*
X180230487Y-61089469D01*
X180249390Y-61093952D01*
X180291605Y-61114514D01*
X180354832Y-61149817D01*
X180436772Y-61198520D01*
X180535122Y-61259282D01*
X180647585Y-61330764D01*
X180675165Y-61348555D01*
X180751699Y-61394907D01*
X180817556Y-61428658D01*
X180866782Y-61446847D01*
X180876507Y-61448714D01*
X180919312Y-61447885D01*
X180987209Y-61438606D01*
X181075843Y-61422032D01*
X181180859Y-61399320D01*
X181297902Y-61371627D01*
X181422616Y-61340110D01*
X181550645Y-61305925D01*
X181677634Y-61270229D01*
X181799228Y-61234179D01*
X181911072Y-61198932D01*
X182008810Y-61165644D01*
X182088087Y-61135472D01*
X182135122Y-61114439D01*
X182185225Y-61089663D01*
X182233168Y-61066270D01*
X182235793Y-61065003D01*
X182284220Y-61026301D01*
X182316828Y-60969816D01*
X182332454Y-60904061D01*
X182329937Y-60837549D01*
X182308114Y-60778795D01*
X182279382Y-60745742D01*
X182200583Y-60698141D01*
X182102378Y-60663261D01*
X181994779Y-60644123D01*
X181933780Y-60641412D01*
X181819935Y-60652330D01*
X181725660Y-60684376D01*
X181646379Y-60739274D01*
X181628733Y-60756393D01*
X181579235Y-60807339D01*
X181229362Y-60810837D01*
X180879489Y-60814336D01*
X180744531Y-60725182D01*
X180683445Y-60683346D01*
X180628493Y-60643055D01*
X180587336Y-60610057D01*
X180572192Y-60595874D01*
X180534810Y-60555719D01*
X180564098Y-60501335D01*
X180585084Y-60466961D01*
X180601378Y-60448154D01*
X180604307Y-60446951D01*
X180616728Y-60434097D01*
X180625977Y-60412104D01*
X180634313Y-60390850D01*
X180650149Y-60358306D01*
X180675033Y-60311678D01*
X180710509Y-60248171D01*
X180758123Y-60164992D01*
X180819422Y-60059347D01*
X180852932Y-60001938D01*
X180893071Y-59934406D01*
X180921659Y-59890115D01*
X180942039Y-59865145D01*
X180957553Y-59855577D01*
X180971546Y-59857492D01*
X180974796Y-59859089D01*
X180995266Y-59874624D01*
X181033665Y-59907864D01*
X181085696Y-59954938D01*
X181147066Y-60011972D01*
X181199090Y-60061300D01*
X181322567Y-60174970D01*
X181429591Y-60263895D01*
X181521240Y-60328866D01*
X181598588Y-60370679D01*
X181637866Y-60384783D01*
X181672249Y-60390608D01*
X181730899Y-60396625D01*
X181807117Y-60402304D01*
X181894202Y-60407116D01*
X181949268Y-60409381D01*
X182044464Y-60412541D01*
X182114062Y-60413931D01*
X182163409Y-60413142D01*
X182197854Y-60409765D01*
X182222743Y-60403392D01*
X182243425Y-60393613D01*
X182256053Y-60385933D01*
X182304726Y-60341579D01*
X182338645Y-60284426D01*
X182353438Y-60224292D01*
X182348086Y-60179227D01*
X182324930Y-60138424D01*
X182283462Y-60087276D01*
X182230912Y-60032958D01*
X182174516Y-59982643D01*
X182121505Y-59943506D01*
X182095889Y-59929095D01*
X182060814Y-59907509D01*
X182007389Y-59868247D01*
X181939789Y-59814898D01*
X181862190Y-59751048D01*
X181778768Y-59680285D01*
X181693698Y-59606196D01*
X181611155Y-59532368D01*
X181535316Y-59462389D01*
X181470356Y-59399845D01*
X181422669Y-59350740D01*
X181375032Y-59296221D01*
X181339908Y-59250358D01*
X181320949Y-59218189D01*
X181318864Y-59207511D01*
X181327274Y-59191147D01*
X181349846Y-59150329D01*
X181385224Y-59087414D01*
X181432054Y-59004756D01*
X181488981Y-58904711D01*
X181554649Y-58789634D01*
X181627703Y-58661881D01*
X181706788Y-58523806D01*
X181790548Y-58377766D01*
X181877629Y-58226116D01*
X181966676Y-58071210D01*
X182056332Y-57915405D01*
X182145243Y-57761056D01*
X182232054Y-57610518D01*
X182315409Y-57466146D01*
X182393954Y-57330296D01*
X182466333Y-57205323D01*
X182531190Y-57093583D01*
X182587171Y-56997430D01*
X182632920Y-56919221D01*
X182667083Y-56861311D01*
X182688304Y-56826054D01*
X182694963Y-56815835D01*
X182696280Y-56829598D01*
G36*
X182696280Y-56829598D02*
G01*
X182697559Y-56872896D01*
X182698796Y-56944286D01*
X182699983Y-57042327D01*
X182701115Y-57165578D01*
X182702186Y-57312597D01*
X182703189Y-57481943D01*
X182704119Y-57672174D01*
X182704968Y-57881849D01*
X182705732Y-58109527D01*
X182706403Y-58353765D01*
X182706976Y-58613123D01*
X182707444Y-58886159D01*
X182707802Y-59171432D01*
X182708042Y-59467500D01*
X182708159Y-59772921D01*
X182708171Y-59901076D01*
X182708171Y-63001030D01*
X182324847Y-62779947D01*
X182243680Y-62733144D01*
X182139166Y-62672898D01*
X182014801Y-62601222D01*
X181874082Y-62520131D01*
X181720503Y-62431638D01*
X181557562Y-62337760D01*
X181388754Y-62240509D01*
X181217575Y-62141900D01*
X181047521Y-62043947D01*
X181004512Y-62019175D01*
X180847857Y-61928848D01*
X180698803Y-61842711D01*
X180559568Y-61762058D01*
X180432371Y-61688184D01*
X180319432Y-61622383D01*
X180222968Y-61565950D01*
X180145200Y-61520179D01*
X180088346Y-61486365D01*
X180054625Y-61465802D01*
X180046040Y-61460047D01*
X180039189Y-61447942D01*
X180041158Y-61427906D01*
X180053736Y-61395381D01*
X180078712Y-61345807D01*
X180117876Y-61274626D01*
X180120988Y-61269084D01*
X180158476Y-61203526D01*
X180191319Y-61148202D01*
X180216205Y-61108545D01*
X180229820Y-61089988D01*
X180230487Y-61089469D01*
X180249390Y-61093952D01*
X180291605Y-61114514D01*
X180354832Y-61149817D01*
X180436772Y-61198520D01*
X180535122Y-61259282D01*
X180647585Y-61330764D01*
X180675165Y-61348555D01*
X180751699Y-61394907D01*
X180817556Y-61428658D01*
X180866782Y-61446847D01*
X180876507Y-61448714D01*
X180919312Y-61447885D01*
X180987209Y-61438606D01*
X181075843Y-61422032D01*
X181180859Y-61399320D01*
X181297902Y-61371627D01*
X181422616Y-61340110D01*
X181550645Y-61305925D01*
X181677634Y-61270229D01*
X181799228Y-61234179D01*
X181911072Y-61198932D01*
X182008810Y-61165644D01*
X182088087Y-61135472D01*
X182135122Y-61114439D01*
X182185225Y-61089663D01*
X182233168Y-61066270D01*
X182235793Y-61065003D01*
X182284220Y-61026301D01*
X182316828Y-60969816D01*
X182332454Y-60904061D01*
X182329937Y-60837549D01*
X182308114Y-60778795D01*
X182279382Y-60745742D01*
X182200583Y-60698141D01*
X182102378Y-60663261D01*
X181994779Y-60644123D01*
X181933780Y-60641412D01*
X181819935Y-60652330D01*
X181725660Y-60684376D01*
X181646379Y-60739274D01*
X181628733Y-60756393D01*
X181579235Y-60807339D01*
X181229362Y-60810837D01*
X180879489Y-60814336D01*
X180744531Y-60725182D01*
X180683445Y-60683346D01*
X180628493Y-60643055D01*
X180587336Y-60610057D01*
X180572192Y-60595874D01*
X180534810Y-60555719D01*
X180564098Y-60501335D01*
X180585084Y-60466961D01*
X180601378Y-60448154D01*
X180604307Y-60446951D01*
X180616728Y-60434097D01*
X180625977Y-60412104D01*
X180634313Y-60390850D01*
X180650149Y-60358306D01*
X180675033Y-60311678D01*
X180710509Y-60248171D01*
X180758123Y-60164992D01*
X180819422Y-60059347D01*
X180852932Y-60001938D01*
X180893071Y-59934406D01*
X180921659Y-59890115D01*
X180942039Y-59865145D01*
X180957553Y-59855577D01*
X180971546Y-59857492D01*
X180974796Y-59859089D01*
X180995266Y-59874624D01*
X181033665Y-59907864D01*
X181085696Y-59954938D01*
X181147066Y-60011972D01*
X181199090Y-60061300D01*
X181322567Y-60174970D01*
X181429591Y-60263895D01*
X181521240Y-60328866D01*
X181598588Y-60370679D01*
X181637866Y-60384783D01*
X181672249Y-60390608D01*
X181730899Y-60396625D01*
X181807117Y-60402304D01*
X181894202Y-60407116D01*
X181949268Y-60409381D01*
X182044464Y-60412541D01*
X182114062Y-60413931D01*
X182163409Y-60413142D01*
X182197854Y-60409765D01*
X182222743Y-60403392D01*
X182243425Y-60393613D01*
X182256053Y-60385933D01*
X182304726Y-60341579D01*
X182338645Y-60284426D01*
X182353438Y-60224292D01*
X182348086Y-60179227D01*
X182324930Y-60138424D01*
X182283462Y-60087276D01*
X182230912Y-60032958D01*
X182174516Y-59982643D01*
X182121505Y-59943506D01*
X182095889Y-59929095D01*
X182060814Y-59907509D01*
X182007389Y-59868247D01*
X181939789Y-59814898D01*
X181862190Y-59751048D01*
X181778768Y-59680285D01*
X181693698Y-59606196D01*
X181611155Y-59532368D01*
X181535316Y-59462389D01*
X181470356Y-59399845D01*
X181422669Y-59350740D01*
X181375032Y-59296221D01*
X181339908Y-59250358D01*
X181320949Y-59218189D01*
X181318864Y-59207511D01*
X181327274Y-59191147D01*
X181349846Y-59150329D01*
X181385224Y-59087414D01*
X181432054Y-59004756D01*
X181488981Y-58904711D01*
X181554649Y-58789634D01*
X181627703Y-58661881D01*
X181706788Y-58523806D01*
X181790548Y-58377766D01*
X181877629Y-58226116D01*
X181966676Y-58071210D01*
X182056332Y-57915405D01*
X182145243Y-57761056D01*
X182232054Y-57610518D01*
X182315409Y-57466146D01*
X182393954Y-57330296D01*
X182466333Y-57205323D01*
X182531190Y-57093583D01*
X182587171Y-56997430D01*
X182632920Y-56919221D01*
X182667083Y-56861311D01*
X182688304Y-56826054D01*
X182694963Y-56815835D01*
X182696280Y-56829598D01*
G37*
D11*
X195099000Y-37057064D02*
X195099000Y-36602936D01*
X196569000Y-37057064D02*
X196569000Y-36602936D01*
X220439748Y-49253500D02*
X220962252Y-49253500D01*
X220439748Y-50723500D02*
X220962252Y-50723500D01*
X208307000Y-61591564D02*
X208307000Y-61137436D01*
X209777000Y-61591564D02*
X209777000Y-61137436D01*
X219390000Y-74302500D02*
X219840000Y-74302500D01*
X219390000Y-74752500D02*
X219390000Y-74302500D01*
X219390000Y-81522500D02*
X219390000Y-81072500D01*
X219840000Y-81522500D02*
X219390000Y-81522500D01*
X226160000Y-74302500D02*
X226610000Y-74302500D01*
X226610000Y-74302500D02*
X226610000Y-74752500D01*
X226610000Y-81072500D02*
X226610000Y-81522500D01*
X226610000Y-81522500D02*
X226160000Y-81522500D01*
X227590000Y-81542500D02*
X226910000Y-81542500D01*
X227250000Y-81072500D01*
X227590000Y-81542500D01*
G36*
X227590000Y-81542500D02*
G01*
X226910000Y-81542500D01*
X227250000Y-81072500D01*
X227590000Y-81542500D01*
G37*
X198655000Y-47929436D02*
X198655000Y-48383564D01*
X200125000Y-47929436D02*
X200125000Y-48383564D01*
X194708000Y-64914000D02*
X196088000Y-64914000D01*
X194708000Y-66294000D02*
X194708000Y-64914000D01*
X194708000Y-67564000D02*
X194708000Y-72754000D01*
X194708000Y-67564000D02*
X197468000Y-67564000D01*
X194708000Y-72754000D02*
X197468000Y-72754000D01*
X197468000Y-67564000D02*
X197468000Y-72754000D01*
X205767000Y-44711252D02*
X205767000Y-44188748D01*
X207237000Y-44711252D02*
X207237000Y-44188748D01*
X216252500Y-65540000D02*
X216252500Y-67460000D01*
X216252500Y-67460000D02*
X218937500Y-67460000D01*
X218937500Y-65540000D02*
X216252500Y-65540000D01*
X194036000Y-52550000D02*
X194131000Y-52550000D01*
X194036000Y-56670000D02*
X194036000Y-52550000D01*
X194131000Y-56670000D02*
X194036000Y-56670000D01*
X199061000Y-52550000D02*
X199156000Y-52550000D01*
X199156000Y-52550000D02*
X199156000Y-56670000D01*
X199156000Y-56670000D02*
X199061000Y-56670000D01*
X194126000Y-57210000D02*
X193796000Y-57450000D01*
X193796000Y-56970000D01*
X194126000Y-57210000D01*
G36*
X194126000Y-57210000D02*
G01*
X193796000Y-57450000D01*
X193796000Y-56970000D01*
X194126000Y-57210000D01*
G37*
X205898000Y-24956500D02*
X209758000Y-24956500D01*
X205898000Y-31696500D02*
X205898000Y-24956500D01*
X210358000Y-24956500D02*
X211678000Y-24956500D01*
X211678000Y-24956500D02*
X211678000Y-31696500D01*
X211678000Y-25476500D02*
X205898000Y-25476500D01*
X211678000Y-30576500D02*
X205898000Y-30576500D01*
X211678000Y-31696500D02*
X205898000Y-31696500D01*
X210058000Y-24956500D02*
X209618000Y-24346500D01*
X210498000Y-24346500D01*
X210058000Y-24956500D01*
G36*
X210058000Y-24956500D02*
G01*
X209618000Y-24346500D01*
X210498000Y-24346500D01*
X210058000Y-24956500D01*
G37*
X196623000Y-61140748D02*
X196623000Y-61663252D01*
X198093000Y-61140748D02*
X198093000Y-61663252D01*
X194083000Y-61591564D02*
X194083000Y-61137436D01*
X195553000Y-61591564D02*
X195553000Y-61137436D01*
X219885436Y-35340000D02*
X221089564Y-35340000D01*
X219885436Y-37160000D02*
X221089564Y-37160000D01*
X208932000Y-64914000D02*
X210312000Y-64914000D01*
X208932000Y-66294000D02*
X208932000Y-64914000D01*
X208932000Y-67564000D02*
X208932000Y-72754000D01*
X208932000Y-67564000D02*
X211692000Y-67564000D01*
X208932000Y-72754000D02*
X211692000Y-72754000D01*
X211692000Y-67564000D02*
X211692000Y-72754000D01*
X220487000Y-44872500D02*
X222307000Y-44872500D01*
X220487000Y-44922500D02*
X220487000Y-44872500D01*
X220487000Y-47992500D02*
X220487000Y-47942500D01*
X222307000Y-44872500D02*
X222307000Y-44922500D01*
X222307000Y-47942500D02*
X222307000Y-47992500D01*
X222307000Y-47992500D02*
X220487000Y-47992500D01*
X223087000Y-48272500D02*
X222607000Y-48272500D01*
X222847000Y-47942500D01*
X223087000Y-48272500D01*
G36*
X223087000Y-48272500D02*
G01*
X222607000Y-48272500D01*
X222847000Y-47942500D01*
X223087000Y-48272500D01*
G37*
X192698000Y-38440000D02*
X192698000Y-35780000D01*
X192698000Y-38440000D02*
X194398000Y-38440000D01*
X194398000Y-38440000D02*
X194398000Y-35780000D01*
X221880000Y-60880000D02*
X228620000Y-60880000D01*
X221880000Y-66660000D02*
X221880000Y-60880000D01*
X223000000Y-66660000D02*
X223000000Y-60880000D01*
X228100000Y-66660000D02*
X228100000Y-60880000D01*
X228620000Y-60880000D02*
X228620000Y-64740000D01*
X228620000Y-65340000D02*
X228620000Y-66660000D01*
X228620000Y-66660000D02*
X221880000Y-66660000D01*
X229230000Y-65480000D02*
X228620000Y-65040000D01*
X229230000Y-64600000D01*
X229230000Y-65480000D01*
G36*
X229230000Y-65480000D02*
G01*
X228620000Y-65040000D01*
X229230000Y-64600000D01*
X229230000Y-65480000D01*
G37*
X227043748Y-43411500D02*
X227566252Y-43411500D01*
X227043748Y-44881500D02*
X227566252Y-44881500D01*
X199810000Y-38474000D02*
X199810000Y-35814000D01*
X199810000Y-38474000D02*
X201510000Y-38474000D01*
X201510000Y-38474000D02*
X201510000Y-35814000D01*
X198655000Y-44711252D02*
X198655000Y-44188748D01*
X200125000Y-44711252D02*
X200125000Y-44188748D01*
X184562000Y-24956500D02*
X188422000Y-24956500D01*
X184562000Y-31696500D02*
X184562000Y-24956500D01*
X189022000Y-24956500D02*
X190342000Y-24956500D01*
X190342000Y-24956500D02*
X190342000Y-31696500D01*
X190342000Y-25476500D02*
X184562000Y-25476500D01*
X190342000Y-30576500D02*
X184562000Y-30576500D01*
X190342000Y-31696500D02*
X184562000Y-31696500D01*
X188722000Y-24956500D02*
X188282000Y-24346500D01*
X189162000Y-24346500D01*
X188722000Y-24956500D01*
G36*
X188722000Y-24956500D02*
G01*
X188282000Y-24346500D01*
X189162000Y-24346500D01*
X188722000Y-24956500D01*
G37*
X186924000Y-52550000D02*
X187019000Y-52550000D01*
X186924000Y-56670000D02*
X186924000Y-52550000D01*
X187019000Y-56670000D02*
X186924000Y-56670000D01*
X191949000Y-52550000D02*
X192044000Y-52550000D01*
X192044000Y-52550000D02*
X192044000Y-56670000D01*
X192044000Y-56670000D02*
X191949000Y-56670000D01*
X187014000Y-57210000D02*
X186684000Y-57450000D01*
X186684000Y-56970000D01*
X187014000Y-57210000D01*
G36*
X187014000Y-57210000D02*
G01*
X186684000Y-57450000D01*
X186684000Y-56970000D01*
X187014000Y-57210000D01*
G37*
X218139564Y-69515000D02*
X217685436Y-69515000D01*
X218139564Y-70985000D02*
X217685436Y-70985000D01*
X197575001Y-78825001D02*
X211675001Y-78825001D01*
X197575001Y-83625001D02*
X197575001Y-78825001D01*
X197575001Y-91925001D02*
X197575001Y-87125001D01*
X205375001Y-78125001D02*
X205875001Y-78625001D01*
X205875001Y-78625001D02*
X206375001Y-78125001D01*
X206375001Y-78125001D02*
X205375001Y-78125001D01*
X211675001Y-78825001D02*
X211675001Y-83625001D01*
X211675001Y-87125001D02*
X211675001Y-91925001D01*
X211675001Y-91925001D02*
X197575001Y-91925001D01*
X187987000Y-37057064D02*
X187987000Y-36602936D01*
X189457000Y-37057064D02*
X189457000Y-36602936D01*
X201148000Y-52550000D02*
X201243000Y-52550000D01*
X201148000Y-56670000D02*
X201148000Y-52550000D01*
X201243000Y-56670000D02*
X201148000Y-56670000D01*
X206173000Y-52550000D02*
X206268000Y-52550000D01*
X206268000Y-52550000D02*
X206268000Y-56670000D01*
X206268000Y-56670000D02*
X206173000Y-56670000D01*
X201238000Y-57210000D02*
X200908000Y-57450000D01*
X200908000Y-56970000D01*
X201238000Y-57210000D01*
G36*
X201238000Y-57210000D02*
G01*
X200908000Y-57450000D01*
X200908000Y-56970000D01*
X201238000Y-57210000D01*
G37*
X222461252Y-69515000D02*
X221938748Y-69515000D01*
X222461252Y-70985000D02*
X221938748Y-70985000D01*
X187342000Y-45974000D02*
X187342000Y-40784000D01*
X190102000Y-40784000D02*
X187342000Y-40784000D01*
X190102000Y-45974000D02*
X187342000Y-45974000D01*
X190102000Y-45974000D02*
X190102000Y-40784000D01*
X190102000Y-47244000D02*
X190102000Y-48624000D01*
X190102000Y-48624000D02*
X188722000Y-48624000D01*
X209323000Y-37057064D02*
X209323000Y-36602936D01*
X210793000Y-37057064D02*
X210793000Y-36602936D01*
X198786000Y-24956500D02*
X202646000Y-24956500D01*
X198786000Y-31696500D02*
X198786000Y-24956500D01*
X203246000Y-24956500D02*
X204566000Y-24956500D01*
X204566000Y-24956500D02*
X204566000Y-31696500D01*
X204566000Y-25476500D02*
X198786000Y-25476500D01*
X204566000Y-30576500D02*
X198786000Y-30576500D01*
X204566000Y-31696500D02*
X198786000Y-31696500D01*
X202946000Y-24956500D02*
X202506000Y-24346500D01*
X203386000Y-24346500D01*
X202946000Y-24956500D01*
G36*
X202946000Y-24956500D02*
G01*
X202506000Y-24346500D01*
X203386000Y-24346500D01*
X202946000Y-24956500D01*
G37*
X202211000Y-37057064D02*
X202211000Y-36602936D01*
X203681000Y-37057064D02*
X203681000Y-36602936D01*
X191543000Y-47929436D02*
X191543000Y-48383564D01*
X193013000Y-47929436D02*
X193013000Y-48383564D01*
X214788000Y-24956500D02*
X218648000Y-24956500D01*
X214788000Y-31696500D02*
X214788000Y-24956500D01*
X219248000Y-24956500D02*
X220568000Y-24956500D01*
X220568000Y-24956500D02*
X220568000Y-31696500D01*
X220568000Y-25476500D02*
X214788000Y-25476500D01*
X220568000Y-30576500D02*
X214788000Y-30576500D01*
X220568000Y-31696500D02*
X214788000Y-31696500D01*
X218948000Y-24956500D02*
X218508000Y-24346500D01*
X219388000Y-24346500D01*
X218948000Y-24956500D01*
G36*
X218948000Y-24956500D02*
G01*
X218508000Y-24346500D01*
X219388000Y-24346500D01*
X218948000Y-24956500D01*
G37*
X227043748Y-38876000D02*
X227566252Y-38876000D01*
X227043748Y-40346000D02*
X227566252Y-40346000D01*
X224485000Y-38850000D02*
X218975000Y-38850000D01*
X224485000Y-42150000D02*
X218975000Y-42150000D01*
X224485000Y-42150000D02*
X224485000Y-38850000D01*
X227043748Y-47983500D02*
X227566252Y-47983500D01*
X227043748Y-49453500D02*
X227566252Y-49453500D01*
X184431000Y-44711252D02*
X184431000Y-44188748D01*
X185901000Y-44711252D02*
X185901000Y-44188748D01*
X191543000Y-44711252D02*
X191543000Y-44188748D01*
X193013000Y-44711252D02*
X193013000Y-44188748D01*
X208260000Y-52485000D02*
X208355000Y-52485000D01*
X208260000Y-56605000D02*
X208260000Y-52485000D01*
X208355000Y-56605000D02*
X208260000Y-56605000D01*
X213285000Y-52485000D02*
X213380000Y-52485000D01*
X213380000Y-52485000D02*
X213380000Y-56605000D01*
X213380000Y-56605000D02*
X213285000Y-56605000D01*
X208350000Y-57145000D02*
X208020000Y-57385000D01*
X208020000Y-56905000D01*
X208350000Y-57145000D01*
G36*
X208350000Y-57145000D02*
G01*
X208020000Y-57385000D01*
X208020000Y-56905000D01*
X208350000Y-57145000D01*
G37*
D12*
X180195135Y-63680673D02*
X180298868Y-63683410D01*
X180388241Y-63687669D01*
X180456826Y-63693445D01*
X180498197Y-63700733D01*
X180506810Y-63705105D01*
X180517133Y-63731236D01*
X180531892Y-63786607D01*
X180549352Y-63863893D01*
X180567780Y-63955770D01*
X180573741Y-63987842D01*
X180602066Y-64142476D01*
X180624876Y-64264625D01*
X180643080Y-64358327D01*
X180657583Y-64427616D01*
X180669292Y-64476529D01*
X180679115Y-64509103D01*
X180687956Y-64529372D01*
X180696724Y-64541374D01*
X180698457Y-64543053D01*
X180726371Y-64559816D01*
X180780695Y-64585386D01*
X180854777Y-64617212D01*
X180941965Y-64652740D01*
X181035608Y-64689417D01*
X181129052Y-64724689D01*
X181215647Y-64756004D01*
X181288740Y-64780807D01*
X181341678Y-64796546D01*
X181367811Y-64800668D01*
X181368726Y-64800324D01*
X181390086Y-64786359D01*
X181437084Y-64754678D01*
X181504827Y-64708609D01*
X181588423Y-64651482D01*
X181682982Y-64586627D01*
X181709854Y-64568157D01*
X181807275Y-64502301D01*
X181896163Y-64444350D01*
X181971412Y-64397462D01*
X182027920Y-64364793D01*
X182060581Y-64349500D01*
X182064593Y-64348759D01*
X182085684Y-64361608D01*
X182127464Y-64397112D01*
X182185445Y-64450707D01*
X182255135Y-64517829D01*
X182332045Y-64593913D01*
X182411683Y-64674396D01*
X182489561Y-64754713D01*
X182561186Y-64830301D01*
X182622070Y-64896595D01*
X182667721Y-64949031D01*
X182693650Y-64983045D01*
X182697883Y-64992455D01*
X182687912Y-65014357D01*
X182661020Y-65059200D01*
X182621736Y-65119679D01*
X182590117Y-65166211D01*
X182532098Y-65250525D01*
X182463784Y-65350374D01*
X182395579Y-65450527D01*
X182359075Y-65504373D01*
X182235800Y-65686629D01*
X182318520Y-65839619D01*
X182354759Y-65909318D01*
X182382926Y-65968586D01*
X182398991Y-66008689D01*
X182401226Y-66018897D01*
X182384722Y-66031171D01*
X182338082Y-66055387D01*
X182265609Y-66089737D01*
X182171606Y-66132412D01*
X182060374Y-66181606D01*
X181936215Y-66235510D01*
X181803432Y-66292316D01*
X181666327Y-66350218D01*
X181529202Y-66407407D01*
X181396358Y-66462076D01*
X181272098Y-66512416D01*
X181160725Y-66556620D01*
X181066539Y-66592881D01*
X180993844Y-66619391D01*
X180946941Y-66634342D01*
X180930833Y-66636746D01*
X180910286Y-66617689D01*
X180876933Y-66575964D01*
X180837702Y-66520294D01*
X180834599Y-66515622D01*
X180719423Y-66371736D01*
X180585053Y-66255717D01*
X180435784Y-66168570D01*
X180275913Y-66111301D01*
X180109737Y-66084914D01*
X179941552Y-66090415D01*
X179775655Y-66128810D01*
X179616342Y-66201105D01*
X179581487Y-66222374D01*
X179440737Y-66333004D01*
X179327714Y-66463698D01*
X179243003Y-66609936D01*
X179187194Y-66767192D01*
X179160874Y-66930943D01*
X179164630Y-67096667D01*
X179199050Y-67259838D01*
X179264723Y-67415935D01*
X179362235Y-67560433D01*
X179401813Y-67605131D01*
X179525703Y-67718888D01*
X179656124Y-67801782D01*
X179802315Y-67858644D01*
X179947088Y-67890313D01*
X180109860Y-67898131D01*
X180273440Y-67872062D01*
X180432298Y-67814755D01*
X180580906Y-67728856D01*
X180713735Y-67617014D01*
X180825256Y-67481877D01*
X180837011Y-67464117D01*
X180875508Y-67407850D01*
X180908863Y-67365077D01*
X180930160Y-67344628D01*
X180930833Y-67344331D01*
X180953871Y-67348721D01*
X181006157Y-67366124D01*
X181083390Y-67394732D01*
X181181268Y-67432735D01*
X181295491Y-67478326D01*
X181421758Y-67529697D01*
X181555767Y-67585038D01*
X181693218Y-67642542D01*
X181829808Y-67700399D01*
X181961237Y-67756802D01*
X182083205Y-67809942D01*
X182191409Y-67858010D01*
X182281549Y-67899199D01*
X182349323Y-67931699D01*
X182390430Y-67953703D01*
X182401226Y-67962564D01*
X182392819Y-67989640D01*
X182370272Y-68040303D01*
X182337613Y-68105817D01*
X182318520Y-68141841D01*
X182235800Y-68294832D01*
X182359075Y-68477088D01*
X182422228Y-68570125D01*
X182491727Y-68671985D01*
X182557165Y-68767438D01*
X182590117Y-68815250D01*
X182635273Y-68882495D01*
X182671057Y-68939436D01*
X182692938Y-68978646D01*
X182697563Y-68991381D01*
X182685085Y-69009917D01*
X182650252Y-69050941D01*
X182596678Y-69110475D01*
X182527983Y-69184542D01*
X182447781Y-69269165D01*
X182396286Y-69322685D01*
X182304286Y-69416319D01*
X182221999Y-69497241D01*
X182152945Y-69562177D01*
X182100644Y-69607858D01*
X182068616Y-69631011D01*
X182062116Y-69633232D01*
X182037394Y-69622924D01*
X181987405Y-69594439D01*
X181917212Y-69550937D01*
X181831875Y-69495577D01*
X181736456Y-69431520D01*
X181709854Y-69413303D01*
X181613167Y-69346927D01*
X181526117Y-69287378D01*
X181453595Y-69237984D01*
X181400493Y-69202075D01*
X181371703Y-69182981D01*
X181368726Y-69181136D01*
X181345782Y-69183895D01*
X181295336Y-69198538D01*
X181224041Y-69222513D01*
X181138547Y-69253266D01*
X181045507Y-69288244D01*
X180951574Y-69324893D01*
X180863399Y-69360661D01*
X180787634Y-69392994D01*
X180730931Y-69419338D01*
X180699943Y-69437142D01*
X180698457Y-69438407D01*
X180689601Y-69449294D01*
X180680843Y-69467682D01*
X180671277Y-69497606D01*
X180659996Y-69543103D01*
X180646093Y-69608209D01*
X180628663Y-69696961D01*
X180606798Y-69813393D01*
X180579591Y-69961542D01*
X180573741Y-69993618D01*
X180555374Y-70088686D01*
X180537405Y-70171565D01*
X180521569Y-70234930D01*
X180509600Y-70271458D01*
X180506810Y-70276356D01*
X180482072Y-70284427D01*
X180426790Y-70290987D01*
X180347389Y-70296033D01*
X180250296Y-70299559D01*
X180141938Y-70301561D01*
X180028740Y-70302036D01*
X179917128Y-70300977D01*
X179813529Y-70298382D01*
X179724368Y-70294246D01*
X179656072Y-70288563D01*
X179615066Y-70281331D01*
X179606674Y-70276971D01*
X179598208Y-70252698D01*
X179584435Y-70197426D01*
X179566550Y-70116662D01*
X179545748Y-70015912D01*
X179523223Y-69900683D01*
X179511418Y-69837902D01*
X179489151Y-69718787D01*
X179468979Y-69612565D01*
X179451915Y-69524427D01*
X179438969Y-69459566D01*
X179431155Y-69423174D01*
X179429422Y-69417184D01*
X179409890Y-69407061D01*
X179362843Y-69385662D01*
X179295003Y-69355839D01*
X179213091Y-69320445D01*
X179123828Y-69282332D01*
X179033935Y-69244353D01*
X178950135Y-69209360D01*
X178879147Y-69180206D01*
X178827694Y-69159743D01*
X178802497Y-69150823D01*
X178801396Y-69150657D01*
X178781519Y-69160769D01*
X178735777Y-69189117D01*
X178668717Y-69232723D01*
X178584884Y-69288606D01*
X178488826Y-69353787D01*
X178433650Y-69391679D01*
X178332481Y-69460725D01*
X178240630Y-69522050D01*
X178162744Y-69572663D01*
X178103469Y-69609571D01*
X178067451Y-69629782D01*
X178059377Y-69632701D01*
X178040584Y-69620153D01*
X178000457Y-69585463D01*
X177943493Y-69533063D01*
X177874185Y-69467384D01*
X177797031Y-69392856D01*
X177716525Y-69313913D01*
X177637163Y-69234983D01*
X177563440Y-69160500D01*
X177499852Y-69094894D01*
X177450894Y-69042596D01*
X177421061Y-69008039D01*
X177413942Y-68996478D01*
X177423953Y-68977654D01*
X177452078Y-68932631D01*
X177495454Y-68865787D01*
X177551218Y-68781499D01*
X177616506Y-68684144D01*
X177666246Y-68610707D01*
X177918551Y-68239667D01*
X177663555Y-67621095D01*
X177218931Y-67537275D01*
X176774307Y-67453454D01*
X176774307Y-66528006D01*
X177218931Y-66444186D01*
X177663555Y-66360365D01*
X177791053Y-66051080D01*
X177918551Y-65741794D01*
X177666246Y-65370754D01*
X177595996Y-65266843D01*
X177533272Y-65172913D01*
X177480938Y-65093348D01*
X177441857Y-65032530D01*
X177418893Y-64994843D01*
X177413942Y-64984579D01*
X177426676Y-64966090D01*
X177461882Y-64926580D01*
X177515062Y-64870478D01*
X177581718Y-64802213D01*
X177657354Y-64726214D01*
X177737472Y-64646908D01*
X177817574Y-64568725D01*
X177893164Y-64496093D01*
X177959745Y-64433441D01*
X178012818Y-64385197D01*
X178047887Y-64355790D01*
X178059623Y-64348759D01*
X178081260Y-64358877D01*
X178128662Y-64387241D01*
X178197193Y-64430871D01*
X178282215Y-64486782D01*
X178379093Y-64551994D01*
X178434350Y-64589781D01*
X178535248Y-64658657D01*
X178626299Y-64719860D01*
X178702970Y-64770422D01*
X178760728Y-64807372D01*
X178795043Y-64827742D01*
X178802254Y-64830803D01*
X178822748Y-64823864D01*
X178870513Y-64804949D01*
X178938832Y-64776913D01*
X179020989Y-64742609D01*
X179110270Y-64704891D01*
X179199958Y-64666613D01*
X179283338Y-64630630D01*
X179353694Y-64599794D01*
X179404310Y-64576961D01*
X179428471Y-64564983D01*
X179429422Y-64564276D01*
X179434036Y-64545469D01*
X179444328Y-64495382D01*
X179459287Y-64419207D01*
X179477901Y-64322135D01*
X179499159Y-64209357D01*
X179511418Y-64143558D01*
X179534362Y-64023050D01*
X179556195Y-63914203D01*
X179575722Y-63822524D01*
X179591748Y-63753519D01*
X179603079Y-63712696D01*
X179606674Y-63704489D01*
X179631006Y-63696452D01*
X179685959Y-63689967D01*
X179765108Y-63685030D01*
X179862026Y-63681636D01*
X179970287Y-63679782D01*
X180083465Y-63679462D01*
X180195135Y-63680673D01*
G36*
X180195135Y-63680673D02*
G01*
X180298868Y-63683410D01*
X180388241Y-63687669D01*
X180456826Y-63693445D01*
X180498197Y-63700733D01*
X180506810Y-63705105D01*
X180517133Y-63731236D01*
X180531892Y-63786607D01*
X180549352Y-63863893D01*
X180567780Y-63955770D01*
X180573741Y-63987842D01*
X180602066Y-64142476D01*
X180624876Y-64264625D01*
X180643080Y-64358327D01*
X180657583Y-64427616D01*
X180669292Y-64476529D01*
X180679115Y-64509103D01*
X180687956Y-64529372D01*
X180696724Y-64541374D01*
X180698457Y-64543053D01*
X180726371Y-64559816D01*
X180780695Y-64585386D01*
X180854777Y-64617212D01*
X180941965Y-64652740D01*
X181035608Y-64689417D01*
X181129052Y-64724689D01*
X181215647Y-64756004D01*
X181288740Y-64780807D01*
X181341678Y-64796546D01*
X181367811Y-64800668D01*
X181368726Y-64800324D01*
X181390086Y-64786359D01*
X181437084Y-64754678D01*
X181504827Y-64708609D01*
X181588423Y-64651482D01*
X181682982Y-64586627D01*
X181709854Y-64568157D01*
X181807275Y-64502301D01*
X181896163Y-64444350D01*
X181971412Y-64397462D01*
X182027920Y-64364793D01*
X182060581Y-64349500D01*
X182064593Y-64348759D01*
X182085684Y-64361608D01*
X182127464Y-64397112D01*
X182185445Y-64450707D01*
X182255135Y-64517829D01*
X182332045Y-64593913D01*
X182411683Y-64674396D01*
X182489561Y-64754713D01*
X182561186Y-64830301D01*
X182622070Y-64896595D01*
X182667721Y-64949031D01*
X182693650Y-64983045D01*
X182697883Y-64992455D01*
X182687912Y-65014357D01*
X182661020Y-65059200D01*
X182621736Y-65119679D01*
X182590117Y-65166211D01*
X182532098Y-65250525D01*
X182463784Y-65350374D01*
X182395579Y-65450527D01*
X182359075Y-65504373D01*
X182235800Y-65686629D01*
X182318520Y-65839619D01*
X182354759Y-65909318D01*
X182382926Y-65968586D01*
X182398991Y-66008689D01*
X182401226Y-66018897D01*
X182384722Y-66031171D01*
X182338082Y-66055387D01*
X182265609Y-66089737D01*
X182171606Y-66132412D01*
X182060374Y-66181606D01*
X181936215Y-66235510D01*
X181803432Y-66292316D01*
X181666327Y-66350218D01*
X181529202Y-66407407D01*
X181396358Y-66462076D01*
X181272098Y-66512416D01*
X181160725Y-66556620D01*
X181066539Y-66592881D01*
X180993844Y-66619391D01*
X180946941Y-66634342D01*
X180930833Y-66636746D01*
X180910286Y-66617689D01*
X180876933Y-66575964D01*
X180837702Y-66520294D01*
X180834599Y-66515622D01*
X180719423Y-66371736D01*
X180585053Y-66255717D01*
X180435784Y-66168570D01*
X180275913Y-66111301D01*
X180109737Y-66084914D01*
X179941552Y-66090415D01*
X179775655Y-66128810D01*
X179616342Y-66201105D01*
X179581487Y-66222374D01*
X179440737Y-66333004D01*
X179327714Y-66463698D01*
X179243003Y-66609936D01*
X179187194Y-66767192D01*
X179160874Y-66930943D01*
X179164630Y-67096667D01*
X179199050Y-67259838D01*
X179264723Y-67415935D01*
X179362235Y-67560433D01*
X179401813Y-67605131D01*
X179525703Y-67718888D01*
X179656124Y-67801782D01*
X179802315Y-67858644D01*
X179947088Y-67890313D01*
X180109860Y-67898131D01*
X180273440Y-67872062D01*
X180432298Y-67814755D01*
X180580906Y-67728856D01*
X180713735Y-67617014D01*
X180825256Y-67481877D01*
X180837011Y-67464117D01*
X180875508Y-67407850D01*
X180908863Y-67365077D01*
X180930160Y-67344628D01*
X180930833Y-67344331D01*
X180953871Y-67348721D01*
X181006157Y-67366124D01*
X181083390Y-67394732D01*
X181181268Y-67432735D01*
X181295491Y-67478326D01*
X181421758Y-67529697D01*
X181555767Y-67585038D01*
X181693218Y-67642542D01*
X181829808Y-67700399D01*
X181961237Y-67756802D01*
X182083205Y-67809942D01*
X182191409Y-67858010D01*
X182281549Y-67899199D01*
X182349323Y-67931699D01*
X182390430Y-67953703D01*
X182401226Y-67962564D01*
X182392819Y-67989640D01*
X182370272Y-68040303D01*
X182337613Y-68105817D01*
X182318520Y-68141841D01*
X182235800Y-68294832D01*
X182359075Y-68477088D01*
X182422228Y-68570125D01*
X182491727Y-68671985D01*
X182557165Y-68767438D01*
X182590117Y-68815250D01*
X182635273Y-68882495D01*
X182671057Y-68939436D01*
X182692938Y-68978646D01*
X182697563Y-68991381D01*
X182685085Y-69009917D01*
X182650252Y-69050941D01*
X182596678Y-69110475D01*
X182527983Y-69184542D01*
X182447781Y-69269165D01*
X182396286Y-69322685D01*
X182304286Y-69416319D01*
X182221999Y-69497241D01*
X182152945Y-69562177D01*
X182100644Y-69607858D01*
X182068616Y-69631011D01*
X182062116Y-69633232D01*
X182037394Y-69622924D01*
X181987405Y-69594439D01*
X181917212Y-69550937D01*
X181831875Y-69495577D01*
X181736456Y-69431520D01*
X181709854Y-69413303D01*
X181613167Y-69346927D01*
X181526117Y-69287378D01*
X181453595Y-69237984D01*
X181400493Y-69202075D01*
X181371703Y-69182981D01*
X181368726Y-69181136D01*
X181345782Y-69183895D01*
X181295336Y-69198538D01*
X181224041Y-69222513D01*
X181138547Y-69253266D01*
X181045507Y-69288244D01*
X180951574Y-69324893D01*
X180863399Y-69360661D01*
X180787634Y-69392994D01*
X180730931Y-69419338D01*
X180699943Y-69437142D01*
X180698457Y-69438407D01*
X180689601Y-69449294D01*
X180680843Y-69467682D01*
X180671277Y-69497606D01*
X180659996Y-69543103D01*
X180646093Y-69608209D01*
X180628663Y-69696961D01*
X180606798Y-69813393D01*
X180579591Y-69961542D01*
X180573741Y-69993618D01*
X180555374Y-70088686D01*
X180537405Y-70171565D01*
X180521569Y-70234930D01*
X180509600Y-70271458D01*
X180506810Y-70276356D01*
X180482072Y-70284427D01*
X180426790Y-70290987D01*
X180347389Y-70296033D01*
X180250296Y-70299559D01*
X180141938Y-70301561D01*
X180028740Y-70302036D01*
X179917128Y-70300977D01*
X179813529Y-70298382D01*
X179724368Y-70294246D01*
X179656072Y-70288563D01*
X179615066Y-70281331D01*
X179606674Y-70276971D01*
X179598208Y-70252698D01*
X179584435Y-70197426D01*
X179566550Y-70116662D01*
X179545748Y-70015912D01*
X179523223Y-69900683D01*
X179511418Y-69837902D01*
X179489151Y-69718787D01*
X179468979Y-69612565D01*
X179451915Y-69524427D01*
X179438969Y-69459566D01*
X179431155Y-69423174D01*
X179429422Y-69417184D01*
X179409890Y-69407061D01*
X179362843Y-69385662D01*
X179295003Y-69355839D01*
X179213091Y-69320445D01*
X179123828Y-69282332D01*
X179033935Y-69244353D01*
X178950135Y-69209360D01*
X178879147Y-69180206D01*
X178827694Y-69159743D01*
X178802497Y-69150823D01*
X178801396Y-69150657D01*
X178781519Y-69160769D01*
X178735777Y-69189117D01*
X178668717Y-69232723D01*
X178584884Y-69288606D01*
X178488826Y-69353787D01*
X178433650Y-69391679D01*
X178332481Y-69460725D01*
X178240630Y-69522050D01*
X178162744Y-69572663D01*
X178103469Y-69609571D01*
X178067451Y-69629782D01*
X178059377Y-69632701D01*
X178040584Y-69620153D01*
X178000457Y-69585463D01*
X177943493Y-69533063D01*
X177874185Y-69467384D01*
X177797031Y-69392856D01*
X177716525Y-69313913D01*
X177637163Y-69234983D01*
X177563440Y-69160500D01*
X177499852Y-69094894D01*
X177450894Y-69042596D01*
X177421061Y-69008039D01*
X177413942Y-68996478D01*
X177423953Y-68977654D01*
X177452078Y-68932631D01*
X177495454Y-68865787D01*
X177551218Y-68781499D01*
X177616506Y-68684144D01*
X177666246Y-68610707D01*
X177918551Y-68239667D01*
X177663555Y-67621095D01*
X177218931Y-67537275D01*
X176774307Y-67453454D01*
X176774307Y-66528006D01*
X177218931Y-66444186D01*
X177663555Y-66360365D01*
X177791053Y-66051080D01*
X177918551Y-65741794D01*
X177666246Y-65370754D01*
X177595996Y-65266843D01*
X177533272Y-65172913D01*
X177480938Y-65093348D01*
X177441857Y-65032530D01*
X177418893Y-64994843D01*
X177413942Y-64984579D01*
X177426676Y-64966090D01*
X177461882Y-64926580D01*
X177515062Y-64870478D01*
X177581718Y-64802213D01*
X177657354Y-64726214D01*
X177737472Y-64646908D01*
X177817574Y-64568725D01*
X177893164Y-64496093D01*
X177959745Y-64433441D01*
X178012818Y-64385197D01*
X178047887Y-64355790D01*
X178059623Y-64348759D01*
X178081260Y-64358877D01*
X178128662Y-64387241D01*
X178197193Y-64430871D01*
X178282215Y-64486782D01*
X178379093Y-64551994D01*
X178434350Y-64589781D01*
X178535248Y-64658657D01*
X178626299Y-64719860D01*
X178702970Y-64770422D01*
X178760728Y-64807372D01*
X178795043Y-64827742D01*
X178802254Y-64830803D01*
X178822748Y-64823864D01*
X178870513Y-64804949D01*
X178938832Y-64776913D01*
X179020989Y-64742609D01*
X179110270Y-64704891D01*
X179199958Y-64666613D01*
X179283338Y-64630630D01*
X179353694Y-64599794D01*
X179404310Y-64576961D01*
X179428471Y-64564983D01*
X179429422Y-64564276D01*
X179434036Y-64545469D01*
X179444328Y-64495382D01*
X179459287Y-64419207D01*
X179477901Y-64322135D01*
X179499159Y-64209357D01*
X179511418Y-64143558D01*
X179534362Y-64023050D01*
X179556195Y-63914203D01*
X179575722Y-63822524D01*
X179591748Y-63753519D01*
X179603079Y-63712696D01*
X179606674Y-63704489D01*
X179631006Y-63696452D01*
X179685959Y-63689967D01*
X179765108Y-63685030D01*
X179862026Y-63681636D01*
X179970287Y-63679782D01*
X180083465Y-63679462D01*
X180195135Y-63680673D01*
G37*
D11*
X197385000Y-37091252D02*
X197385000Y-36568748D01*
X198855000Y-37091252D02*
X198855000Y-36568748D01*
X191802500Y-78990000D02*
X193322500Y-78990000D01*
X191802500Y-79990000D02*
X191802500Y-78990000D01*
X191802500Y-82110000D02*
X191802500Y-81110000D01*
X193322500Y-78990000D02*
X193322500Y-79040000D01*
X193322500Y-80160000D02*
X193322500Y-80940000D01*
X193322500Y-82060000D02*
X193322500Y-82110000D01*
X193322500Y-82110000D02*
X191802500Y-82110000D01*
X193862500Y-80930000D02*
X193622500Y-80600000D01*
X194102500Y-80600000D01*
X193862500Y-80930000D01*
G36*
X193862500Y-80930000D02*
G01*
X193622500Y-80600000D01*
X194102500Y-80600000D01*
X193862500Y-80930000D01*
G37*
X187596000Y-64914000D02*
X188976000Y-64914000D01*
X187596000Y-66294000D02*
X187596000Y-64914000D01*
X187596000Y-67564000D02*
X187596000Y-72754000D01*
X187596000Y-67564000D02*
X190356000Y-67564000D01*
X187596000Y-72754000D02*
X190356000Y-72754000D01*
X190356000Y-67564000D02*
X190356000Y-72754000D01*
X203735000Y-61140748D02*
X203735000Y-61663252D01*
X205205000Y-61140748D02*
X205205000Y-61663252D01*
X227043748Y-41125500D02*
X227566252Y-41125500D01*
X227043748Y-42595500D02*
X227566252Y-42595500D01*
X210847000Y-61140748D02*
X210847000Y-61663252D01*
X212317000Y-61140748D02*
X212317000Y-61663252D01*
X186971000Y-61591564D02*
X186971000Y-61137436D01*
X188441000Y-61591564D02*
X188441000Y-61137436D01*
X189511000Y-61140748D02*
X189511000Y-61663252D01*
X190981000Y-61140748D02*
X190981000Y-61663252D01*
G36*
X180029039Y-33547685D02*
G01*
X180074794Y-33600489D01*
X180086000Y-33652000D01*
X180086000Y-37976000D01*
X180066315Y-38043039D01*
X180013511Y-38088794D01*
X179962000Y-38100000D01*
X178686000Y-38100000D01*
X178618961Y-38080315D01*
X178573206Y-38027511D01*
X178562000Y-37976000D01*
X178562000Y-33652000D01*
X178581685Y-33584961D01*
X178634489Y-33539206D01*
X178686000Y-33528000D01*
X179962000Y-33528000D01*
X180029039Y-33547685D01*
G37*
G36*
X182315039Y-45231685D02*
G01*
X182360794Y-45284489D01*
X182372000Y-45336000D01*
X182372000Y-46104000D01*
X182352315Y-46171039D01*
X182299511Y-46216794D01*
X182248000Y-46228000D01*
X181480000Y-46228000D01*
X181412961Y-46208315D01*
X181367206Y-46155511D01*
X181356000Y-46104000D01*
X181356000Y-45336000D01*
X181375685Y-45268961D01*
X181428489Y-45223206D01*
X181480000Y-45212000D01*
X182248000Y-45212000D01*
X182315039Y-45231685D01*
G37*
G36*
X182315039Y-33547685D02*
G01*
X182360794Y-33600489D01*
X182372000Y-33652000D01*
X182372000Y-34420000D01*
X182352315Y-34487039D01*
X182299511Y-34532794D01*
X182248000Y-34544000D01*
X181480000Y-34544000D01*
X181412961Y-34524315D01*
X181367206Y-34471511D01*
X181356000Y-34420000D01*
X181356000Y-33652000D01*
X181375685Y-33584961D01*
X181428489Y-33539206D01*
X181480000Y-33528000D01*
X182248000Y-33528000D01*
X182315039Y-33547685D01*
G37*
G36*
X182569039Y-47517685D02*
G01*
X182614794Y-47570489D01*
X182626000Y-47622000D01*
X182626000Y-51946000D01*
X182606315Y-52013039D01*
X182553511Y-52058794D01*
X182502000Y-52070000D01*
X181226000Y-52070000D01*
X181158961Y-52050315D01*
X181113206Y-51997511D01*
X181102000Y-51946000D01*
X181102000Y-47622000D01*
X181121685Y-47554961D01*
X181174489Y-47509206D01*
X181226000Y-47498000D01*
X182502000Y-47498000D01*
X182569039Y-47517685D01*
G37*
G36*
X180029039Y-45231685D02*
G01*
X180074794Y-45284489D01*
X180086000Y-45336000D01*
X180086000Y-49660000D01*
X180066315Y-49727039D01*
X180013511Y-49772794D01*
X179962000Y-49784000D01*
X178686000Y-49784000D01*
X178618961Y-49764315D01*
X178573206Y-49711511D01*
X178562000Y-49660000D01*
X178562000Y-45336000D01*
X178581685Y-45268961D01*
X178634489Y-45223206D01*
X178686000Y-45212000D01*
X179962000Y-45212000D01*
X180029039Y-45231685D01*
G37*
G36*
X179775039Y-39389685D02*
G01*
X179820794Y-39442489D01*
X179832000Y-39494000D01*
X179832000Y-40262000D01*
X179812315Y-40329039D01*
X179759511Y-40374794D01*
X179708000Y-40386000D01*
X178940000Y-40386000D01*
X178872961Y-40366315D01*
X178827206Y-40313511D01*
X178816000Y-40262000D01*
X178816000Y-39494000D01*
X178835685Y-39426961D01*
X178888489Y-39381206D01*
X178940000Y-39370000D01*
X179708000Y-39370000D01*
X179775039Y-39389685D01*
G37*
G36*
X182569039Y-35833685D02*
G01*
X182614794Y-35886489D01*
X182626000Y-35938000D01*
X182626000Y-40262000D01*
X182606315Y-40329039D01*
X182553511Y-40374794D01*
X182502000Y-40386000D01*
X181226000Y-40386000D01*
X181158961Y-40366315D01*
X181113206Y-40313511D01*
X181102000Y-40262000D01*
X181102000Y-35938000D01*
X181121685Y-35870961D01*
X181174489Y-35825206D01*
X181226000Y-35814000D01*
X182502000Y-35814000D01*
X182569039Y-35833685D01*
G37*
G36*
X179775039Y-51073685D02*
G01*
X179820794Y-51126489D01*
X179832000Y-51178000D01*
X179832000Y-51946000D01*
X179812315Y-52013039D01*
X179759511Y-52058794D01*
X179708000Y-52070000D01*
X178940000Y-52070000D01*
X178872961Y-52050315D01*
X178827206Y-51997511D01*
X178816000Y-51946000D01*
X178816000Y-51178000D01*
X178835685Y-51110961D01*
X178888489Y-51065206D01*
X178940000Y-51054000D01*
X179708000Y-51054000D01*
X179775039Y-51073685D01*
G37*
%LPC*%
D13*
X203200000Y-66294000D03*
D14*
X203200000Y-68834000D03*
X203200000Y-71374000D03*
D15*
X191008000Y-37780000D03*
X191008000Y-35880000D03*
D16*
X226430000Y-46432500D03*
X228255000Y-46432500D03*
D17*
X225250000Y-70250000D03*
X227150000Y-70250000D03*
D18*
X219801000Y-54814500D03*
X223501000Y-54814500D03*
D17*
X226355000Y-51004500D03*
X228255000Y-51004500D03*
D15*
X205232000Y-37780000D03*
X205232000Y-35880000D03*
D13*
X195834000Y-47244000D03*
D14*
X195834000Y-44704000D03*
X195834000Y-42164000D03*
D13*
X202946000Y-47244000D03*
D14*
X202946000Y-44704000D03*
X202946000Y-42164000D03*
D15*
X212344000Y-37780000D03*
X212344000Y-35880000D03*
D19*
X185166000Y-47244000D03*
X185166000Y-49069000D03*
D20*
X195834000Y-28326500D03*
D21*
X193294000Y-28326500D03*
D22*
X186436000Y-37880000D03*
X186436000Y-35780000D03*
X207772000Y-37914000D03*
X207772000Y-35814000D03*
D19*
X206502000Y-47244000D03*
X206502000Y-49069000D03*
D23*
X201930000Y-62277000D03*
X201930000Y-60452000D03*
D13*
X210058000Y-47244000D03*
D14*
X210058000Y-44704000D03*
X210058000Y-42164000D03*
D23*
X195834000Y-37742500D03*
X195834000Y-35917500D03*
D17*
X219751000Y-49988500D03*
X221651000Y-49988500D03*
D23*
X209042000Y-62277000D03*
X209042000Y-60452000D03*
D24*
X227162500Y-80662500D03*
X227162500Y-80162500D03*
X227162500Y-79662500D03*
X227162500Y-79162500D03*
X227162500Y-78662500D03*
X227162500Y-78162500D03*
X227162500Y-77662500D03*
X227162500Y-77162500D03*
X227162500Y-76662500D03*
X227162500Y-76162500D03*
X227162500Y-75662500D03*
X227162500Y-75162500D03*
D25*
X225750000Y-73750000D03*
X225250000Y-73750000D03*
X224750000Y-73750000D03*
X224250000Y-73750000D03*
X223750000Y-73750000D03*
X223250000Y-73750000D03*
X222750000Y-73750000D03*
X222250000Y-73750000D03*
X221750000Y-73750000D03*
X221250000Y-73750000D03*
X220750000Y-73750000D03*
X220250000Y-73750000D03*
D24*
X218837500Y-75162500D03*
X218837500Y-75662500D03*
X218837500Y-76162500D03*
X218837500Y-76662500D03*
X218837500Y-77162500D03*
X218837500Y-77662500D03*
X218837500Y-78162500D03*
X218837500Y-78662500D03*
X218837500Y-79162500D03*
X218837500Y-79662500D03*
X218837500Y-80162500D03*
X218837500Y-80662500D03*
D25*
X220250000Y-82075000D03*
X220750000Y-82075000D03*
X221250000Y-82075000D03*
X221750000Y-82075000D03*
X222250000Y-82075000D03*
X222750000Y-82075000D03*
X223250000Y-82075000D03*
X223750000Y-82075000D03*
X224250000Y-82075000D03*
X224750000Y-82075000D03*
X225250000Y-82075000D03*
X225750000Y-82075000D03*
D19*
X199390000Y-47244000D03*
X199390000Y-49069000D03*
D26*
X179000000Y-27500000D03*
D13*
X196088000Y-66294000D03*
D14*
X196088000Y-68834000D03*
X196088000Y-71374000D03*
D15*
X206502000Y-45400000D03*
X206502000Y-43500000D03*
D27*
X217000000Y-66500000D03*
X218875000Y-66500000D03*
D28*
X194691000Y-57085000D03*
X195961000Y-57085000D03*
X197231000Y-57085000D03*
X198501000Y-57085000D03*
X198501000Y-52135000D03*
X197231000Y-52135000D03*
X195961000Y-52135000D03*
X194691000Y-52135000D03*
D26*
X226250000Y-27500000D03*
D20*
X210058000Y-28326500D03*
D21*
X207518000Y-28326500D03*
D29*
X197358000Y-60452000D03*
X197358000Y-62352000D03*
D23*
X194818000Y-62277000D03*
X194818000Y-60452000D03*
D30*
X219000000Y-36250000D03*
X221975000Y-36250000D03*
D13*
X210312000Y-66294000D03*
D14*
X210312000Y-68834000D03*
X210312000Y-71374000D03*
D31*
X222534500Y-47382500D03*
X222534500Y-46432500D03*
X222534500Y-45482500D03*
X220259500Y-45482500D03*
X220259500Y-46432500D03*
X220259500Y-47382500D03*
D22*
X193548000Y-37880000D03*
X193548000Y-35780000D03*
D32*
X225250000Y-65040000D03*
D21*
X225250000Y-62500000D03*
D17*
X226355000Y-44146500D03*
X228255000Y-44146500D03*
D22*
X200660000Y-37914000D03*
X200660000Y-35814000D03*
D15*
X199390000Y-45400000D03*
X199390000Y-43500000D03*
D20*
X188722000Y-28326500D03*
D21*
X186182000Y-28326500D03*
D28*
X187579000Y-57085000D03*
X188849000Y-57085000D03*
X190119000Y-57085000D03*
X191389000Y-57085000D03*
X191389000Y-52135000D03*
X190119000Y-52135000D03*
X188849000Y-52135000D03*
X187579000Y-52135000D03*
D33*
X218825000Y-70250000D03*
X217000000Y-70250000D03*
D34*
X205875001Y-82625001D03*
D35*
X203375001Y-82625001D03*
X203375001Y-85825001D03*
X205875001Y-85825001D03*
D36*
X198605001Y-85335001D03*
X210645001Y-85335001D03*
D23*
X188722000Y-37742500D03*
X188722000Y-35917500D03*
D28*
X201803000Y-57085000D03*
X203073000Y-57085000D03*
X204343000Y-57085000D03*
X205613000Y-57085000D03*
X205613000Y-52135000D03*
X204343000Y-52135000D03*
X203073000Y-52135000D03*
X201803000Y-52135000D03*
D37*
X223150000Y-70250000D03*
X221250000Y-70250000D03*
D13*
X188722000Y-47244000D03*
D14*
X188722000Y-44704000D03*
X188722000Y-42164000D03*
D23*
X210058000Y-37742500D03*
X210058000Y-35917500D03*
D20*
X202946000Y-28326500D03*
D21*
X200406000Y-28326500D03*
D23*
X202946000Y-37742500D03*
X202946000Y-35917500D03*
D19*
X192278000Y-47244000D03*
X192278000Y-49069000D03*
D20*
X218948000Y-28326500D03*
D21*
X216408000Y-28326500D03*
D17*
X226355000Y-39611000D03*
X228255000Y-39611000D03*
D26*
X226250000Y-90000000D03*
D38*
X222975000Y-40500000D03*
X218975000Y-40500000D03*
D26*
X179000000Y-90000000D03*
D17*
X226355000Y-48718500D03*
X228255000Y-48718500D03*
D15*
X185166000Y-45400000D03*
X185166000Y-43500000D03*
X192278000Y-45400000D03*
X192278000Y-43500000D03*
D28*
X208915000Y-57020000D03*
X210185000Y-57020000D03*
X211455000Y-57020000D03*
X212725000Y-57020000D03*
X212725000Y-52070000D03*
X211455000Y-52070000D03*
X210185000Y-52070000D03*
X208915000Y-52070000D03*
D15*
X198120000Y-37780000D03*
X198120000Y-35880000D03*
D39*
X193500000Y-81500000D03*
X193500000Y-79600000D03*
X191625000Y-80550000D03*
D13*
X188976000Y-66294000D03*
D14*
X188976000Y-68834000D03*
X188976000Y-71374000D03*
D29*
X204470000Y-60452000D03*
X204470000Y-62352000D03*
D17*
X226355000Y-41860500D03*
X228255000Y-41860500D03*
D29*
X211582000Y-60452000D03*
X211582000Y-62352000D03*
D23*
X187706000Y-62277000D03*
X187706000Y-60452000D03*
D29*
X190246000Y-60452000D03*
X190246000Y-62352000D03*
%LPD*%
M02*
