G04 #@! TF.GenerationSoftware,KiCad,Pcbnew,9.0.7*
G04 #@! TF.CreationDate,2026-01-25T06:09:59+01:00*
G04 #@! TF.ProjectId,usb2lin,75736232-6c69-46e2-9e6b-696361645f70,rev?*
G04 #@! TF.SameCoordinates,Original*
G04 #@! TF.FileFunction,Legend,Bot*
G04 #@! TF.FilePolarity,Positive*
%FSLAX46Y46*%
G04 Gerber Fmt 4.6, Leading zero omitted, Abs format (unit mm)*
G04 Created by KiCad (PCBNEW 9.0.7) date 2026-01-25 06:09:59*
%MOMM*%
%LPD*%
G01*
G04 APERTURE LIST*
G04 Aperture macros list*
%AMRoundRect*
0 Rectangle with rounded corners*
0 $1 Rounding radius*
0 $2 $3 $4 $5 $6 $7 $8 $9 X,Y pos of 4 corners*
0 Add a 4 corners polygon primitive as box body*
4,1,4,$2,$3,$4,$5,$6,$7,$8,$9,$2,$3,0*
0 Add four circle primitives for the rounded corners*
1,1,$1+$1,$2,$3*
1,1,$1+$1,$4,$5*
1,1,$1+$1,$6,$7*
1,1,$1+$1,$8,$9*
0 Add four rect primitives between the rounded corners*
20,1,$1+$1,$2,$3,$4,$5,0*
20,1,$1+$1,$4,$5,$6,$7,0*
20,1,$1+$1,$6,$7,$8,$9,0*
20,1,$1+$1,$8,$9,$2,$3,0*%
G04 Aperture macros list end*
%ADD10R,1.700000X1.700000*%
%ADD11C,1.700000*%
%ADD12RoundRect,0.250001X0.799999X0.799999X-0.799999X0.799999X-0.799999X-0.799999X0.799999X-0.799999X0*%
%ADD13C,2.100000*%
%ADD14C,3.200000*%
%ADD15RoundRect,0.250001X0.799999X-0.799999X0.799999X0.799999X-0.799999X0.799999X-0.799999X-0.799999X0*%
%ADD16R,1.400000X1.400000*%
%ADD17C,1.400000*%
%ADD18C,3.000000*%
G04 APERTURE END LIST*
%LPC*%
D10*
X203200000Y-66294000D03*
D11*
X203200000Y-68834000D03*
X203200000Y-71374000D03*
D10*
X195834000Y-47244000D03*
D11*
X195834000Y-44704000D03*
X195834000Y-42164000D03*
D10*
X202946000Y-47244000D03*
D11*
X202946000Y-44704000D03*
X202946000Y-42164000D03*
D12*
X195834000Y-28326500D03*
D13*
X193294000Y-28326500D03*
D10*
X210058000Y-47244000D03*
D11*
X210058000Y-44704000D03*
X210058000Y-42164000D03*
D14*
X179000000Y-27500000D03*
D10*
X196088000Y-66294000D03*
D11*
X196088000Y-68834000D03*
X196088000Y-71374000D03*
D14*
X226250000Y-27500000D03*
D12*
X210058000Y-28326500D03*
D13*
X207518000Y-28326500D03*
D10*
X210312000Y-66294000D03*
D11*
X210312000Y-68834000D03*
X210312000Y-71374000D03*
D15*
X225250000Y-65040000D03*
D13*
X225250000Y-62500000D03*
D12*
X188722000Y-28326500D03*
D13*
X186182000Y-28326500D03*
D16*
X205875001Y-82625001D03*
D17*
X203375001Y-82625001D03*
X203375001Y-85825001D03*
X205875001Y-85825001D03*
D18*
X198605001Y-85335001D03*
X210645001Y-85335001D03*
D10*
X188722000Y-47244000D03*
D11*
X188722000Y-44704000D03*
X188722000Y-42164000D03*
D12*
X202946000Y-28326500D03*
D13*
X200406000Y-28326500D03*
D12*
X218948000Y-28326500D03*
D13*
X216408000Y-28326500D03*
D14*
X226250000Y-90000000D03*
X179000000Y-90000000D03*
D10*
X188976000Y-66294000D03*
D11*
X188976000Y-68834000D03*
X188976000Y-71374000D03*
%LPD*%
M02*
