M48
; DRILL file {KiCad 9.0.7} date 2026-01-25T06:10:03+0100
; FORMAT={-:-/ absolute / metric / decimal}
; #@! TF.CreationDate,2026-01-25T06:10:03+01:00
; #@! TF.GenerationSoftware,Kicad,Pcbnew,9.0.7
; #@! TF.FileFunction,Plated,1,2,PTH
FMAT,2
METRIC
; #@! TA.AperFunction,Plated,PTH,ViaDrill
T1C0.300
; #@! TA.AperFunction,Plated,PTH,ComponentDrill
T2C0.920
; #@! TA.AperFunction,Plated,PTH,ComponentDrill
T3C1.000
; #@! TA.AperFunction,Plated,PTH,ComponentDrill
T4C1.100
; #@! TA.AperFunction,Plated,PTH,ComponentDrill
T5C2.300
%
G90
G05
T1
X187.579Y-55.372
X191.389Y-55.372
X194.691Y-55.372
X198.501Y-55.372
X201.804Y-55.372
X205.613Y-55.372
X208.915Y-55.372
X212.725Y-55.372
X220.338Y-75.869
X220.391Y-80.046
X220.988Y-77.306
X220.988Y-78.576
X221.608Y-75.869
X221.661Y-80.046
X223.175Y-80.051
X225.102Y-76.253
X225.102Y-77.523
T2
X203.375Y-82.625
X203.375Y-85.825
X205.875Y-82.625
X205.875Y-85.825
T3
X188.722Y-42.164
X188.722Y-44.704
X188.722Y-47.244
X188.976Y-66.294
X188.976Y-68.834
X188.976Y-71.374
X195.834Y-42.164
X195.834Y-44.704
X195.834Y-47.244
X196.088Y-66.294
X196.088Y-68.834
X196.088Y-71.374
X202.946Y-42.164
X202.946Y-44.704
X202.946Y-47.244
X203.2Y-66.294
X203.2Y-68.834
X203.2Y-71.374
X210.058Y-42.164
X210.058Y-44.704
X210.058Y-47.244
X210.312Y-66.294
X210.312Y-68.834
X210.312Y-71.374
T4
X186.182Y-28.326
X188.722Y-28.326
X193.294Y-28.326
X195.834Y-28.326
X200.406Y-28.326
X202.946Y-28.326
X207.518Y-28.326
X210.058Y-28.326
X216.408Y-28.326
X218.948Y-28.326
X225.25Y-62.5
X225.25Y-65.04
T5
X198.605Y-85.335
X210.645Y-85.335
M30
