%TF.GenerationSoftware,KiCad,Pcbnew,9.0.7*%
%TF.CreationDate,2026-01-25T06:10:03+01:00*%
%TF.ProjectId,usb2lin,75736232-6c69-46e2-9e6b-696361645f70,rev?*%
%TF.SameCoordinates,Original*%
%TF.FileFunction,Drillmap*%
%TF.FilePolarity,Positive*%
%FSLAX45Y45*%
G04 Gerber Fmt 4.5, Leading zero omitted, Abs format (unit mm)*
G04 Created by KiCad (PCBNEW 9.0.7) date 2026-01-25 06:10:03*
%MOMM*%
%LPD*%
G01*
G04 APERTURE LIST*
%ADD10C,0.050000*%
%ADD11C,0.200000*%
%ADD12C,0.320000*%
G04 APERTURE END LIST*
D10*
X17500000Y-2350000D02*
X23025000Y-2350000D01*
X23025000Y-9400000D01*
X17500000Y-9400000D01*
X17500000Y-2350000D01*
D11*
D12*
X17740000Y-2590000D02*
X18060000Y-2910000D01*
X18060000Y-2590000D02*
X17740000Y-2910000D01*
X17740000Y-8840000D02*
X18060000Y-9160000D01*
X18060000Y-8840000D02*
X17740000Y-9160000D01*
X22465000Y-2590000D02*
X22785000Y-2910000D01*
X22785000Y-2590000D02*
X22465000Y-2910000D01*
X22465000Y-8840000D02*
X22785000Y-9160000D01*
X22785000Y-8840000D02*
X22465000Y-9160000D01*
D11*
X17758277Y-9713984D02*
X17758277Y-9513984D01*
X17758277Y-9513984D02*
X17805896Y-9513984D01*
X17805896Y-9513984D02*
X17834467Y-9523508D01*
X17834467Y-9523508D02*
X17853515Y-9542555D01*
X17853515Y-9542555D02*
X17863039Y-9561603D01*
X17863039Y-9561603D02*
X17872563Y-9599698D01*
X17872563Y-9599698D02*
X17872563Y-9628270D01*
X17872563Y-9628270D02*
X17863039Y-9666365D01*
X17863039Y-9666365D02*
X17853515Y-9685412D01*
X17853515Y-9685412D02*
X17834467Y-9704460D01*
X17834467Y-9704460D02*
X17805896Y-9713984D01*
X17805896Y-9713984D02*
X17758277Y-9713984D01*
X17958277Y-9713984D02*
X17958277Y-9580650D01*
X17958277Y-9618746D02*
X17967801Y-9599698D01*
X17967801Y-9599698D02*
X17977324Y-9590174D01*
X17977324Y-9590174D02*
X17996372Y-9580650D01*
X17996372Y-9580650D02*
X18015420Y-9580650D01*
X18082086Y-9713984D02*
X18082086Y-9580650D01*
X18082086Y-9513984D02*
X18072563Y-9523508D01*
X18072563Y-9523508D02*
X18082086Y-9533031D01*
X18082086Y-9533031D02*
X18091610Y-9523508D01*
X18091610Y-9523508D02*
X18082086Y-9513984D01*
X18082086Y-9513984D02*
X18082086Y-9533031D01*
X18205896Y-9713984D02*
X18186848Y-9704460D01*
X18186848Y-9704460D02*
X18177324Y-9685412D01*
X18177324Y-9685412D02*
X18177324Y-9513984D01*
X18310658Y-9713984D02*
X18291610Y-9704460D01*
X18291610Y-9704460D02*
X18282086Y-9685412D01*
X18282086Y-9685412D02*
X18282086Y-9513984D01*
X18539229Y-9713984D02*
X18539229Y-9513984D01*
X18539229Y-9513984D02*
X18605896Y-9656841D01*
X18605896Y-9656841D02*
X18672563Y-9513984D01*
X18672563Y-9513984D02*
X18672563Y-9713984D01*
X18853515Y-9713984D02*
X18853515Y-9609222D01*
X18853515Y-9609222D02*
X18843991Y-9590174D01*
X18843991Y-9590174D02*
X18824944Y-9580650D01*
X18824944Y-9580650D02*
X18786848Y-9580650D01*
X18786848Y-9580650D02*
X18767801Y-9590174D01*
X18853515Y-9704460D02*
X18834467Y-9713984D01*
X18834467Y-9713984D02*
X18786848Y-9713984D01*
X18786848Y-9713984D02*
X18767801Y-9704460D01*
X18767801Y-9704460D02*
X18758277Y-9685412D01*
X18758277Y-9685412D02*
X18758277Y-9666365D01*
X18758277Y-9666365D02*
X18767801Y-9647317D01*
X18767801Y-9647317D02*
X18786848Y-9637793D01*
X18786848Y-9637793D02*
X18834467Y-9637793D01*
X18834467Y-9637793D02*
X18853515Y-9628270D01*
X18948753Y-9580650D02*
X18948753Y-9780650D01*
X18948753Y-9590174D02*
X18967801Y-9580650D01*
X18967801Y-9580650D02*
X19005896Y-9580650D01*
X19005896Y-9580650D02*
X19024944Y-9590174D01*
X19024944Y-9590174D02*
X19034467Y-9599698D01*
X19034467Y-9599698D02*
X19043991Y-9618746D01*
X19043991Y-9618746D02*
X19043991Y-9675889D01*
X19043991Y-9675889D02*
X19034467Y-9694936D01*
X19034467Y-9694936D02*
X19024944Y-9704460D01*
X19024944Y-9704460D02*
X19005896Y-9713984D01*
X19005896Y-9713984D02*
X18967801Y-9713984D01*
X18967801Y-9713984D02*
X18948753Y-9704460D01*
X19129705Y-9694936D02*
X19139229Y-9704460D01*
X19139229Y-9704460D02*
X19129705Y-9713984D01*
X19129705Y-9713984D02*
X19120182Y-9704460D01*
X19120182Y-9704460D02*
X19129705Y-9694936D01*
X19129705Y-9694936D02*
X19129705Y-9713984D01*
X19129705Y-9590174D02*
X19139229Y-9599698D01*
X19139229Y-9599698D02*
X19129705Y-9609222D01*
X19129705Y-9609222D02*
X19120182Y-9599698D01*
X19120182Y-9599698D02*
X19129705Y-9590174D01*
X19129705Y-9590174D02*
X19129705Y-9609222D01*
X17297500Y-9942500D02*
X17497500Y-10142500D01*
X17497500Y-9942500D02*
X17297500Y-10142500D01*
X17739229Y-9933984D02*
X17863039Y-9933984D01*
X17863039Y-9933984D02*
X17796372Y-10010174D01*
X17796372Y-10010174D02*
X17824944Y-10010174D01*
X17824944Y-10010174D02*
X17843991Y-10019698D01*
X17843991Y-10019698D02*
X17853515Y-10029222D01*
X17853515Y-10029222D02*
X17863039Y-10048270D01*
X17863039Y-10048270D02*
X17863039Y-10095889D01*
X17863039Y-10095889D02*
X17853515Y-10114936D01*
X17853515Y-10114936D02*
X17843991Y-10124460D01*
X17843991Y-10124460D02*
X17824944Y-10133984D01*
X17824944Y-10133984D02*
X17767801Y-10133984D01*
X17767801Y-10133984D02*
X17748753Y-10124460D01*
X17748753Y-10124460D02*
X17739229Y-10114936D01*
X17948753Y-10114936D02*
X17958277Y-10124460D01*
X17958277Y-10124460D02*
X17948753Y-10133984D01*
X17948753Y-10133984D02*
X17939229Y-10124460D01*
X17939229Y-10124460D02*
X17948753Y-10114936D01*
X17948753Y-10114936D02*
X17948753Y-10133984D01*
X18034467Y-9953031D02*
X18043991Y-9943508D01*
X18043991Y-9943508D02*
X18063039Y-9933984D01*
X18063039Y-9933984D02*
X18110658Y-9933984D01*
X18110658Y-9933984D02*
X18129705Y-9943508D01*
X18129705Y-9943508D02*
X18139229Y-9953031D01*
X18139229Y-9953031D02*
X18148753Y-9972079D01*
X18148753Y-9972079D02*
X18148753Y-9991127D01*
X18148753Y-9991127D02*
X18139229Y-10019698D01*
X18139229Y-10019698D02*
X18024944Y-10133984D01*
X18024944Y-10133984D02*
X18148753Y-10133984D01*
X18272563Y-9933984D02*
X18291610Y-9933984D01*
X18291610Y-9933984D02*
X18310658Y-9943508D01*
X18310658Y-9943508D02*
X18320182Y-9953031D01*
X18320182Y-9953031D02*
X18329705Y-9972079D01*
X18329705Y-9972079D02*
X18339229Y-10010174D01*
X18339229Y-10010174D02*
X18339229Y-10057793D01*
X18339229Y-10057793D02*
X18329705Y-10095889D01*
X18329705Y-10095889D02*
X18320182Y-10114936D01*
X18320182Y-10114936D02*
X18310658Y-10124460D01*
X18310658Y-10124460D02*
X18291610Y-10133984D01*
X18291610Y-10133984D02*
X18272563Y-10133984D01*
X18272563Y-10133984D02*
X18253515Y-10124460D01*
X18253515Y-10124460D02*
X18243991Y-10114936D01*
X18243991Y-10114936D02*
X18234467Y-10095889D01*
X18234467Y-10095889D02*
X18224944Y-10057793D01*
X18224944Y-10057793D02*
X18224944Y-10010174D01*
X18224944Y-10010174D02*
X18234467Y-9972079D01*
X18234467Y-9972079D02*
X18243991Y-9953031D01*
X18243991Y-9953031D02*
X18253515Y-9943508D01*
X18253515Y-9943508D02*
X18272563Y-9933984D01*
X18463039Y-9933984D02*
X18482086Y-9933984D01*
X18482086Y-9933984D02*
X18501134Y-9943508D01*
X18501134Y-9943508D02*
X18510658Y-9953031D01*
X18510658Y-9953031D02*
X18520182Y-9972079D01*
X18520182Y-9972079D02*
X18529705Y-10010174D01*
X18529705Y-10010174D02*
X18529705Y-10057793D01*
X18529705Y-10057793D02*
X18520182Y-10095889D01*
X18520182Y-10095889D02*
X18510658Y-10114936D01*
X18510658Y-10114936D02*
X18501134Y-10124460D01*
X18501134Y-10124460D02*
X18482086Y-10133984D01*
X18482086Y-10133984D02*
X18463039Y-10133984D01*
X18463039Y-10133984D02*
X18443991Y-10124460D01*
X18443991Y-10124460D02*
X18434467Y-10114936D01*
X18434467Y-10114936D02*
X18424944Y-10095889D01*
X18424944Y-10095889D02*
X18415420Y-10057793D01*
X18415420Y-10057793D02*
X18415420Y-10010174D01*
X18415420Y-10010174D02*
X18424944Y-9972079D01*
X18424944Y-9972079D02*
X18434467Y-9953031D01*
X18434467Y-9953031D02*
X18443991Y-9943508D01*
X18443991Y-9943508D02*
X18463039Y-9933984D01*
X18615420Y-10133984D02*
X18615420Y-10000650D01*
X18615420Y-10019698D02*
X18624944Y-10010174D01*
X18624944Y-10010174D02*
X18643991Y-10000650D01*
X18643991Y-10000650D02*
X18672563Y-10000650D01*
X18672563Y-10000650D02*
X18691610Y-10010174D01*
X18691610Y-10010174D02*
X18701134Y-10029222D01*
X18701134Y-10029222D02*
X18701134Y-10133984D01*
X18701134Y-10029222D02*
X18710658Y-10010174D01*
X18710658Y-10010174D02*
X18729705Y-10000650D01*
X18729705Y-10000650D02*
X18758277Y-10000650D01*
X18758277Y-10000650D02*
X18777325Y-10010174D01*
X18777325Y-10010174D02*
X18786848Y-10029222D01*
X18786848Y-10029222D02*
X18786848Y-10133984D01*
X18882086Y-10133984D02*
X18882086Y-10000650D01*
X18882086Y-10019698D02*
X18891610Y-10010174D01*
X18891610Y-10010174D02*
X18910658Y-10000650D01*
X18910658Y-10000650D02*
X18939229Y-10000650D01*
X18939229Y-10000650D02*
X18958277Y-10010174D01*
X18958277Y-10010174D02*
X18967801Y-10029222D01*
X18967801Y-10029222D02*
X18967801Y-10133984D01*
X18967801Y-10029222D02*
X18977325Y-10010174D01*
X18977325Y-10010174D02*
X18996372Y-10000650D01*
X18996372Y-10000650D02*
X19024944Y-10000650D01*
X19024944Y-10000650D02*
X19043991Y-10010174D01*
X19043991Y-10010174D02*
X19053515Y-10029222D01*
X19053515Y-10029222D02*
X19053515Y-10133984D01*
X19443991Y-9924460D02*
X19272563Y-10181603D01*
X19701134Y-9933984D02*
X19720182Y-9933984D01*
X19720182Y-9933984D02*
X19739229Y-9943508D01*
X19739229Y-9943508D02*
X19748753Y-9953031D01*
X19748753Y-9953031D02*
X19758277Y-9972079D01*
X19758277Y-9972079D02*
X19767801Y-10010174D01*
X19767801Y-10010174D02*
X19767801Y-10057793D01*
X19767801Y-10057793D02*
X19758277Y-10095889D01*
X19758277Y-10095889D02*
X19748753Y-10114936D01*
X19748753Y-10114936D02*
X19739229Y-10124460D01*
X19739229Y-10124460D02*
X19720182Y-10133984D01*
X19720182Y-10133984D02*
X19701134Y-10133984D01*
X19701134Y-10133984D02*
X19682087Y-10124460D01*
X19682087Y-10124460D02*
X19672563Y-10114936D01*
X19672563Y-10114936D02*
X19663039Y-10095889D01*
X19663039Y-10095889D02*
X19653515Y-10057793D01*
X19653515Y-10057793D02*
X19653515Y-10010174D01*
X19653515Y-10010174D02*
X19663039Y-9972079D01*
X19663039Y-9972079D02*
X19672563Y-9953031D01*
X19672563Y-9953031D02*
X19682087Y-9943508D01*
X19682087Y-9943508D02*
X19701134Y-9933984D01*
X19853515Y-10114936D02*
X19863039Y-10124460D01*
X19863039Y-10124460D02*
X19853515Y-10133984D01*
X19853515Y-10133984D02*
X19843991Y-10124460D01*
X19843991Y-10124460D02*
X19853515Y-10114936D01*
X19853515Y-10114936D02*
X19853515Y-10133984D01*
X20053515Y-10133984D02*
X19939229Y-10133984D01*
X19996372Y-10133984D02*
X19996372Y-9933984D01*
X19996372Y-9933984D02*
X19977325Y-9962555D01*
X19977325Y-9962555D02*
X19958277Y-9981603D01*
X19958277Y-9981603D02*
X19939229Y-9991127D01*
X20129706Y-9953031D02*
X20139229Y-9943508D01*
X20139229Y-9943508D02*
X20158277Y-9933984D01*
X20158277Y-9933984D02*
X20205896Y-9933984D01*
X20205896Y-9933984D02*
X20224944Y-9943508D01*
X20224944Y-9943508D02*
X20234468Y-9953031D01*
X20234468Y-9953031D02*
X20243991Y-9972079D01*
X20243991Y-9972079D02*
X20243991Y-9991127D01*
X20243991Y-9991127D02*
X20234468Y-10019698D01*
X20234468Y-10019698D02*
X20120182Y-10133984D01*
X20120182Y-10133984D02*
X20243991Y-10133984D01*
X20415420Y-9933984D02*
X20377325Y-9933984D01*
X20377325Y-9933984D02*
X20358277Y-9943508D01*
X20358277Y-9943508D02*
X20348753Y-9953031D01*
X20348753Y-9953031D02*
X20329706Y-9981603D01*
X20329706Y-9981603D02*
X20320182Y-10019698D01*
X20320182Y-10019698D02*
X20320182Y-10095889D01*
X20320182Y-10095889D02*
X20329706Y-10114936D01*
X20329706Y-10114936D02*
X20339229Y-10124460D01*
X20339229Y-10124460D02*
X20358277Y-10133984D01*
X20358277Y-10133984D02*
X20396372Y-10133984D01*
X20396372Y-10133984D02*
X20415420Y-10124460D01*
X20415420Y-10124460D02*
X20424944Y-10114936D01*
X20424944Y-10114936D02*
X20434468Y-10095889D01*
X20434468Y-10095889D02*
X20434468Y-10048270D01*
X20434468Y-10048270D02*
X20424944Y-10029222D01*
X20424944Y-10029222D02*
X20415420Y-10019698D01*
X20415420Y-10019698D02*
X20396372Y-10010174D01*
X20396372Y-10010174D02*
X20358277Y-10010174D01*
X20358277Y-10010174D02*
X20339229Y-10019698D01*
X20339229Y-10019698D02*
X20329706Y-10029222D01*
X20329706Y-10029222D02*
X20320182Y-10048270D01*
X20558277Y-9933984D02*
X20577325Y-9933984D01*
X20577325Y-9933984D02*
X20596372Y-9943508D01*
X20596372Y-9943508D02*
X20605896Y-9953031D01*
X20605896Y-9953031D02*
X20615420Y-9972079D01*
X20615420Y-9972079D02*
X20624944Y-10010174D01*
X20624944Y-10010174D02*
X20624944Y-10057793D01*
X20624944Y-10057793D02*
X20615420Y-10095889D01*
X20615420Y-10095889D02*
X20605896Y-10114936D01*
X20605896Y-10114936D02*
X20596372Y-10124460D01*
X20596372Y-10124460D02*
X20577325Y-10133984D01*
X20577325Y-10133984D02*
X20558277Y-10133984D01*
X20558277Y-10133984D02*
X20539229Y-10124460D01*
X20539229Y-10124460D02*
X20529706Y-10114936D01*
X20529706Y-10114936D02*
X20520182Y-10095889D01*
X20520182Y-10095889D02*
X20510658Y-10057793D01*
X20510658Y-10057793D02*
X20510658Y-10010174D01*
X20510658Y-10010174D02*
X20520182Y-9972079D01*
X20520182Y-9972079D02*
X20529706Y-9953031D01*
X20529706Y-9953031D02*
X20539229Y-9943508D01*
X20539229Y-9943508D02*
X20558277Y-9933984D01*
X20701134Y-9933984D02*
X20701134Y-9972079D01*
X20777325Y-9933984D02*
X20777325Y-9972079D01*
X21072563Y-10210174D02*
X21063039Y-10200650D01*
X21063039Y-10200650D02*
X21043991Y-10172079D01*
X21043991Y-10172079D02*
X21034468Y-10153031D01*
X21034468Y-10153031D02*
X21024944Y-10124460D01*
X21024944Y-10124460D02*
X21015420Y-10076841D01*
X21015420Y-10076841D02*
X21015420Y-10038746D01*
X21015420Y-10038746D02*
X21024944Y-9991127D01*
X21024944Y-9991127D02*
X21034468Y-9962555D01*
X21034468Y-9962555D02*
X21043991Y-9943508D01*
X21043991Y-9943508D02*
X21063039Y-9914936D01*
X21063039Y-9914936D02*
X21072563Y-9905412D01*
X21234468Y-10000650D02*
X21234468Y-10133984D01*
X21186849Y-9924460D02*
X21139230Y-10067317D01*
X21139230Y-10067317D02*
X21263039Y-10067317D01*
X21491611Y-10133984D02*
X21491611Y-9933984D01*
X21577325Y-10133984D02*
X21577325Y-10029222D01*
X21577325Y-10029222D02*
X21567801Y-10010174D01*
X21567801Y-10010174D02*
X21548753Y-10000650D01*
X21548753Y-10000650D02*
X21520182Y-10000650D01*
X21520182Y-10000650D02*
X21501134Y-10010174D01*
X21501134Y-10010174D02*
X21491611Y-10019698D01*
X21701134Y-10133984D02*
X21682087Y-10124460D01*
X21682087Y-10124460D02*
X21672563Y-10114936D01*
X21672563Y-10114936D02*
X21663039Y-10095889D01*
X21663039Y-10095889D02*
X21663039Y-10038746D01*
X21663039Y-10038746D02*
X21672563Y-10019698D01*
X21672563Y-10019698D02*
X21682087Y-10010174D01*
X21682087Y-10010174D02*
X21701134Y-10000650D01*
X21701134Y-10000650D02*
X21729706Y-10000650D01*
X21729706Y-10000650D02*
X21748753Y-10010174D01*
X21748753Y-10010174D02*
X21758277Y-10019698D01*
X21758277Y-10019698D02*
X21767801Y-10038746D01*
X21767801Y-10038746D02*
X21767801Y-10095889D01*
X21767801Y-10095889D02*
X21758277Y-10114936D01*
X21758277Y-10114936D02*
X21748753Y-10124460D01*
X21748753Y-10124460D02*
X21729706Y-10133984D01*
X21729706Y-10133984D02*
X21701134Y-10133984D01*
X21882087Y-10133984D02*
X21863039Y-10124460D01*
X21863039Y-10124460D02*
X21853515Y-10105412D01*
X21853515Y-10105412D02*
X21853515Y-9933984D01*
X22034468Y-10124460D02*
X22015420Y-10133984D01*
X22015420Y-10133984D02*
X21977325Y-10133984D01*
X21977325Y-10133984D02*
X21958277Y-10124460D01*
X21958277Y-10124460D02*
X21948753Y-10105412D01*
X21948753Y-10105412D02*
X21948753Y-10029222D01*
X21948753Y-10029222D02*
X21958277Y-10010174D01*
X21958277Y-10010174D02*
X21977325Y-10000650D01*
X21977325Y-10000650D02*
X22015420Y-10000650D01*
X22015420Y-10000650D02*
X22034468Y-10010174D01*
X22034468Y-10010174D02*
X22043992Y-10029222D01*
X22043992Y-10029222D02*
X22043992Y-10048270D01*
X22043992Y-10048270D02*
X21948753Y-10067317D01*
X22120182Y-10124460D02*
X22139230Y-10133984D01*
X22139230Y-10133984D02*
X22177325Y-10133984D01*
X22177325Y-10133984D02*
X22196373Y-10124460D01*
X22196373Y-10124460D02*
X22205896Y-10105412D01*
X22205896Y-10105412D02*
X22205896Y-10095889D01*
X22205896Y-10095889D02*
X22196373Y-10076841D01*
X22196373Y-10076841D02*
X22177325Y-10067317D01*
X22177325Y-10067317D02*
X22148753Y-10067317D01*
X22148753Y-10067317D02*
X22129706Y-10057793D01*
X22129706Y-10057793D02*
X22120182Y-10038746D01*
X22120182Y-10038746D02*
X22120182Y-10029222D01*
X22120182Y-10029222D02*
X22129706Y-10010174D01*
X22129706Y-10010174D02*
X22148753Y-10000650D01*
X22148753Y-10000650D02*
X22177325Y-10000650D01*
X22177325Y-10000650D02*
X22196373Y-10010174D01*
X22272563Y-10210174D02*
X22282087Y-10200650D01*
X22282087Y-10200650D02*
X22301134Y-10172079D01*
X22301134Y-10172079D02*
X22310658Y-10153031D01*
X22310658Y-10153031D02*
X22320182Y-10124460D01*
X22320182Y-10124460D02*
X22329706Y-10076841D01*
X22329706Y-10076841D02*
X22329706Y-10038746D01*
X22329706Y-10038746D02*
X22320182Y-9991127D01*
X22320182Y-9991127D02*
X22310658Y-9962555D01*
X22310658Y-9962555D02*
X22301134Y-9943508D01*
X22301134Y-9943508D02*
X22282087Y-9914936D01*
X22282087Y-9914936D02*
X22272563Y-9905412D01*
X22634468Y-10210174D02*
X22624944Y-10200650D01*
X22624944Y-10200650D02*
X22605896Y-10172079D01*
X22605896Y-10172079D02*
X22596372Y-10153031D01*
X22596372Y-10153031D02*
X22586849Y-10124460D01*
X22586849Y-10124460D02*
X22577325Y-10076841D01*
X22577325Y-10076841D02*
X22577325Y-10038746D01*
X22577325Y-10038746D02*
X22586849Y-9991127D01*
X22586849Y-9991127D02*
X22596372Y-9962555D01*
X22596372Y-9962555D02*
X22605896Y-9943508D01*
X22605896Y-9943508D02*
X22624944Y-9914936D01*
X22624944Y-9914936D02*
X22634468Y-9905412D01*
X22710658Y-10000650D02*
X22710658Y-10133984D01*
X22710658Y-10019698D02*
X22720182Y-10010174D01*
X22720182Y-10010174D02*
X22739230Y-10000650D01*
X22739230Y-10000650D02*
X22767801Y-10000650D01*
X22767801Y-10000650D02*
X22786849Y-10010174D01*
X22786849Y-10010174D02*
X22796372Y-10029222D01*
X22796372Y-10029222D02*
X22796372Y-10133984D01*
X22920182Y-10133984D02*
X22901134Y-10124460D01*
X22901134Y-10124460D02*
X22891611Y-10114936D01*
X22891611Y-10114936D02*
X22882087Y-10095889D01*
X22882087Y-10095889D02*
X22882087Y-10038746D01*
X22882087Y-10038746D02*
X22891611Y-10019698D01*
X22891611Y-10019698D02*
X22901134Y-10010174D01*
X22901134Y-10010174D02*
X22920182Y-10000650D01*
X22920182Y-10000650D02*
X22948753Y-10000650D01*
X22948753Y-10000650D02*
X22967801Y-10010174D01*
X22967801Y-10010174D02*
X22977325Y-10019698D01*
X22977325Y-10019698D02*
X22986849Y-10038746D01*
X22986849Y-10038746D02*
X22986849Y-10095889D01*
X22986849Y-10095889D02*
X22977325Y-10114936D01*
X22977325Y-10114936D02*
X22967801Y-10124460D01*
X22967801Y-10124460D02*
X22948753Y-10133984D01*
X22948753Y-10133984D02*
X22920182Y-10133984D01*
X23043992Y-10000650D02*
X23120182Y-10000650D01*
X23072563Y-9933984D02*
X23072563Y-10105412D01*
X23072563Y-10105412D02*
X23082087Y-10124460D01*
X23082087Y-10124460D02*
X23101134Y-10133984D01*
X23101134Y-10133984D02*
X23120182Y-10133984D01*
X23339230Y-10000650D02*
X23339230Y-10200650D01*
X23339230Y-10010174D02*
X23358277Y-10000650D01*
X23358277Y-10000650D02*
X23396373Y-10000650D01*
X23396373Y-10000650D02*
X23415420Y-10010174D01*
X23415420Y-10010174D02*
X23424944Y-10019698D01*
X23424944Y-10019698D02*
X23434468Y-10038746D01*
X23434468Y-10038746D02*
X23434468Y-10095889D01*
X23434468Y-10095889D02*
X23424944Y-10114936D01*
X23424944Y-10114936D02*
X23415420Y-10124460D01*
X23415420Y-10124460D02*
X23396373Y-10133984D01*
X23396373Y-10133984D02*
X23358277Y-10133984D01*
X23358277Y-10133984D02*
X23339230Y-10124460D01*
X23548753Y-10133984D02*
X23529706Y-10124460D01*
X23529706Y-10124460D02*
X23520182Y-10105412D01*
X23520182Y-10105412D02*
X23520182Y-9933984D01*
X23710658Y-10133984D02*
X23710658Y-10029222D01*
X23710658Y-10029222D02*
X23701134Y-10010174D01*
X23701134Y-10010174D02*
X23682087Y-10000650D01*
X23682087Y-10000650D02*
X23643992Y-10000650D01*
X23643992Y-10000650D02*
X23624944Y-10010174D01*
X23710658Y-10124460D02*
X23691611Y-10133984D01*
X23691611Y-10133984D02*
X23643992Y-10133984D01*
X23643992Y-10133984D02*
X23624944Y-10124460D01*
X23624944Y-10124460D02*
X23615420Y-10105412D01*
X23615420Y-10105412D02*
X23615420Y-10086365D01*
X23615420Y-10086365D02*
X23624944Y-10067317D01*
X23624944Y-10067317D02*
X23643992Y-10057793D01*
X23643992Y-10057793D02*
X23691611Y-10057793D01*
X23691611Y-10057793D02*
X23710658Y-10048270D01*
X23777325Y-10000650D02*
X23853515Y-10000650D01*
X23805896Y-9933984D02*
X23805896Y-10105412D01*
X23805896Y-10105412D02*
X23815420Y-10124460D01*
X23815420Y-10124460D02*
X23834468Y-10133984D01*
X23834468Y-10133984D02*
X23853515Y-10133984D01*
X23996373Y-10124460D02*
X23977325Y-10133984D01*
X23977325Y-10133984D02*
X23939230Y-10133984D01*
X23939230Y-10133984D02*
X23920182Y-10124460D01*
X23920182Y-10124460D02*
X23910658Y-10105412D01*
X23910658Y-10105412D02*
X23910658Y-10029222D01*
X23910658Y-10029222D02*
X23920182Y-10010174D01*
X23920182Y-10010174D02*
X23939230Y-10000650D01*
X23939230Y-10000650D02*
X23977325Y-10000650D01*
X23977325Y-10000650D02*
X23996373Y-10010174D01*
X23996373Y-10010174D02*
X24005896Y-10029222D01*
X24005896Y-10029222D02*
X24005896Y-10048270D01*
X24005896Y-10048270D02*
X23910658Y-10067317D01*
X24177325Y-10133984D02*
X24177325Y-9933984D01*
X24177325Y-10124460D02*
X24158277Y-10133984D01*
X24158277Y-10133984D02*
X24120182Y-10133984D01*
X24120182Y-10133984D02*
X24101134Y-10124460D01*
X24101134Y-10124460D02*
X24091611Y-10114936D01*
X24091611Y-10114936D02*
X24082087Y-10095889D01*
X24082087Y-10095889D02*
X24082087Y-10038746D01*
X24082087Y-10038746D02*
X24091611Y-10019698D01*
X24091611Y-10019698D02*
X24101134Y-10010174D01*
X24101134Y-10010174D02*
X24120182Y-10000650D01*
X24120182Y-10000650D02*
X24158277Y-10000650D01*
X24158277Y-10000650D02*
X24177325Y-10010174D01*
X24253515Y-10210174D02*
X24263039Y-10200650D01*
X24263039Y-10200650D02*
X24282087Y-10172079D01*
X24282087Y-10172079D02*
X24291611Y-10153031D01*
X24291611Y-10153031D02*
X24301134Y-10124460D01*
X24301134Y-10124460D02*
X24310658Y-10076841D01*
X24310658Y-10076841D02*
X24310658Y-10038746D01*
X24310658Y-10038746D02*
X24301134Y-9991127D01*
X24301134Y-9991127D02*
X24291611Y-9962555D01*
X24291611Y-9962555D02*
X24282087Y-9943508D01*
X24282087Y-9943508D02*
X24263039Y-9914936D01*
X24263039Y-9914936D02*
X24253515Y-9905412D01*
M02*
